<?xml version="1.0" standalone="no"?>
<!DOCTYPE svg PUBLIC "-//W3C//DTD SVG 20010904//EN"
 "http://www.w3.org/TR/2001/REC-SVG-20010904/DTD/svg10.dtd">
<svg version="1.0" xmlns="http://www.w3.org/2000/svg"
 width="400.000000pt" height="400.000000pt" viewBox="0 0 400.000000 400.000000"
 preserveAspectRatio="xMidYMid meet">

<g transform="translate(0.000000,400.000000) scale(0.100000,-0.100000)"
fill="#000000" stroke="none">
<path d="M0 2000 l0 -2000 2000 0 2000 0 0 2000 0 2000 -2000 0 -2000 0 0
-2000z m3789 1901 c21 -40 37 -51 77 -51 31 0 30 -11 -2 -41 -23 -21 -25 -29
-20 -71 3 -27 2 -48 -2 -48 -4 1 -23 9 -42 19 -34 19 -36 19 -72 0 -20 -10
-39 -19 -41 -19 -2 0 -1 19 4 43 7 38 5 45 -22 72 -16 17 -29 34 -29 38 0 4
15 7 34 7 39 0 57 14 76 59 7 17 14 31 16 31 2 0 12 -17 23 -39z m-1014 6 c38
-10 50 -18 50 -33 0 -14 -11 -22 -45 -30 -54 -13 -1217 -28 -1270 -16 -29 6
-36 13 -38 36 -7 60 -48 56 630 56 477 0 635 -3 673 -13z m550 -24 c-14 -51
-11 -77 9 -81 10 -2 23 3 28 12 16 29 47 19 63 -20 18 -43 38 -40 45 7 7 46
34 45 58 -1 13 -27 24 -36 51 -40 67 -10 70 -70 3 -70 -48 0 -62 -14 -55 -55
4 -24 1 -34 -12 -39 -13 -5 -30 6 -62 41 -43 46 -45 47 -59 28 -8 -10 -14 -25
-14 -32 0 -7 -11 -13 -25 -13 -19 0 -30 10 -46 42 l-21 42 -17 -23 c-34 -45
-65 -5 -76 101 l-7 66 -44 12 c-29 8 -70 10 -119 6 -45 -4 -75 -3 -75 3 0 5 7
12 16 15 30 12 152 6 194 -9 41 -15 45 -14 84 10 23 13 52 24 65 25 21 0 22
-3 16 -27z m-2985 -38 c24 -22 26 -67 4 -86 -14 -11 -14 -13 1 -21 12 -7 23
-1 44 21 24 26 37 31 73 31 53 0 73 -12 64 -36 -5 -14 1 -11 22 10 31 29 58
35 105 23 27 -7 27 -7 27 38 0 32 4 45 14 45 21 0 29 -35 21 -86 -3 -24 -2
-44 3 -44 4 0 26 13 48 30 21 16 45 30 52 30 21 0 13 -28 -15 -48 l-27 -20 29
-35 c22 -25 40 -36 65 -38 l35 -4 5 -90 c5 -89 5 -90 33 -93 15 -2 27 -8 27
-13 0 -5 -42 -10 -97 -10 -144 0 -142 0 -164 11 -13 8 -25 7 -40 -1 -12 -6
-36 -11 -54 -11 -18 0 -42 5 -54 11 -14 8 -21 8 -21 1 0 -5 -9 -10 -20 -10
-18 0 -20 7 -20 54 0 63 -14 81 -50 63 -21 -11 -25 -21 -28 -65 l-3 -52 -62 0
c-41 0 -70 5 -85 16 -21 14 -25 14 -40 1 -15 -14 -60 -21 -119 -18 -13 1 -23
7 -23 16 0 11 10 13 48 9 85 -9 98 34 19 61 -47 16 -67 33 -67 55 0 25 34 51
68 52 29 1 30 3 36 61 3 33 6 81 6 108 0 28 5 50 13 53 25 11 107 -1 127 -19z
m2680 -89 c50 -16 51 -42 3 -55 -95 -26 -100 -26 -104 6 -2 15 -3 38 -1 51 3
20 7 22 35 16 18 -3 48 -12 67 -18z m-1812 -52 c47 -33 24 -88 -63 -151 l-30
-22 68 -1 c53 0 67 -3 67 -15 0 -12 -17 -15 -96 -15 -114 0 -116 5 -26 79 45
37 62 58 62 76 0 35 -32 49 -76 35 -41 -14 -58 -5 -30 16 26 19 96 18 124 -2z
m1941 -158 c15 -8 32 -26 39 -40 11 -24 12 -24 42 -9 20 9 43 13 63 9 18 -4
58 -8 91 -9 l59 -2 2 -63 c4 -100 27 -102 29 -2 1 55 3 60 23 60 28 0 37 -14
24 -37 -6 -10 -22 -71 -36 -137 -13 -65 -30 -125 -36 -132 -9 -11 -7 -15 7
-20 11 -4 31 -18 46 -32 l26 -24 24 21 c23 22 41 28 93 33 29 3 30 5 33 61 2
35 -1 57 -8 57 -5 0 -10 -15 -10 -33 0 -50 -24 -77 -70 -77 -70 0 -103 72 -57
125 24 28 47 32 107 20 34 -7 36 -5 48 28 13 36 45 53 77 41 20 -8 14 -30 -8
-26 -8 1 -23 -8 -31 -20 -15 -21 -14 -22 17 -33 39 -12 37 -31 -3 -27 l-30 4
0 -66 c0 -43 4 -66 11 -66 7 0 27 -16 45 -36 l34 -35 0 86 c0 84 1 86 23 83
22 -3 22 -6 25 -162 1 -88 -1 -163 -6 -168 -17 -17 -42 4 -42 34 l0 30 -35
-30 c-61 -54 -179 -53 -223 2 l-18 24 -23 -24 c-23 -24 -77 -44 -119 -44 -34
0 -89 26 -104 49 -18 29 -31 26 -26 -4 6 -29 -12 -48 -36 -39 -13 5 -16 22
-16 95 0 76 -3 92 -20 109 -26 26 -39 25 -81 -3 -34 -22 -34 -24 -37 -107 -3
-86 -12 -106 -42 -90 -10 5 -34 4 -58 -2 -51 -13 -102 -4 -130 22 l-22 21 -29
-22 c-56 -42 -200 -31 -209 15 -3 16 0 18 25 12 76 -18 113 -18 138 -2 19 13
25 24 23 44 -3 24 -12 30 -76 52 -79 27 -102 48 -102 91 0 34 47 76 95 85 l35
6 0 85 c0 71 -2 84 -15 80 -33 -13 -23 15 21 55 56 52 64 56 64 29 0 -19 2
-19 35 -5 19 8 35 12 35 10 0 -2 3 -12 7 -22 5 -14 2 -16 -20 -10 -36 9 -34 2
8 -23 l35 -20 0 38 c0 31 5 40 26 50 22 10 28 9 39 -6 9 -12 10 -20 2 -25 -5
-3 -11 -31 -11 -62 l-1 -55 -45 -1 c-25 0 -56 -1 -69 -3 -13 -1 -26 4 -29 12
-3 10 2 13 22 9 35 -7 33 4 -4 25 l-30 18 0 -90 c0 -49 5 -93 10 -96 6 -3 10
-15 10 -25 0 -18 -5 -19 -58 -14 -73 8 -105 -6 -100 -43 3 -22 13 -29 78 -52
l75 -26 15 30 c23 45 73 67 143 62 54 -5 57 -4 57 18 0 13 -6 25 -12 28 -10 3
-10 9 0 26 15 26 17 267 2 276 -5 3 -10 12 -10 20 0 13 15 16 108 23 13 1 35
-4 51 -12z m-1550 -146 c164 -47 222 -253 107 -378 -76 -83 -173 -104 -271
-58 -88 41 -135 114 -135 213 0 156 148 267 299 223z m829 -37 c92 -68 104
-190 26 -268 l-35 -35 20 -28 c10 -15 33 -40 50 -56 17 -17 31 -32 31 -36 0
-3 -16 -4 -35 -2 -34 4 -35 3 -35 -32 0 -20 -5 -36 -11 -36 -17 0 -66 57 -86
100 -10 22 -20 40 -23 40 -4 0 -12 -16 -19 -35 -13 -37 -71 -105 -90 -105 -6
0 -11 16 -11 35 0 34 -1 35 -36 35 l-37 0 52 54 c28 30 51 59 51 65 0 5 -9 16
-19 23 -35 25 -63 86 -63 137 0 71 40 134 102 160 40 17 136 8 168 -16z
m-1200 -75 c14 -14 17 -744 4 -766 -7 -10 -127 -12 -568 -10 l-559 3 -3 380
c-1 209 0 386 3 392 6 18 1105 19 1123 1z m690 -387 c12 -7 12 -12 1 -30 -22
-34 -43 -23 -32 17 6 24 11 26 31 13z m1524 -76 c216 -22 470 -63 485 -78 17
-17 -5 -120 -67 -302 -28 -80 -50 -160 -50 -178 0 -33 -32 -97 -49 -97 -6 0
-16 12 -23 27 -15 30 -43 51 -54 40 -4 -4 -7 -28 -5 -53 2 -52 -14 -81 -35
-63 -8 6 -14 22 -14 34 0 31 -28 54 -41 34 -19 -30 -3 -102 29 -128 15 -12 13
-13 -18 -7 -51 9 -83 49 -78 98 l4 38 -48 0 c-25 0 -82 -5 -125 -12 -134 -20
-135 -20 -148 32 -17 68 -32 90 -60 90 -20 0 -26 -8 -36 -40 -12 -40 -5 -66
11 -41 4 8 15 11 24 8 16 -7 23 -68 10 -101 -8 -20 -30 -21 -42 -1 -11 20 -45
8 -38 -12 3 -8 6 -21 6 -29 0 -8 9 -23 20 -34 l20 -20 -39 0 c-31 0 -44 6 -64
30 -14 16 -27 34 -29 39 -2 6 -35 5 -89 -2 -69 -10 -85 -15 -81 -27 3 -8 10
-18 16 -22 6 -4 8 -10 4 -13 -10 -11 -75 22 -92 46 -9 14 -34 28 -59 34 -38 9
-42 13 -43 40 0 17 -8 54 -17 84 -9 30 -17 74 -17 98 0 35 5 46 26 59 14 10
40 18 57 19 18 1 47 9 64 19 18 9 41 16 53 16 25 0 25 0 -1 80 -11 36 -29 103
-39 150 -23 102 -24 101 89 126 166 37 345 43 583 19z m-1305 -141 c-1 -1 -44
-22 -94 -48 l-93 -46 -6 25 c-4 14 -3 29 1 33 3 4 46 27 93 52 l87 45 7 -30
c3 -16 6 -31 5 -31z m123 -34 l0 -40 -120 -60 c-66 -33 -125 -60 -130 -60 -7
0 -10 15 -8 38 3 37 4 38 123 99 66 34 123 62 128 63 4 0 7 -18 7 -40z m-1798
-253 c22 -28 18 -42 -13 -42 -17 0 -24 6 -24 20 0 24 -22 29 -80 21 -32 -5
-42 -11 -41 -24 1 -12 -7 -17 -23 -17 -35 0 -36 19 -4 40 61 40 155 41 185 2z
m1373 23 c-4 -6 -81 -10 -198 -10 l-192 0 0 -65 c-1 -65 -1 -65 27 -65 29 0
38 -14 16 -23 -7 -3 -4 -6 8 -6 11 -1 29 6 40 14 21 16 109 21 99 5 -3 -5 -19
-10 -35 -10 -41 0 -99 -39 -106 -73 -4 -15 -11 -30 -15 -33 -21 -13 -6 -24 31
-24 47 0 82 26 111 82 25 48 55 68 104 68 34 0 41 -3 41 -20 0 -17 -6 -20 -32
-18 -38 2 -64 -16 -64 -46 0 -64 86 -60 149 8 27 29 41 33 41 12 0 -8 -19 -30
-42 -50 l-43 -36 33 0 c20 0 31 -4 27 -10 -8 -14 -802 -14 -810 0 -3 6 -1 10
6 10 7 0 9 9 6 22 -4 12 3 42 13 66 24 54 24 51 1 45 -10 -3 -22 0 -25 6 -5 7
28 10 104 10 70 0 108 -4 104 -10 -3 -5 -15 -9 -26 -7 -17 2 -24 -6 -36 -40
-7 -23 -11 -49 -8 -57 8 -21 40 -18 61 5 12 14 22 17 29 10 6 -6 3 -16 -9 -30
-18 -20 -18 -20 9 -20 23 0 26 3 21 20 -8 25 3 26 20 3 12 -17 14 -17 34 1 15
14 21 31 21 63 0 41 -1 43 -29 43 -44 0 -47 18 -4 22 38 3 38 3 43 53 3 28 9
56 13 63 6 9 -30 12 -172 12 -114 0 -181 4 -181 10 0 7 144 10 411 10 271 0
408 -3 404 -10z m473 -22 c51 -22 99 -67 123 -115 13 -26 30 -52 37 -56 7 -5
12 -31 12 -71 0 -115 -76 -218 -186 -253 -29 -9 -51 -19 -49 -23 2 -4 22 -12
44 -20 33 -10 41 -18 41 -37 0 -74 -201 -87 -239 -15 -13 24 -4 35 39 52 52
20 56 27 18 35 -120 26 -208 136 -208 262 0 40 5 65 13 70 7 4 19 23 27 42 27
68 92 121 175 142 36 10 116 3 153 -13z m-1766 -120 c4 -10 3 -229 -1 -260 -1
-5 -89 -8 -196 -8 l-195 0 0 140 0 140 194 0 c146 0 195 -3 198 -12z m390
-208 c6 -92 -1 -100 -88 -100 -92 0 -94 2 -94 74 0 103 -2 101 95 101 l83 0 4
-75z m555 -26 c25 -26 26 -28 19 -127 -6 -97 -6 -100 12 -84 11 10 25 36 33
59 20 62 68 108 112 108 64 0 90 -52 63 -124 -25 -66 -56 -89 -126 -94 -83 -6
-87 -13 -67 -125 9 -51 19 -118 23 -150 6 -53 5 -59 -11 -55 -26 5 -55 67 -68
145 -6 38 -12 70 -14 72 -2 3 -26 -19 -53 -47 -27 -29 -64 -61 -82 -72 -32
-19 -68 -27 -68 -13 0 11 52 75 127 156 82 89 83 98 16 146 -52 38 -69 82 -53
143 23 86 85 114 137 62z m2418 -1039 l0 -910 -285 0 -285 0 -3 900 c-1 495 0
906 3 913 3 10 66 12 287 10 l283 -3 0 -910z m-1109 858 c-7 -7 -77 -5 -85 3
-2 2 17 4 44 4 27 0 45 -3 41 -7z m279 -27 c-27 -29 -32 -41 -30 -76 3 -44 19
-70 44 -71 11 0 12 -2 3 -6 -19 -7 -62 25 -62 46 0 30 -11 52 -22 45 -6 -4
-14 0 -19 7 -7 11 -9 11 -9 -3 0 -12 -6 -15 -23 -12 -18 3 -27 -2 -35 -20 -12
-27 -7 -36 21 -36 23 0 87 -62 87 -84 0 -9 -4 -16 -10 -16 -5 0 -7 7 -3 15 3
9 2 15 -3 13 -15 -4 -64 33 -64 48 0 8 -5 14 -11 14 -5 0 -7 -4 -4 -10 8 -12
-15 -13 -33 -1 -11 7 -10 17 8 52 28 55 36 60 83 55 30 -4 39 0 48 17 11 22
48 56 60 57 4 0 -8 -15 -26 -34z m-1175 -25 c10 -28 22 -44 37 -47 18 -5 23
-13 23 -39 0 -27 5 -34 25 -39 14 -4 34 -21 45 -39 18 -28 20 -51 20 -185 0
-188 -8 -215 -72 -232 -24 -7 -83 -10 -136 -8 -85 4 -95 6 -120 31 -27 27 -27
29 -30 186 -4 182 6 224 58 244 24 9 30 17 30 39 0 21 7 32 25 40 14 6 28 23
32 37 17 73 40 77 63 12z m698 -63 c2 -80 6 -107 17 -112 8 -3 12 0 9 8 -3 7
5 21 17 32 22 19 22 19 8 -3 -10 -17 -10 -27 -1 -47 13 -28 3 -41 -33 -41 -17
0 -19 -6 -17 -45 2 -33 0 -41 -7 -30 -9 13 -11 13 -11 -2 0 -10 5 -18 10 -18
6 0 10 -4 10 -9 0 -6 -12 -9 -27 -8 -24 2 -28 -3 -37 -41 -26 -105 -138 -111
-165 -9 -27 103 75 192 143 124 23 -23 56 -32 56 -15 0 4 -6 8 -14 8 -18 0
-21 241 -3 252 8 5 6 9 -6 14 -11 4 -25 0 -36 -10 -10 -9 -25 -14 -35 -10 -25
9 61 75 94 72 25 -3 25 -4 28 -110z m-1372 67 c21 -21 24 -31 18 -58 -9 -44
-29 -71 -74 -101 l-38 -25 17 -57 c17 -57 17 -57 70 -70 85 -22 141 -75 141
-134 0 -31 -50 -77 -97 -89 -39 -11 -40 -12 -46 -63 -4 -29 -15 -64 -25 -78
-24 -32 -77 -50 -116 -39 -69 20 -100 88 -51 111 55 25 102 -32 54 -66 l-22
-15 26 -6 c63 -16 107 25 107 101 l0 41 -60 16 c-172 48 -213 209 -84 335 46
44 53 56 44 72 -22 41 -7 109 29 137 28 21 79 15 107 -12z m1554 16 c0 -5 -7
-12 -16 -15 -14 -5 -15 -4 -4 9 14 17 20 19 20 6z m-1752 -53 c-3 -49 -5 -53
-30 -56 -25 -3 -28 0 -30 30 l-1 33 -4 -33 -4 -33 -62 3 c-60 3 -62 4 -68 33
l-7 30 -1 -33 -1 -33 -62 3 c-61 3 -63 4 -69 33 l-7 30 -1 -32 -1 -33 -60 0
c-57 0 -60 1 -60 24 0 14 -4 28 -10 31 -6 4 -10 -7 -10 -24 l0 -31 -60 0 -60
0 0 30 c0 17 -4 30 -10 30 -5 0 -10 -13 -10 -30 l0 -30 -60 0 -60 0 0 31 c0
17 -4 28 -10 24 -6 -3 -10 -17 -10 -31 0 -23 -3 -24 -60 -24 l-60 0 -1 33 -1
32 -7 -30 c-5 -23 -12 -31 -34 -33 -27 -3 -27 -2 -27 52 l0 56 481 0 480 0 -3
-52z m1804 25 c29 -26 23 -59 -18 -83 -26 -17 -33 -27 -27 -39 4 -9 7 -36 7
-60 0 -48 -15 -65 -135 -149 -29 -20 -52 -41 -51 -47 1 -5 32 -9 69 -8 59 0
65 -1 48 -13 -10 -8 -28 -12 -39 -9 -18 5 -19 5 -4 -5 24 -15 61 5 78 43 12
27 87 164 97 176 2 2 6 1 10 -2 3 -4 -1 -15 -9 -24 -9 -10 -35 -54 -58 -98
-23 -44 -49 -88 -58 -97 -18 -22 -67 -23 -105 -3 -15 8 -25 10 -22 5 4 -6 -1
-10 -10 -10 -12 0 -15 5 -11 18 5 14 4 14 -9 -2 -8 -11 -15 -15 -15 -10 0 17
49 78 73 91 12 7 18 12 14 13 -4 0 8 14 27 30 46 41 70 100 54 137 -6 16 -11
31 -10 34 0 3 -14 4 -31 2 -31 -3 -31 -3 -7 7 14 6 36 9 50 6 17 -3 38 4 63
21 20 14 37 28 37 30 0 2 -4 1 -10 -2 -5 -3 -7 0 -4 9 3 8 -4 24 -15 35 -25
25 -6 29 21 4z m350 5 c-19 -19 -14 -48 11 -58 13 -5 16 -9 7 -9 -20 -1 -40
18 -40 39 0 15 18 40 29 40 3 0 0 -5 -7 -12z m73 1 c11 -16 1 -19 -13 -3 -7 8
-8 14 -3 14 5 0 13 -5 16 -11z m-123 -32 c13 -20 9 -64 -8 -77 -13 -12 -14
-10 -4 12 14 31 0 64 -33 79 -18 8 -17 8 8 3 16 -3 33 -11 37 -17z m93 -61
c-26 -32 -33 -46 -22 -46 34 0 32 -71 -2 -90 -18 -9 -18 -8 0 27 17 34 18 37
1 49 -22 17 -52 17 -74 0 -16 -12 -16 -14 1 -42 10 -16 31 -36 47 -44 43 -22
60 -42 62 -72 3 -51 -76 -77 -126 -42 -21 15 -32 42 -12 29 6 -3 10 -1 10 4 0
6 -4 11 -9 11 -29 0 -56 -114 -30 -131 10 -6 3 -9 -21 -9 -29 1 -32 2 -17 11
10 6 17 22 17 42 0 40 31 103 49 99 7 -1 10 1 7 6 -2 4 -23 9 -45 10 -33 2
-41 -1 -42 -15 -1 -17 -2 -17 -6 0 -5 21 -2 20 -48 1 -22 -9 -49 -13 -66 -9
-27 6 -29 5 -29 -24 0 -24 3 -29 18 -25 16 5 16 5 0 -6 -10 -6 -19 -25 -19
-43 l-2 -32 -4 30 c-3 16 -10 34 -16 38 -9 6 -9 10 1 14 7 3 12 26 13 61 1 32
3 49 6 40 2 -10 9 -18 14 -18 6 0 8 -3 6 -7 -9 -15 77 -13 100 2 13 9 23 12
23 8 0 -5 24 -8 52 -8 64 0 85 18 56 47 -36 36 -11 98 42 98 20 0 34 11 59 46
18 25 35 44 38 41 3 -3 -12 -26 -32 -51z m-2418 -185 l83 -74 0 -166 0 -166
170 -104 170 -103 0 -49 c0 -27 -4 -49 -9 -49 -4 0 -118 66 -252 146 -134 81
-254 151 -266 156 -18 9 -59 -12 -280 -142 -142 -84 -261 -155 -265 -157 -5
-2 -8 20 -8 49 l1 53 164 100 165 100 0 166 0 166 103 91 c98 87 103 90 122
74 11 -9 57 -50 102 -91z m2219 43 c-4 -9 -9 -15 -11 -12 -3 3 -3 13 1 22 4 9
9 15 11 12 3 -3 3 -13 -1 -22z m-2814 -67 c-3 -52 1 -67 38 -142 23 -46 44
-101 47 -122 5 -36 3 -39 -31 -56 -66 -31 -214 -13 -230 29 -7 18 12 71 59
163 34 69 36 78 30 133 l-7 59 48 -3 49 -3 -3 -58z m183 45 c6 -4 9 -78 7
-195 l-3 -188 -27 3 -27 3 -3 180 c-1 98 0 185 2 192 6 14 35 17 51 5z m2430
-102 c3 -6 -1 -7 -9 -4 -18 7 -21 14 -7 14 6 0 13 -4 16 -10z m-402 -218 l27
-3 0 -175 0 -174 -125 0 -125 0 0 178 1 177 92 31 92 30 5 -30 c4 -25 11 -32
33 -34z m-850 -96 c-3 -39 3 -42 41 -25 19 9 31 8 53 -3 24 -12 33 -12 63 0
38 15 92 9 110 -14 11 -13 15 -12 32 3 13 12 36 18 65 18 60 0 87 -31 80 -92
-4 -37 -2 -43 15 -43 17 0 19 7 16 88 -3 87 -3 87 -31 90 -40 5 -22 22 24 22
l39 0 0 -100 0 -100 30 0 c17 0 30 -4 30 -10 0 -5 -13 -10 -30 -10 -24 0 -30
-4 -30 -21 0 -18 -2 -19 -15 -6 -21 22 -70 30 -94 17 -45 -23 -16 -50 55 -50
64 0 85 -50 33 -79 -18 -10 -40 -12 -82 -7 -47 6 -57 11 -57 27 0 24 9 24 26
2 17 -24 97 -25 121 -1 24 25 9 37 -61 48 -32 5 -64 14 -71 20 -10 8 -23 -7
-58 -62 -34 -54 -42 -74 -31 -76 35 -8 9 -22 -41 -22 -30 0 -55 5 -55 10 0 6
15 10 33 10 27 0 36 6 46 26 10 24 8 33 -19 78 -17 28 -37 58 -43 66 -16 20
-67 43 -67 30 0 -6 7 -10 15 -10 22 0 33 -30 29 -78 -3 -37 0 -44 19 -52 12
-5 18 -10 12 -11 -27 -4 -40 -3 -46 4 -3 4 -20 2 -37 -4 -18 -6 -47 -9 -65 -6
-24 3 -39 -2 -60 -19 -25 -21 -39 -24 -105 -24 -57 1 -73 3 -59 11 14 8 17 24
17 89 0 65 -3 81 -17 89 -17 10 -17 10 2 11 14 0 16 3 8 11 -8 8 -17 7 -34 -5
-30 -21 -149 -23 -149 -3 0 10 13 13 53 10 62 -5 100 14 78 40 -7 9 -35 23
-62 32 -70 24 -86 63 -38 94 26 15 107 17 122 2 8 -8 -3 -11 -40 -11 -55 0
-86 -21 -65 -42 11 -11 99 -48 113 -48 4 0 9 9 12 20 7 26 72 54 109 46 25 -5
28 -3 28 23 0 31 8 43 24 38 6 -2 10 -21 9 -41z m1662 -5 c3 -5 1 -12 -5 -16
-14 -9 -12 -72 3 -78 10 -3 10 -9 0 -26 -17 -27 -17 -88 -1 -93 10 -4 10 -10
0 -32 -15 -34 -16 -83 0 -88 6 -2 -35 -34 -91 -71 l-102 -67 -257 2 -257 3 -9
28 c-7 19 -7 37 1 57 8 22 8 38 0 60 -9 25 -9 36 4 58 13 24 13 30 0 53 -28
49 -10 72 111 148 l111 71 243 0 c139 0 245 -4 249 -9z m-2400 -131 c90 -44
166 -141 189 -242 6 -28 6 -28 -48 -28 l-55 0 -6 -42 c-3 -24 -21 -167 -40
-318 -20 -151 -37 -281 -40 -287 -2 -7 -18 -13 -35 -13 -38 0 -38 -21 1 313
17 148 28 271 24 275 -11 11 -263 8 -274 -3 -9 -9 25 -363 53 -553 5 -33 5
-33 -32 -30 l-37 3 -37 295 c-21 162 -41 310 -43 328 -6 31 -7 32 -55 32 -46
0 -50 2 -50 24 0 65 81 181 161 232 55 35 96 43 189 41 67 -2 96 -7 135 -27z
m1145 -294 c0 -2 -7 -7 -16 -10 -8 -3 -12 -2 -9 4 6 10 25 14 25 6z m-765 -66
c0 -8 -8 -16 -17 -18 -13 -2 -18 3 -18 18 0 15 5 20 18 18 9 -2 17 -10 17 -18z
m992 -12 c18 -10 42 -32 53 -48 28 -39 50 -147 50 -246 0 -78 -1 -81 -34 -113
l-35 -34 6 125 c5 102 3 134 -11 175 -18 55 -84 138 -116 148 -11 4 -20 11
-20 17 0 15 69 0 107 -24z m-1447 -98 l0 -81 -72 3 -73 3 -3 78 -3 77 76 0 75
0 0 -80z m458 63 c-2 -10 -10 -18 -18 -18 -8 0 -16 8 -18 18 -2 12 3 17 18 17
15 0 20 -5 18 -17z m655 -8 c-3 -9 -8 -14 -10 -11 -3 3 -2 9 2 15 9 16 15 13
8 -4z m215 -26 c25 -10 26 -17 11 -68 l-11 -36 -84 0 c-83 0 -84 0 -94 29 -18
52 -13 75 18 82 15 3 32 7 37 9 14 4 96 -6 123 -16z m832 -18 c-13 -24 -1 -28
30 -8 17 10 22 9 30 -3 16 -24 12 -30 -22 -31 -76 -4 -74 -3 -61 -35 3 -8 1
-20 -6 -27 -17 -17 -13 -37 8 -37 14 0 17 -6 14 -24 -4 -17 3 -29 22 -44 26
-21 29 -52 5 -52 -5 0 -10 -4 -10 -10 0 -21 30 -9 63 25 39 40 45 42 63 18 23
-31 17 -42 -21 -36 -27 4 -36 2 -41 -11 -9 -23 2 -31 22 -16 13 12 17 11 25
-1 5 -8 9 -23 9 -34 0 -24 18 -45 38 -45 9 0 11 7 7 19 -3 12 0 21 10 25 11 4
14 13 10 25 -4 13 1 24 16 35 21 15 22 16 6 34 -14 16 -15 21 -4 30 7 6 23 9
35 5 16 -4 22 -1 22 10 0 9 -5 19 -11 22 -6 4 -7 19 -4 36 5 22 3 29 -9 29 -9
0 -17 8 -17 18 -4 49 -7 63 -19 77 -9 11 -10 19 -3 26 8 8 15 5 23 -11 9 -17
14 -19 25 -10 14 12 35 6 35 -10 0 -5 -9 -12 -20 -15 -27 -9 -25 -19 5 -33 27
-12 31 -39 18 -115 -4 -28 -12 -41 -29 -48 -29 -10 -29 -16 -6 -42 12 -14 14
-21 5 -24 -7 -3 -23 -13 -35 -22 l-22 -18 22 -12 c19 -10 26 -8 47 15 24 26
25 26 25 5 0 -29 -26 -91 -39 -91 -5 0 -11 12 -13 28 -4 38 -30 34 -42 -5 -9
-33 -20 -41 -31 -23 -11 18 -27 11 -22 -10 6 -24 -19 -27 -48 -7 -19 15 -13
37 11 37 21 0 17 21 -6 27 -11 3 -20 14 -20 24 0 11 -7 19 -16 19 -13 0 -15
-7 -10 -35 6 -30 4 -35 -13 -35 -23 0 -36 -16 -21 -25 20 -12 9 -26 -17 -23
-19 2 -27 8 -24 18 13 49 13 72 0 68 -8 -3 -16 -20 -19 -39 -4 -27 -7 -30 -13
-16 -4 10 -7 34 -7 53 0 32 1 33 33 28 l32 -5 -28 23 c-23 20 -26 29 -21 57 5
23 3 36 -6 41 -11 7 -11 11 -1 24 10 12 11 19 2 30 -7 9 -11 42 -9 87 3 67 5
75 28 86 30 15 35 11 20 -16z m135 7 c0 -10 9 -24 20 -32 20 -15 20 -15 -1
-16 -11 0 -30 13 -42 30 -28 37 -28 42 1 38 13 -2 22 -10 22 -20z m-1835 -3
c0 -8 -9 -15 -20 -15 -11 0 -20 7 -20 15 0 8 9 15 20 15 11 0 20 -7 20 -15z
m-5 -46 c0 -7 -8 -15 -17 -17 -18 -3 -25 18 -11 32 10 10 28 1 28 -15z m1909
-45 c9 -22 7 -67 -3 -82 -5 -9 -31 -12 -92 -10 l-84 3 -3 53 -3 52 89 0 c73 0
91 -3 96 -16z m-366 -41 l3 -33 -115 0 -116 0 0 28 c0 16 3 32 7 36 4 3 54 5
112 4 l106 -3 3 -32z m-2565 18 c28 -11 47 -56 47 -110 0 -20 6 -45 14 -56 23
-34 27 -73 12 -110 -16 -38 -68 -75 -106 -75 -32 0 -85 32 -101 61 -17 32 -15
93 5 120 9 13 16 40 16 60 0 92 45 136 113 110z m1027 -11 c0 -13 -7 -20 -19
-20 -22 0 -35 15 -26 30 12 19 45 11 45 -10z m-565 -40 c0 -16 -6 -26 -19 -28
-25 -5 -39 12 -31 38 10 31 50 24 50 -10z m1455 16 c38 -14 80 -66 80 -100 0
-19 -3 -17 -25 11 -14 17 -41 37 -59 43 -44 14 -179 15 -205 1 -25 -14 -41
-14 -41 -1 0 10 50 38 90 51 38 11 121 9 160 -5z m482 -73 c8 -30 -2 -43 -33
-43 -26 0 -29 4 -29 30 0 26 3 30 29 30 19 0 30 -6 33 -17z m86 -15 c3 -26 1
-28 -32 -28 -31 0 -36 3 -36 23 0 31 9 39 40 35 19 -2 26 -10 28 -30z m82 2
c0 -26 -3 -30 -29 -30 -30 0 -45 19 -35 45 4 9 19 15 35 15 26 0 29 -4 29 -30z
m-1123 -53 c2 -3 13 -28 23 -56 l20 -51 -285 0 c-179 0 -285 4 -285 10 0 17
33 95 44 103 11 8 475 2 483 -6z m955 -14 c8 -30 -2 -43 -33 -43 -26 0 -29 4
-29 30 0 26 3 30 29 30 19 0 30 -6 33 -17z m83 -13 c0 -20 -6 -26 -28 -28 -29
-4 -44 16 -33 44 4 10 15 14 33 12 22 -2 28 -8 28 -28z m85 0 c0 -26 -3 -30
-29 -30 -30 0 -45 19 -35 45 4 9 19 15 35 15 26 0 29 -4 29 -30z m-995 -61 c0
-7 -8 -15 -17 -17 -18 -3 -25 18 -11 32 10 10 28 1 28 -15z m827 -6 c8 -30 -2
-43 -33 -43 -26 0 -29 4 -29 30 0 26 3 30 29 30 19 0 30 -6 33 -17z m83 -13
c0 -21 -5 -25 -30 -25 -25 0 -30 4 -33 28 -3 27 -1 28 30 25 28 -2 33 -7 33
-28z m85 0 c0 -26 -3 -30 -29 -30 -19 0 -30 6 -33 18 -8 29 2 42 33 42 26 0
29 -4 29 -30z m-930 -58 c-1 -45 -53 -61 -90 -27 -27 24 -25 32 12 67 l32 30
23 -27 c13 -14 23 -34 23 -43z m-105 48 c10 -16 -16 -43 -28 -31 -11 11 -2 41
12 41 5 0 13 -5 16 -10z"/>
<path d="M240 3800 c0 -38 2 -40 29 -40 58 0 75 51 24 71 -45 17 -53 12 -53
-31z"/>
<path d="M592 3763 c-7 -3 -19 -18 -28 -35 -15 -29 -15 -32 4 -50 16 -17 27
-19 61 -13 37 6 41 10 41 35 0 16 2 35 5 42 3 8 -1 14 -12 14 -10 0 -27 3 -38
6 -11 4 -26 4 -33 1z"/>
<path d="M420 3740 c-23 -23 -24 -33 -10 -61 11 -19 45 -25 67 -11 6 4 12 26
11 50 0 37 -3 42 -24 42 -13 0 -33 -9 -44 -20z"/>
<path d="M237 3713 c-4 -3 -7 -15 -7 -25 0 -14 8 -18 38 -18 21 0 47 6 57 14
18 13 18 14 -3 25 -23 12 -75 15 -85 4z"/>
<path d="M728 3698 c-9 -7 -18 -24 -20 -37 -3 -22 -8 -24 -66 -28 -35 -1 -72
2 -83 7 -14 8 -19 7 -19 -1 0 -7 -9 -9 -22 -5 -13 3 -40 3 -60 -1 -32 -5 -38
-10 -38 -30 0 -20 3 -22 19 -13 31 16 70 12 83 -9 12 -19 12 -19 36 0 29 22
76 25 113 5 22 -11 29 -11 44 0 29 22 91 18 116 -7 17 -17 20 -30 16 -65 -4
-38 -2 -44 14 -44 17 0 19 8 19 80 l0 80 -32 0 c-25 0 -40 9 -68 41 -30 35
-37 39 -52 27z"/>
<path d="M346 3655 c-10 -8 -38 -17 -62 -21 -25 -3 -46 -10 -49 -14 -3 -5 -22
-6 -43 -4 -79 10 -83 -36 -5 -59 36 -10 51 -11 58 -3 25 29 63 46 102 46 39 0
43 2 43 24 0 34 -20 48 -44 31z"/>
<path d="M597 3573 c-10 -3 -22 -16 -28 -30 -21 -55 46 -98 84 -55 22 25 21
48 -3 72 -21 21 -22 21 -53 13z"/>
<path d="M743 3570 c-18 -7 -23 -17 -23 -43 0 -38 15 -57 46 -57 51 0 73 66
32 94 -25 18 -25 18 -55 6z"/>
<path d="M295 3546 c-21 -31 -7 -63 32 -72 39 -10 58 7 58 52 0 38 -1 39 -37
42 -30 3 -40 -1 -53 -22z"/>
<path d="M3090 3384 c0 -112 3 -145 13 -142 8 3 13 39 15 124 3 124 -2 164
-18 164 -6 0 -10 -57 -10 -146z"/>
<path d="M3275 3466 c-3 -9 -7 -23 -10 -31 -2 -8 -16 -15 -30 -15 -18 0 -25
-5 -25 -19 0 -18 2 -18 45 2 34 16 45 26 45 43 0 28 -18 42 -25 20z"/>
<path d="M3283 3379 c-16 -16 -17 -119 -3 -119 16 0 21 23 18 79 -2 42 -5 50
-15 40z"/>
<path d="M3370 3316 c0 -65 21 -132 39 -122 7 5 -24 175 -35 185 -2 2 -4 -26
-4 -63z"/>
<path d="M3561 3276 c-7 -8 -11 -27 -9 -43 6 -50 78 -40 78 11 0 41 -45 62
-69 32z"/>
<path d="M3165 3240 c-9 -10 -37 -22 -61 -26 -40 -6 -44 -9 -44 -35 0 -30 17
-38 38 -17 6 6 31 11 56 12 49 1 92 -28 98 -68 3 -19 5 -18 20 10 10 17 31 37
48 44 38 16 38 40 2 61 -25 14 -30 14 -50 1 -18 -12 -28 -12 -47 -4 -14 7 -25
18 -25 27 0 21 -13 19 -35 -5z"/>
<path d="M3373 3131 c-44 -12 -63 -38 -63 -86 0 -36 6 -52 26 -72 22 -22 32
-25 67 -20 51 7 77 36 77 84 0 28 -11 64 -25 81 -7 9 -63 18 -82 13z"/>
<path d="M2880 3112 c-26 -21 -36 -87 -18 -122 19 -36 67 -46 112 -25 35 17
36 18 36 76 0 48 -4 60 -22 73 -30 21 -81 20 -108 -2z"/>
<path d="M3633 3122 c-32 -5 -63 -49 -63 -89 0 -92 137 -115 170 -28 10 25 -4
90 -21 100 -18 12 -64 21 -86 17z"/>
<path d="M1525 3371 c-3 -5 -1 -12 5 -16 5 -3 10 1 10 9 0 18 -6 21 -15 7z"/>
<path d="M1445 3335 c3 -16 19 -57 35 -89 17 -32 30 -65 30 -72 0 -38 35 -22
123 59 36 33 38 37 17 32 -14 -4 -44 -20 -68 -37 -24 -17 -45 -29 -46 -27 -2
2 -14 29 -28 59 -14 30 -35 66 -47 80 l-22 25 6 -30z"/>
<path d="M1328 3173 c6 -2 18 -2 25 0 6 3 1 5 -13 5 -14 0 -19 -2 -12 -5z"/>
<path d="M1718 3173 c7 -3 16 -2 19 1 4 3 -2 6 -13 5 -11 0 -14 -3 -6 -6z"/>
<path d="M1531 2984 c0 -11 3 -14 6 -6 3 7 2 16 -1 19 -3 4 -6 -2 -5 -13z"/>
<path d="M170 2905 l0 -335 319 0 c297 0 319 1 317 18 -1 15 12 17 134 17 124
0 135 -1 134 -18 -2 -15 5 -18 45 -15 l46 3 0 330 0 330 -497 3 -498 2 0 -335z
m320 240 c10 -12 9 -23 -2 -57 -24 -70 -25 -73 -3 -73 13 0 19 5 16 15 -10 43
-8 45 64 45 67 0 103 -17 50 -23 -14 -2 -25 -9 -25 -17 0 -18 30 -28 46 -14 8
6 21 8 30 5 15 -6 15 -8 -1 -26 -34 -38 -96 -18 -107 35 l-5 20 -8 -20 c-14
-34 -37 -55 -61 -55 -13 0 -25 4 -29 9 -3 6 -17 6 -35 -1 -23 -7 -34 -7 -46 3
-11 9 -18 9 -26 1 -34 -34 -68 10 -48 63 12 32 29 39 63 26 18 -7 27 -19 29
-38 2 -17 9 -28 18 -28 12 0 14 10 12 45 -6 81 32 129 68 85z m521 -54 c17
-18 29 -40 29 -56 0 -28 -40 -75 -65 -75 -8 0 -15 -5 -15 -11 0 -12 2 -11 82
15 32 11 61 17 64 13 13 -13 -9 -27 -77 -49 l-71 -23 7 -49 c6 -47 38 -101 80
-136 8 -7 15 -19 15 -26 0 -28 -31 -12 -69 35 l-39 50 -41 -50 c-23 -27 -46
-49 -52 -49 -20 0 -7 30 34 79 39 48 42 55 39 101 -3 37 -8 50 -20 50 -30 0
-124 35 -129 48 -10 24 5 24 76 -2 52 -19 71 -22 71 -12 0 7 -11 18 -24 26
-14 7 -30 25 -36 40 -36 87 72 150 141 81z m-667 -242 c11 -56 7 -146 -7 -158
-21 -17 -27 -3 -27 65 0 38 -4 64 -12 66 -7 3 -5 13 7 31 23 35 31 34 39 -4z
m271 19 c22 -10 26 -17 23 -40 -3 -16 -1 -31 4 -34 4 -3 8 -18 8 -34 0 -43
-29 -54 -148 -56 -123 -2 -134 7 -78 65 20 20 36 45 36 54 0 25 -36 21 -54 -5
-13 -18 -18 -20 -28 -9 -11 10 -8 17 15 37 71 61 135 -10 70 -78 -29 -31 -28
-31 37 -18 28 5 49 5 57 -2 17 -14 58 -6 58 12 0 8 -10 16 -22 18 -29 4 -29
10 -1 39 19 20 20 26 8 33 -9 6 -24 3 -42 -8 -15 -9 -30 -13 -33 -10 -9 9 6
37 23 41 30 8 41 7 67 -5z"/>
<path d="M450 3100 c0 -11 2 -20 4 -20 2 0 6 9 9 20 3 11 1 20 -4 20 -5 0 -9
-9 -9 -20z"/>
<path d="M323 3045 c-8 -22 6 -33 17 -15 13 20 12 30 0 30 -6 0 -13 -7 -17
-15z"/>
<path d="M902 3078 c-27 -27 -7 -80 34 -92 24 -7 74 27 74 50 0 40 -79 71
-108 42z m28 -23 c0 -8 -4 -15 -10 -15 -5 0 -10 7 -10 15 0 8 5 15 10 15 6 0
10 -7 10 -15z m52 0 c0 -5 -5 -11 -11 -13 -6 -2 -11 4 -11 13 0 9 5 15 11 13
6 -2 11 -8 11 -13z m5 -38 c-5 -15 -69 -16 -74 -2 -1 6 15 11 38 12 26 1 39
-3 36 -10z"/>
<path d="M3390 2393 c0 -44 14 -58 23 -23 7 27 37 26 37 -1 0 -11 5 -17 10
-14 6 3 10 22 10 41 0 19 -4 34 -10 34 -5 0 -10 -7 -10 -15 0 -21 -30 -19 -46
3 -12 15 -13 12 -14 -25z"/>
<path d="M3490 2411 c-14 -27 -3 -50 28 -58 34 -8 67 29 52 58 -14 26 -66 26
-80 0z m60 -7 c11 -12 10 -18 -3 -32 -16 -15 -18 -15 -34 0 -13 14 -14 20 -3
32 7 9 16 16 20 16 4 0 13 -7 20 -16z"/>
<path d="M3310 2400 c-15 -28 4 -60 35 -60 34 0 41 18 8 22 -35 4 -37 28 -3
45 l25 13 -27 0 c-17 0 -31 -7 -38 -20z"/>
<path d="M3602 2408 c-7 -7 -12 -22 -12 -35 0 -44 80 -42 89 2 6 34 -51 59
-77 33z m58 -29 c0 -26 -28 -36 -46 -17 -14 13 -14 17 1 31 19 20 45 12 45
-14z"/>
<path d="M3253 2403 c-20 -7 -15 -31 8 -43 20 -11 20 -12 2 -25 -10 -8 -13
-15 -7 -15 5 0 18 6 29 13 19 15 13 37 -11 37 -8 0 -14 5 -14 10 0 6 5 10 10
10 6 0 10 5 10 10 0 11 -7 12 -27 3z"/>
<path d="M3695 2370 c-9 -42 -9 -43 14 -52 12 -4 21 -3 21 2 0 6 -7 10 -15 10
-11 0 -12 5 -5 26 12 32 13 44 1 44 -5 0 -12 -13 -16 -30z"/>
<path d="M1396 2391 c-3 -4 -8 -35 -11 -67 -4 -33 -8 -70 -11 -84 -4 -24 -4
-25 11 -5 22 28 48 121 40 145 -7 21 -20 26 -29 11z"/>
<path d="M1081 2234 c-27 -34 -28 -84 -3 -84 26 0 48 29 56 73 6 32 5 37 -13
37 -11 0 -29 -12 -40 -26z"/>
<path d="M1406 2214 c-20 -36 -24 -50 -15 -60 16 -20 32 -17 57 9 27 29 28 58
3 81 -18 16 -20 15 -45 -30z"/>
<path d="M1617 2170 l-26 -40 40 0 c44 0 45 1 23 35 -9 13 -13 29 -9 35 3 5 4
10 2 10 -2 0 -15 -18 -30 -40z"/>
<path d="M1120 2145 c-10 -13 -9 -15 9 -15 11 0 21 4 21 9 0 18 -18 21 -30 6z"/>
<path d="M1355 2140 c-3 -5 -1 -10 4 -10 6 0 11 5 11 10 0 6 -2 10 -4 10 -3 0
-8 -4 -11 -10z"/>
<path d="M2161 2389 c-51 -10 -113 -49 -143 -92 -39 -54 -27 -202 21 -262 30
-39 84 -74 123 -81 27 -4 24 -1 -16 15 -96 39 -142 114 -134 215 8 102 77 167
183 174 94 6 164 -36 200 -120 45 -110 -17 -237 -132 -270 -23 -7 -31 -13 -21
-15 16 -4 78 24 108 49 44 36 63 81 71 162 6 74 5 84 -16 121 -47 81 -144 123
-244 104z"/>
<path d="M287 2242 c-10 -10 -17 -24 -17 -30 0 -7 -4 -12 -10 -12 -5 0 -10 5
-10 10 0 6 -8 10 -17 10 -14 0 -12 -4 7 -25 25 -27 21 -32 -11 -14 -16 8 -25
7 -40 -7 -26 -23 -24 -67 5 -101 21 -25 32 -29 75 -30 45 -1 54 3 76 29 14 16
25 42 25 57 0 28 -26 61 -48 61 -14 0 -14 -2 -3 38 11 37 -5 44 -32 14z"/>
<path d="M416 2153 c-10 -38 -22 -74 -28 -80 -8 -10 -4 -13 16 -13 23 0 26 3
20 25 -4 18 -1 27 11 31 22 9 37 -14 24 -38 -8 -16 -6 -18 21 -18 29 0 40 13
21 24 -5 3 -12 18 -15 33 -31 127 -44 133 -70 36z m33 -17 c-14 -15 -22 0 -13
26 7 22 7 22 14 3 4 -11 4 -24 -1 -29z"/>
<path d="M1410 2010 c-30 -30 -27 -94 5 -126 38 -38 50 -27 53 50 4 91 -17
117 -58 76z"/>
<path d="M1617 1928 c-32 -43 -47 -73 -47 -94 0 -26 69 -11 98 21 24 28 29 74
10 93 -19 19 -35 14 -61 -20z"/>
<path d="M1481 1796 c-9 -10 -8 -16 3 -25 10 -9 16 -8 25 3 9 10 8 16 -3 25
-10 9 -16 8 -25 -3z"/>
<path d="M3455 1820 c-4 -7 53 -10 165 -10 112 0 169 3 165 10 -4 6 -70 10
-165 10 -95 0 -161 -4 -165 -10z"/>
<path d="M3460 1750 c-10 -6 43 -10 160 -10 117 0 170 4 160 10 -8 5 -80 10
-160 10 -80 0 -152 -5 -160 -10z"/>
<path d="M3460 1680 c-10 -6 44 -10 160 -9 107 0 167 4 155 9 -28 12 -297 12
-315 0z"/>
<path d="M3465 1610 c-26 -11 -32 -11 155 -11 184 0 183 0 150 11 -34 11 -280
11 -305 0z"/>
<path d="M3370 1058 c-36 -39 -22 -98 27 -116 35 -12 67 0 88 31 45 69 -58
146 -115 85z m71 -18 c38 -21 12 -79 -31 -65 -22 7 -27 44 -8 63 15 15 15 15
39 2z"/>
<path d="M3465 450 c-12 -5 49 -9 155 -9 106 0 167 4 155 9 -26 11 -284 11
-310 0z"/>
<path d="M3465 380 c-12 -5 49 -9 155 -9 106 0 167 4 155 9 -26 11 -284 11
-310 0z"/>
<path d="M3478 313 c-16 -2 -28 -7 -28 -11 0 -6 320 -6 340 -1 3 1 -8 5 -25 9
-31 8 -240 10 -287 3z"/>
<path d="M3483 243 c-18 -2 -33 -8 -33 -14 0 -5 71 -9 170 -9 167 0 222 11
118 24 -55 6 -200 6 -255 -1z"/>
<path d="M2964 1681 c7 -11 46 -35 46 -28 0 3 -12 12 -26 22 -15 9 -23 12 -20
6z"/>
<path d="M2575 1795 c0 -29 3 -48 7 -42 10 16 10 85 1 90 -5 3 -8 -19 -8 -48z"/>
<path d="M2509 1813 c-13 -16 -12 -17 4 -4 9 7 17 15 17 17 0 8 -8 3 -21 -13z"/>
<path d="M2577 1673 c-3 -16 -2 -32 2 -36 4 -4 8 8 9 28 2 42 -4 46 -11 8z"/>
<path d="M2562 1600 c0 -14 2 -19 5 -12 2 6 2 18 0 25 -3 6 -5 1 -5 -13z"/>
<path d="M2633 1605 c0 -8 4 -12 9 -9 5 3 6 10 3 15 -9 13 -12 11 -12 -6z"/>
<path d="M2415 1542 c-11 -10 -22 -24 -23 -32 -9 -36 -2 -92 15 -120 24 -42
68 -39 99 7 17 26 20 40 14 77 -5 31 -3 43 4 39 6 -3 -2 6 -19 21 -35 30 -62
32 -90 8z"/>
<path d="M2535 1499 c-11 -17 -2 -18 19 -3 17 12 17 14 4 14 -9 0 -20 -5 -23
-11z"/>
<path d="M1157 1817 c-14 -10 -41 -126 -32 -136 2 -2 18 7 36 19 32 23 64 83
54 100 -13 21 -42 29 -58 17z"/>
<path d="M1073 1578 c-38 -40 -53 -76 -53 -129 0 -51 21 -91 64 -124 41 -31
106 -45 106 -23 0 9 -17 20 -39 26 -107 33 -133 128 -46 169 25 12 34 22 29
32 -3 9 -8 31 -11 49 -3 17 -9 32 -12 32 -4 0 -21 -15 -38 -32z"/>
<path d="M1124 1462 c-20 -13 -32 -47 -24 -68 9 -23 68 -70 77 -61 8 9 -21
130 -32 134 -5 1 -15 -1 -21 -5z"/>
<path d="M1184 1453 c3 -10 12 -47 20 -82 8 -34 17 -66 21 -69 3 -3 21 2 41
13 63 34 54 99 -18 136 -47 24 -71 25 -64 2z"/>
<path d="M2755 1679 c-4 -6 -5 -12 -2 -15 2 -3 7 2 10 11 7 17 1 20 -8 4z"/>
<path d="M2751 1603 c-10 -26 -10 -27 4 -9 8 11 15 23 15 28 0 15 -7 8 -19
-19z"/>
<path d="M2755 1570 c-3 -5 -1 -10 4 -10 6 0 11 5 11 10 0 6 -2 10 -4 10 -3 0
-8 -4 -11 -10z"/>
<path d="M2726 1555 c-9 -26 -7 -32 5 -12 6 10 9 21 6 23 -2 3 -7 -2 -11 -11z"/>
<path d="M3144 1572 c4 -7 0 -19 -9 -28 -10 -11 -15 -29 -13 -53 3 -34 5 -36
41 -39 22 -2 37 1 37 8 0 6 4 8 10 5 6 -4 7 1 3 11 -5 13 -3 15 8 9 11 -6 12
-5 2 6 -16 16 -17 33 -1 23 7 -4 8 -3 4 5 -4 6 -11 9 -15 7 -4 -3 -23 9 -41
27 -19 18 -30 26 -26 19z"/>
<path d="M613 1474 l-53 -46 0 -130 0 -130 48 28 c26 15 54 32 62 37 11 6 32
-1 75 -27 l60 -36 3 130 3 130 -37 33 c-21 17 -43 38 -50 45 -10 10 -13 8 -16
-10 -3 -15 5 -30 20 -44 16 -13 27 -37 32 -65 4 -24 11 -58 15 -75 7 -30 5
-32 -26 -39 -19 -4 -40 -12 -47 -18 -9 -7 -20 -7 -35 0 -12 6 -35 16 -50 22
-22 8 -27 16 -22 29 3 9 9 31 11 47 11 66 16 78 40 100 15 14 24 32 22 45 -3
18 -8 16 -55 -26z"/>
<path d="M1600 1082 c-15 -12 -22 -31 -25 -65 -1 -27 -5 -51 -9 -54 -3 -3 4
-17 15 -32 19 -23 28 -26 85 -26 55 0 64 2 64 18 0 24 -42 38 -93 32 l-42 -5
38 11 c36 11 37 12 37 59 0 31 -6 54 -16 64 -20 20 -27 20 -54 -2z"/>
<path d="M1743 1090 c-52 -21 -31 -110 26 -110 15 0 35 8 44 18 44 48 -8 116
-70 92z"/>
<path d="M1912 1090 c-12 -5 -27 -21 -33 -34 -17 -36 10 -76 51 -76 56 0 80
60 40 100 -22 22 -25 23 -58 10z"/>
<path d="M1440 1071 c-27 -51 1 -94 59 -89 36 3 36 3 39 56 l3 52 -45 0 c-35
0 -48 -5 -56 -19z"/>
<path d="M1815 972 c-16 -10 -31 -18 -33 -18 -4 -2 62 -114 68 -114 6 0 70
105 70 114 0 3 -8 6 -19 6 -10 0 -24 7 -31 15 -15 18 -17 18 -55 -3z"/>
<path d="M1434 947 c-3 -8 -4 -47 -2 -88 l3 -74 46 -3 c53 -3 99 25 97 61 0
12 0 27 2 32 7 27 -3 47 -32 65 -38 23 -106 27 -114 7z"/>
<path d="M1613 883 c-21 -8 -15 -51 7 -58 38 -12 110 19 110 47 0 15 -8 18
-52 17 -29 0 -59 -3 -65 -6z"/>
<path d="M120 374 c-21 -54 -15 -64 40 -64 55 0 58 5 39 59 -9 25 -16 31 -40
31 -22 0 -32 -6 -39 -26z"/>
<path d="M117 259 c-45 -26 -39 -106 9 -128 36 -16 49 -14 80 12 70 60 -9 163
-89 116z m63 -44 c17 -20 5 -45 -20 -45 -11 0 -23 7 -26 15 -6 15 11 45 26 45
4 0 13 -7 20 -15z"/>
<path d="M1168 243 c6 -2 18 -2 25 0 6 3 1 5 -13 5 -14 0 -19 -2 -12 -5z"/>
<path d="M1228 243 c7 -3 16 -2 19 1 4 3 -2 6 -13 5 -11 0 -14 -3 -6 -6z"/>
<path d="M1288 243 c6 -2 18 -2 25 0 6 3 1 5 -13 5 -14 0 -19 -2 -12 -5z"/>
<path d="M1358 243 c7 -3 16 -2 19 1 4 3 -2 6 -13 5 -11 0 -14 -3 -6 -6z"/>
<path d="M1408 243 c6 -2 18 -2 25 0 6 3 1 5 -13 5 -14 0 -19 -2 -12 -5z"/>
<path d="M1598 243 c7 -3 16 -2 19 1 4 3 -2 6 -13 5 -11 0 -14 -3 -6 -6z"/>
<path d="M1158 223 c6 -2 18 -2 25 0 6 3 1 5 -13 5 -14 0 -19 -2 -12 -5z"/>
<path d="M1223 223 c9 -2 23 -2 30 0 6 3 -1 5 -18 5 -16 0 -22 -2 -12 -5z"/>
<path d="M1283 223 c9 -2 23 -2 30 0 6 3 -1 5 -18 5 -16 0 -22 -2 -12 -5z"/>
<path d="M1348 223 c6 -2 18 -2 25 0 6 3 1 5 -13 5 -14 0 -19 -2 -12 -5z"/>
<path d="M1413 223 c9 -2 23 -2 30 0 6 3 -1 5 -18 5 -16 0 -22 -2 -12 -5z"/>
<path d="M1473 223 c9 -2 23 -2 30 0 6 3 -1 5 -18 5 -16 0 -22 -2 -12 -5z"/>
<path d="M1538 223 c6 -2 18 -2 25 0 6 3 1 5 -13 5 -14 0 -19 -2 -12 -5z"/>
<path d="M1603 223 c9 -2 23 -2 30 0 6 3 -1 5 -18 5 -16 0 -22 -2 -12 -5z"/>
<path d="M1140 200 c0 -5 12 -10 26 -10 14 0 23 4 19 10 -3 6 -15 10 -26 10
-10 0 -19 -4 -19 -10z"/>
<path d="M1200 200 c0 -5 11 -10 25 -10 14 0 25 5 25 10 0 6 -11 10 -25 10
-14 0 -25 -4 -25 -10z"/>
<path d="M1270 198 c0 -4 12 -8 27 -8 14 0 23 3 19 7 -10 10 -46 11 -46 1z"/>
<path d="M1334 198 c-3 -4 6 -8 20 -8 14 0 26 4 26 9 0 11 -39 10 -46 -1z"/>
<path d="M1405 200 c-4 -6 5 -10 19 -10 14 0 26 5 26 10 0 6 -9 10 -19 10 -11
0 -23 -4 -26 -10z"/>
<path d="M1470 200 c0 -5 12 -10 26 -10 14 0 23 4 19 10 -3 6 -15 10 -26 10
-10 0 -19 -4 -19 -10z"/>
<path d="M1530 200 c0 -5 11 -10 25 -10 14 0 25 5 25 10 0 6 -11 10 -25 10
-14 0 -25 -4 -25 -10z"/>
<path d="M1600 200 c0 -5 12 -10 26 -10 14 0 23 4 19 10 -3 6 -15 10 -26 10
-10 0 -19 -4 -19 -10z"/>
<path d="M1135 169 c-16 -6 -14 -8 13 -8 33 -1 41 4 20 12 -7 2 -22 1 -33 -4z"/>
<path d="M1199 169 c-10 -6 -3 -9 20 -9 19 0 31 3 27 7 -10 11 -32 12 -47 2z"/>
<path d="M1268 168 c-9 -5 -4 -8 15 -8 15 0 27 4 27 8 0 11 -25 11 -42 0z"/>
<path d="M1334 168 c-3 -4 6 -8 20 -8 14 0 26 4 26 8 0 10 -40 10 -46 0z"/>
<path d="M1400 170 c0 -6 12 -10 27 -10 29 0 24 12 -7 17 -11 2 -20 -2 -20 -7z"/>
<path d="M1474 169 c-3 -5 6 -9 20 -9 31 0 34 6 6 13 -11 3 -23 1 -26 -4z"/>
<path d="M1540 170 c0 -5 12 -10 28 -9 24 0 25 1 7 9 -27 12 -35 12 -35 0z"/>
<path d="M1610 170 c0 -6 12 -10 27 -10 29 0 24 12 -7 17 -11 2 -20 -2 -20 -7z"/>
</g>
</svg>
