<?xml version="1.0" encoding="utf-8"?>
<!-- Generator: Adobe Illustrator 20.1.0, SVG Export Plug-In . SVG Version: 6.00 Build 0)  -->
<svg version="1.1" id="Layer_1" xmlns="http://www.w3.org/2000/svg" xmlns:xlink="http://www.w3.org/1999/xlink" x="0px" y="0px"
	 viewBox="0 0 286.3 286.3" style="enable-background:new 0 0 286.3 286.3;" xml:space="preserve">
<style type="text/css">
	.st0{fill:#52B3AE;}
	.st1{fill:#9BBD2F;}
	.st2{fill:#FFFFFF;}
	.st3{fill:#63B8B0;}
	.st4{fill:#F3F0E9;}
	.st5{fill:#FD7161;}
	.st6{fill:#F2B02B;}
	.st7{fill:#C3E2DC;}
	.st8{fill:#231F20;}
	.st9{fill:#A7A9AC;}
	.st10{fill:#FBD9A5;}
	.st11{fill:#2E7275;}
	.st12{opacity:0.2;fill:#F4CBD0;}
	.st13{fill:#6D6E71;}
	.st14{fill-rule:evenodd;clip-rule:evenodd;fill:#FBD9A5;}
	.st15{fill:#E6E7E8;}
	.st16{opacity:0.12;fill:#A7A9AC;}
	.st17{fill:#754C29;}
	.st18{opacity:0.5;fill:url(#SVGID_1_);}
</style>
<path class="st0" d="M198.3,86.3c-8.1-20.7-29.4-25.2-41-25.2c-11.6,0-32.9,4.5-41,25.2c-7.3,18.7-1.7,29,8.3,42.6
	c12.1,16.4,14.3,35.9,15,36.9c0.7,1,35.1,0.5,35.4,0c0.2-0.5,2.9-20.5,15-36.9C200,115.3,205.6,105,198.3,86.3z"/>
<g>
	<ellipse class="st1" cx="195" cy="193.9" rx="8.7" ry="8.7"/>
	<g>
		<path class="st2" d="M201.4,196.3c0,0,0.1,0,0.1,0c0,0,0.1-0.1,0-0.1c0-0.1,0-0.3,0-0.4c0-0.1-0.1-0.2-0.2-0.1l-0.2,0
			c0-0.1-0.1-0.2-0.1-0.3l0.2-0.1c0,0,0.1,0,0.1-0.1c0,0,0-0.1,0-0.1c0-0.1-0.1-0.3-0.2-0.4c0-0.1-0.2-0.1-0.2-0.1l-0.2,0.1
			c-0.1-0.1-0.1-0.2-0.2-0.3l0.2-0.2c0,0,0.1-0.1,0.1-0.1c0,0,0-0.1,0-0.1c-0.1-0.1-0.2-0.2-0.3-0.3c-0.1-0.1-0.2-0.1-0.2,0
			l-0.2,0.2c-0.1-0.1-0.2-0.1-0.3-0.2l0.1-0.2c0,0,0-0.1,0-0.1c0,0,0-0.1-0.1-0.1c-0.1-0.1-0.3-0.1-0.4-0.2c-0.1,0-0.2,0-0.2,0.1
			l-0.1,0.2c-0.1,0-0.2-0.1-0.3-0.1l0.1-0.2c0,0,0-0.1,0-0.1c0,0-0.1-0.1-0.1-0.1c-0.1,0-0.3-0.1-0.4-0.1c-0.1,0-0.2,0.1-0.2,0.2
			l0,0.2h0c-0.1,0-0.2,0-0.3,0l0-0.2c0-0.1-0.1-0.2-0.2-0.2c0,0,0,0,0,0c-0.2,0-0.3,0-0.4,0.1c0,0-0.1,0-0.1,0.1c0,0,0,0.1,0,0.1
			l0.1,0.2c-0.1,0-0.2,0.1-0.3,0.1l-0.1-0.2c0-0.1-0.1-0.1-0.2-0.1c-0.1,0.1-0.3,0.1-0.4,0.2c0,0-0.1,0.1-0.1,0.1c0,0,0,0.1,0,0.1
			l0.1,0.2c-0.1,0.1-0.2,0.1-0.3,0.2l-0.2-0.2c-0.1-0.1-0.2-0.1-0.2,0c-0.1,0.1-0.2,0.2-0.3,0.3c0,0,0,0.1,0,0.1c0,0,0,0.1,0.1,0.1
			l0.2,0.1c-0.1,0.1-0.1,0.2-0.2,0.3l-0.2-0.1c-0.1,0-0.2,0-0.2,0.1c-0.1,0.1-0.1,0.3-0.2,0.4c0,0,0,0.1,0,0.1c0,0,0.1,0.1,0.1,0.1
			l0.2,0.1c0,0.1-0.1,0.2-0.1,0.3l-0.2,0c-0.1,0-0.2,0.1-0.2,0.2c0,0.2,0,0.3,0,0.4c0,0.1,0.1,0.2,0.2,0.2l0,0l0.2,0
			c0,0.1,0,0.2,0,0.3l-0.2,0c0,0-0.1,0-0.1,0.1c0,0,0,0.1,0,0.1c0,0.1,0.1,0.3,0.1,0.4c0,0.1,0.1,0.1,0.2,0.1l0.2-0.1
			c0,0.1,0.1,0.2,0.1,0.3l-0.2,0.1c0,0-0.1,0.1-0.1,0.1c0,0,0,0.1,0,0.1c0.1,0.1,0.2,0.3,0.2,0.4c0.1,0.1,0.2,0.1,0.2,0l0.2-0.2
			c0.1,0.1,0.1,0.2,0.2,0.2l-0.2,0.2c0,0,0,0.1,0,0.1c0,0,0,0.1,0.1,0.1c0.1,0.1,0.2,0.2,0.3,0.3c0.1,0.1,0.2,0,0.2,0l0.1-0.2
			c0.1,0.1,0.2,0.1,0.3,0.2l-0.1,0.2c0,0,0,0.1,0,0.1c0,0,0.1,0.1,0.1,0.1c0.1,0.1,0.3,0.1,0.4,0.1c0.1,0,0.2,0,0.2-0.1l0.1-0.2
			c0.1,0,0.2,0,0.3,0l0,0.2c0,0,0,0.1,0,0.1c0,0,0.1,0.1,0.1,0.1c0.1,0,0.1,0,0.2,0c0.1,0,0.2,0,0.3,0c0.1,0,0.1,0,0.1-0.1
			c0,0,0-0.1,0-0.1l0-0.2c0.1,0,0.2,0,0.3-0.1l0.1,0.2c0,0.1,0.1,0.1,0.2,0.1c0.1,0,0.3-0.1,0.4-0.1c0,0,0.1-0.1,0.1-0.1
			c0,0,0-0.1,0-0.1l-0.1-0.2c0.1-0.1,0.2-0.1,0.3-0.2l0.1,0.2c0,0.1,0.2,0.1,0.2,0c0.1-0.1,0.2-0.2,0.3-0.3c0,0,0.1-0.1,0.1-0.1
			c0,0,0-0.1,0-0.1l-0.2-0.2c0.1-0.1,0.2-0.2,0.2-0.3l0.2,0.1c0.1,0.1,0.2,0,0.2,0c0.1-0.1,0.2-0.2,0.2-0.4c0,0,0-0.1,0-0.1
			c0,0,0-0.1-0.1-0.1l-0.2-0.1c0-0.1,0.1-0.2,0.1-0.3l0.2,0.1c0.1,0,0.2,0,0.2-0.1c0-0.1,0.1-0.3,0.1-0.4c0,0,0-0.1,0-0.1
			c0,0-0.1-0.1-0.1-0.1l-0.2,0c0-0.1,0-0.2,0-0.3H201.4z M200.8,196.2c0,1.6-1.3,2.9-2.9,2.9c-1.6,0-2.9-1.3-2.9-2.9
			c0-1.6,1.3-2.9,2.9-2.9C199.6,193.4,200.8,194.7,200.8,196.2z"/>
		<path class="st2" d="M198.7,193.3c0.1,0,0.1,0,0.1-0.1c0,0,0.1-0.1,0.1-0.2c0-0.2,0-0.4-0.1-0.6c0-0.1-0.1-0.2-0.3-0.2l-0.4,0.1
			c0-0.2-0.1-0.3-0.1-0.5l0.4-0.1c0.1,0,0.1-0.1,0.1-0.1c0-0.1,0-0.1,0-0.2c-0.1-0.2-0.2-0.4-0.3-0.6c0-0.1-0.1-0.1-0.2-0.1
			c0,0-0.1,0-0.1,0l-0.3,0.2c-0.1-0.1-0.2-0.3-0.3-0.4l0.3-0.2c0,0,0.1-0.1,0.1-0.1c0-0.1,0-0.1-0.1-0.2c-0.1-0.2-0.3-0.3-0.4-0.5
			c-0.1-0.1-0.2-0.1-0.3,0l-0.3,0.3c-0.1-0.1-0.3-0.2-0.4-0.3l0.2-0.3c0,0,0-0.1,0-0.2c0-0.1-0.1-0.1-0.1-0.2
			c-0.2-0.1-0.4-0.2-0.6-0.3c-0.1-0.1-0.3,0-0.3,0.1l-0.1,0.4c-0.2-0.1-0.3-0.1-0.5-0.2l0.1-0.4c0-0.1,0-0.1,0-0.2
			c0-0.1-0.1-0.1-0.2-0.1c-0.2,0-0.4-0.1-0.6-0.1c-0.1,0-0.2,0.1-0.3,0.2l0,0.4l0,0c-0.2,0-0.3,0-0.5,0l0-0.4c0-0.1-0.1-0.2-0.3-0.2
			c-0.2,0-0.4,0.1-0.6,0.1c-0.1,0-0.1,0.1-0.2,0.1c0,0.1,0,0.1,0,0.2l0.1,0.4c-0.2,0.1-0.3,0.1-0.5,0.2l-0.2-0.3
			c-0.1-0.1-0.2-0.2-0.3-0.1c-0.2,0.1-0.4,0.2-0.6,0.3c-0.1,0-0.1,0.1-0.1,0.2c0,0.1,0,0.1,0,0.2l0.2,0.3c-0.1,0.1-0.3,0.2-0.4,0.3
			l-0.3-0.3c-0.1-0.1-0.2-0.1-0.3,0c-0.1,0.1-0.3,0.3-0.4,0.5c0,0-0.1,0.1,0,0.2c0,0.1,0,0.1,0.1,0.1l0.3,0.2
			c-0.1,0.1-0.2,0.3-0.3,0.4l-0.3-0.2c-0.1-0.1-0.3,0-0.3,0.1c-0.1,0.2-0.2,0.4-0.2,0.6c0,0.1,0,0.1,0,0.2c0,0.1,0.1,0.1,0.1,0.1
			l0.4,0.1c0,0.2-0.1,0.3-0.1,0.5l-0.4-0.1c-0.1,0-0.2,0.1-0.3,0.2c0,0.2,0,0.4,0,0.6c0,0.1,0.1,0.2,0.2,0.2l0,0l0.4,0
			c0,0.2,0,0.3,0,0.5l-0.4,0.1c-0.1,0-0.1,0-0.1,0.1c0,0-0.1,0.1,0,0.2c0,0.2,0.1,0.4,0.2,0.6c0,0.1,0.2,0.2,0.3,0.2l0.3-0.1
			c0.1,0.2,0.1,0.3,0.2,0.5l-0.3,0.2c-0.1,0-0.1,0.1-0.1,0.1c0,0.1,0,0.1,0,0.2c0.1,0.2,0.2,0.4,0.4,0.5c0.1,0.1,0.2,0.1,0.3,0
			l0.3-0.2c0.1,0.1,0.2,0.3,0.4,0.4l-0.2,0.3c0,0-0.1,0.1-0.1,0.2c0,0.1,0,0.1,0.1,0.2c0.2,0.1,0.3,0.3,0.5,0.4
			c0.1,0.1,0.3,0,0.3-0.1l0.2-0.3c0.2,0.1,0.3,0.2,0.5,0.2l-0.1,0.3c0,0,0,0.1,0,0.2c0,0.1,0.1,0.1,0.1,0.1c0.2,0.1,0.4,0.1,0.6,0.2
			c0.1,0,0.3,0,0.3-0.2l0.1-0.4c0.2,0,0.3,0.1,0.5,0.1l0,0.4c0,0.1,0,0.1,0.1,0.2c0,0,0.1,0.1,0.2,0.1c0.1,0,0.2,0,0.2,0
			c0.1,0,0.3,0,0.4,0c0.1,0,0.1,0,0.2-0.1c0,0,0.1-0.1,0-0.2l0-0.4c0.2,0,0.4-0.1,0.5-0.1l0.1,0.4c0,0.1,0.2,0.2,0.3,0.2
			c0.2-0.1,0.4-0.1,0.6-0.2c0.1,0,0.1-0.1,0.1-0.1c0-0.1,0-0.1,0-0.2l-0.2-0.3c0.2-0.1,0.3-0.2,0.5-0.3l0.2,0.3
			c0.1,0.1,0.2,0.1,0.3,0c0.2-0.1,0.3-0.2,0.5-0.4c0,0,0.1-0.1,0.1-0.2c0-0.1,0-0.1-0.1-0.2l-0.3-0.3c0.1-0.1,0.2-0.3,0.3-0.4
			l0.3,0.2c0.1,0.1,0.2,0,0.3-0.1c0.1-0.2,0.2-0.4,0.3-0.5c0-0.1,0-0.1,0-0.2c0-0.1-0.1-0.1-0.1-0.1l-0.3-0.2
			c0.1-0.2,0.1-0.3,0.2-0.5l0.4,0.1c0.1,0,0.2,0,0.3-0.2c0.1-0.2,0.1-0.4,0.1-0.6c0-0.1,0-0.1,0-0.2c0,0-0.1-0.1-0.1-0.1l-0.4,0
			c0-0.2,0-0.3,0-0.5H198.7z M197.9,193.2c0,2.3-1.9,4.2-4.2,4.2c-2.3,0-4.2-1.9-4.2-4.2c0-2.3,1.9-4.2,4.2-4.2
			C196,189.1,197.9,190.9,197.9,193.2z"/>
	</g>
</g>
<g>
	<circle class="st3" cx="67.7" cy="126.1" r="7.1"/>
	<path class="st2" d="M72.1,126c0.1,0,0.1,0,0.1-0.1c0,0,0.1-0.1,0.1-0.2c0-0.2,0-0.4-0.1-0.5c0-0.1-0.1-0.2-0.2-0.2l-0.3,0.1
		c0-0.1-0.1-0.3-0.1-0.4l0.3-0.1c0.1,0,0.1-0.1,0.1-0.1c0-0.1,0-0.1,0-0.2c-0.1-0.2-0.1-0.3-0.2-0.5c-0.1-0.1-0.2-0.1-0.3-0.1
		l-0.3,0.2c-0.1-0.1-0.1-0.2-0.2-0.3l0.2-0.2c0,0,0.1-0.1,0.1-0.1c0-0.1,0-0.1,0-0.2c-0.1-0.1-0.2-0.3-0.4-0.4
		c-0.1-0.1-0.2-0.1-0.3,0l-0.2,0.2c-0.1-0.1-0.2-0.2-0.3-0.2l0.2-0.3c0,0,0-0.1,0-0.2c0-0.1,0-0.1-0.1-0.1c-0.2-0.1-0.3-0.2-0.5-0.2
		c-0.1-0.1-0.2,0-0.3,0.1l-0.1,0.3c-0.1-0.1-0.3-0.1-0.4-0.1l0.1-0.3c0,0,0-0.1,0-0.1c0-0.1-0.1-0.1-0.1-0.1c-0.2,0-0.4-0.1-0.5-0.1
		c-0.1,0-0.2,0.1-0.2,0.2l0,0.3h0c-0.1,0-0.3,0-0.4,0l0-0.3c0-0.1-0.1-0.2-0.2-0.2c0,0,0,0,0,0c-0.2,0-0.4,0.1-0.5,0.1
		c-0.1,0-0.1,0-0.1,0.1c0,0,0,0.1,0,0.2l0.1,0.3c-0.1,0-0.3,0.1-0.4,0.1l-0.1-0.3c0-0.1-0.2-0.1-0.3-0.1c-0.2,0.1-0.3,0.2-0.5,0.3
		c-0.1,0-0.1,0.1-0.1,0.1c0,0.1,0,0.1,0,0.1l0.2,0.2c-0.1,0.1-0.2,0.2-0.3,0.3l-0.2-0.2c-0.1-0.1-0.2-0.1-0.3,0
		c-0.1,0.1-0.2,0.2-0.4,0.4c0,0-0.1,0.1,0,0.2c0,0.1,0,0.1,0.1,0.1l0.2,0.2c-0.1,0.1-0.2,0.2-0.2,0.3l-0.3-0.1c-0.1,0-0.2,0-0.3,0.1
		c-0.1,0.2-0.1,0.3-0.2,0.5c0,0.1,0,0.1,0,0.2c0,0,0.1,0.1,0.1,0.1l0.3,0.1c0,0.1-0.1,0.3-0.1,0.4l-0.3,0c-0.1,0-0.2,0.1-0.2,0.2
		c0,0.2,0,0.4,0,0.5c0,0.1,0.1,0.2,0.2,0.2l0,0l0.3,0c0,0.1,0,0.3,0,0.4l-0.3,0c-0.1,0-0.1,0-0.1,0.1c0,0,0,0.1,0,0.2
		c0,0.2,0.1,0.3,0.1,0.5c0,0.1,0.2,0.2,0.3,0.1l0.3-0.1c0.1,0.1,0.1,0.3,0.2,0.4l-0.3,0.1c0,0-0.1,0.1-0.1,0.1c0,0.1,0,0.1,0,0.2
		c0.1,0.2,0.2,0.3,0.3,0.4c0.1,0.1,0.2,0.1,0.3,0l0.2-0.2c0.1,0.1,0.2,0.2,0.3,0.3L65,129c0,0-0.1,0.1,0,0.1c0,0.1,0,0.1,0.1,0.2
		c0.1,0.1,0.3,0.2,0.4,0.3c0.1,0.1,0.2,0,0.3-0.1l0.1-0.2c0.1,0.1,0.2,0.1,0.4,0.2l-0.1,0.3c0,0,0,0.1,0,0.2c0,0.1,0.1,0.1,0.1,0.1
		c0.2,0.1,0.3,0.1,0.5,0.2c0.1,0,0.2,0,0.3-0.1l0.1-0.3c0.1,0,0.3,0,0.4,0.1l0,0.3c0,0.1,0,0.1,0.1,0.1c0,0,0.1,0.1,0.2,0.1
		c0.1,0,0.1,0,0.2,0c0.1,0,0.2,0,0.3,0c0.1,0,0.1,0,0.2-0.1c0,0,0-0.1,0-0.1l0-0.3c0.1,0,0.3,0,0.4-0.1l0.1,0.3
		c0,0.1,0.1,0.2,0.3,0.1c0.2-0.1,0.3-0.1,0.5-0.2c0.1,0,0.1-0.1,0.1-0.1c0,0,0-0.1,0-0.2l-0.1-0.3c0.1-0.1,0.2-0.1,0.4-0.2l0.2,0.2
		c0.1,0.1,0.2,0.1,0.3,0c0.1-0.1,0.3-0.2,0.4-0.3c0,0,0.1-0.1,0.1-0.2c0-0.1,0-0.1-0.1-0.1l-0.2-0.2c0.1-0.1,0.2-0.2,0.3-0.3
		l0.2,0.2c0.1,0.1,0.2,0,0.3-0.1c0.1-0.1,0.2-0.3,0.3-0.5c0-0.1,0-0.1,0-0.2c0-0.1-0.1-0.1-0.1-0.1l-0.3-0.1
		c0.1-0.1,0.1-0.3,0.2-0.4l0.3,0.1c0.1,0,0.2,0,0.3-0.1c0.1-0.2,0.1-0.3,0.1-0.5c0-0.1,0-0.1,0-0.2c0,0-0.1-0.1-0.1-0.1l-0.3,0
		c0-0.1,0-0.3,0-0.4H72.1z M71.4,126c0,1.9-1.6,3.5-3.5,3.5c-1.9,0-3.5-1.6-3.5-3.5s1.6-3.5,3.5-3.5C69.8,122.4,71.4,124,71.4,126z"
		/>
</g>
<g>
	<g>
		<path class="st3" d="M38.2,46.5c14.9-15.9,34.9-25,56.2-25.7l0,0.3c-44.1,1.4-79,38.5-79.5,84.6l-0.3,0
			C14.9,83.4,23.3,62.4,38.2,46.5z"/>
		<path class="st3" d="M15,105.7l-0.5,0l0-0.1c0.2-22.3,8.6-43.3,23.5-59.2c14.9-15.9,34.9-25,56.3-25.7l0.1,0l0,0.5l-0.1,0
			C50.4,22.6,15.5,59.7,15,105.7L15,105.7z M14.8,105.6l0.1,0c0.5-46,35.4-83.1,79.5-84.6l0-0.1c-21.3,0.7-41.2,9.8-56.1,25.7
			C23.4,62.4,15,83.4,14.8,105.6z"/>
	</g>
	<g>
		<polygon class="st3" points="16.3,105.2 14.8,107.8 13.4,105.2 		"/>
		<path class="st3" d="M14.8,107.9l-1.6-2.8l3.2,0L14.8,107.9z M13.5,105.3l1.3,2.3l1.4-2.3L13.5,105.3z"/>
	</g>
	<g>
		<polygon class="st3" points="96,20.9 94.3,22.8 94.1,19.2 		"/>
		<path class="st3" d="M94.2,23L94,19l2.1,1.9L94.2,23z M94.2,19.4l0.1,3.2l1.5-1.6L94.2,19.4z"/>
	</g>
</g>
<g>
	<g>
		<path class="st3" d="M62.7,66.2c7.9-8.4,18.5-13.3,29.9-13.6l0,0.2c-23.4,0.7-41.9,20.5-42.2,44.9h-0.2
			C50.3,85.8,54.7,74.6,62.7,66.2z"/>
		<path class="st3" d="M50.5,97.8l-0.5,0l0-0.2c0.1-11.9,4.6-23.1,12.5-31.5c8-8.5,18.6-13.3,30-13.7l0.2,0l0,0.5l-0.2,0
			c-23.3,0.7-41.8,20.4-42,44.7L50.5,97.8z"/>
	</g>
	<g>
		<polygon class="st3" points="51.1,97.4 50.3,98.7 49.5,97.4 		"/>
		<path class="st3" d="M50.3,99.1l-1-1.9l2.1,0L50.3,99.1z M49.8,97.6l0.5,0.9l0.5-0.8L49.8,97.6z"/>
	</g>
	<g>
		<polygon class="st3" points="93.4,52.6 92.5,53.6 92.4,51.7 		"/>
		<path class="st3" d="M92.3,54l-0.1-2.7l1.4,1.3L92.3,54z M92.6,52.1l0,1.1l0.5-0.6L92.6,52.1z"/>
	</g>
</g>
<g>
	<g>
		<path class="st3" d="M77.9,81.5c3.3-3.5,7.7-5.5,12.4-5.7l0,0.1c-9.7,0.3-17.4,8.5-17.5,18.6h-0.1C72.8,89.7,74.7,85,77.9,81.5z"
			/>
		<path class="st3" d="M73,94.7l-0.4,0l0-0.2c0.1-4.9,1.9-9.6,5.2-13.2c3.3-3.5,7.8-5.6,12.5-5.7l0.2,0l0,0.4l-0.2,0
			c-9.6,0.3-17.2,8.4-17.4,18.5L73,94.7z"/>
	</g>
	<g>
		<polygon class="st3" points="73.1,94.5 72.8,95 72.5,94.5 		"/>
		<polygon class="st3" points="72.8,95.4 72.2,94.3 73.4,94.3 		"/>
	</g>
	<g>
		<polygon class="st3" points="90.7,75.9 90.3,76.3 90.3,75.5 		"/>
		<polygon class="st3" points="90.1,76.7 90.1,75.1 90.9,75.9 		"/>
	</g>
</g>
<g>
	<ellipse class="st1" cx="40.2" cy="120.7" rx="11.3" ry="11.2"/>
	<g>
		<path class="st4" d="M44.3,112.9c-1.5-0.9-3.2-1.1-4.8-0.6c-1.6,0.4-3,1.5-3.9,2.9c-1.6,2.7-0.9,6.2,1.5,8.1l-2.6,4.5
			c-0.3,0.4-0.1,1,0.4,1.3c0.2,0.1,0.5,0.2,0.7,0.1c0.2-0.1,0.5-0.2,0.6-0.4l2.6-4.5c1.3,0.5,2.6,0.6,3.9,0.2c1.6-0.4,3-1.5,3.9-2.9
			C48.4,118.6,47.3,114.7,44.3,112.9z M45,120.6c-0.6,1-1.6,1.8-2.7,2.1c-1.1,0.3-2.3,0.1-3.3-0.5c-2.1-1.2-2.8-3.9-1.6-6
			c0.6-1,1.5-1.7,2.7-2c1.1-0.3,2.3-0.1,3.4,0.4C45.5,115.8,46.2,118.5,45,120.6z"/>
		<path class="st4" d="M40,115c-1.1,0.3-2,1-2.4,1.8c-0.1,0.1,0,0.3,0.1,0.3c0.1,0,0.1,0,0.2,0c0.1,0,0.1-0.1,0.2-0.1
			c0.4-0.7,1.1-1.3,2.1-1.6c1-0.3,2.1-0.2,3,0.2c0.1,0.1,0.3,0,0.3-0.1c0.1-0.1,0-0.3-0.1-0.3C42.3,114.7,41.1,114.6,40,115z"/>
	</g>
</g>
<g>
	<path class="st3" d="M258.5,85.1c-1-0.6-2.2-0.7-3.3-0.4c-1.1,0.3-2.1,1-2.7,2c-1.1,1.9-0.6,4.2,1,5.6l-1.8,3.1
		c-0.2,0.3-0.1,0.7,0.2,0.9c0.2,0.1,0.3,0.1,0.5,0.1c0.2,0,0.3-0.1,0.4-0.3l1.8-3.1c0.9,0.3,1.8,0.4,2.7,0.2c1.1-0.3,2.1-1,2.6-2
		C261.3,88.9,260.6,86.3,258.5,85.1z M259,90.3c-0.4,0.7-1.1,1.2-1.8,1.4c-0.8,0.2-1.6,0.1-2.3-0.3c-1.4-0.8-1.9-2.7-1.1-4.1
		c0.4-0.7,1.1-1.2,1.8-1.4c0.8-0.2,1.6-0.1,2.3,0.3C259.3,87,259.8,88.9,259,90.3z"/>
	<path class="st3" d="M255.6,86.5c-0.7,0.2-1.3,0.7-1.6,1.3c0,0.1,0,0.2,0.1,0.2c0,0,0.1,0,0.1,0c0,0,0.1,0,0.1-0.1
		c0.2-0.5,0.8-0.9,1.4-1.1c0.7-0.2,1.4-0.2,2,0.1c0.1,0,0.2,0,0.2-0.1c0-0.1,0-0.2-0.1-0.2C257.2,86.3,256.3,86.2,255.6,86.5z"/>
</g>
<g>
	<circle class="st5" cx="72.1" cy="101.4" r="9.2"/>
	<g>
		<path class="st2" d="M75,95.5L75,95.5L75,95.5h-7.4v12h9.1V96.8L75,95.5z M76.3,107.1H68V95.9h7l-0.2,1.3l1.5-0.2V107.1z"/>
		<g>
			<rect x="68.9" y="98.5" class="st2" width="6.3" height="0.4"/>
			<rect x="68.9" y="100.2" class="st2" width="6.3" height="0.4"/>
			<rect x="68.9" y="101.9" class="st2" width="6.3" height="0.4"/>
			<rect x="68.9" y="103.6" class="st2" width="6.3" height="0.4"/>
		</g>
	</g>
</g>
<g>
	<path class="st3" d="M253.2,140.3L253.2,140.3L253.2,140.3h-7.4v12h9.1v-10.7L253.2,140.3z M254.4,151.9h-8.3v-11.2h7l-0.2,1.3
		l1.5-0.2V151.9z"/>
	<g>
		<rect x="247.1" y="143.3" class="st3" width="6.3" height="0.4"/>
		<rect x="247.1" y="144.9" class="st3" width="6.3" height="0.4"/>
		<rect x="247.1" y="146.6" class="st3" width="6.3" height="0.4"/>
		<rect x="247.1" y="148.3" class="st3" width="6.3" height="0.4"/>
	</g>
</g>
<g>
	<g>
		<path class="st3" d="M249.7,46.5c-14.9-15.9-34.9-25-56.2-25.7l0,0.3c44.1,1.4,79,38.5,79.5,84.6l0.3,0
			C273,83.4,264.6,62.4,249.7,46.5z"/>
		<path class="st3" d="M272.8,105.7c-0.5-46-35.4-83.1-79.4-84.5l-0.1,0l0-0.5l0.1,0c21.4,0.7,41.4,9.8,56.3,25.7
			c14.9,15.9,23.3,36.9,23.5,59.2v0.1L272.8,105.7L272.8,105.7z M249.6,46.5c-14.9-15.9-34.8-25-56.1-25.7l0,0.1
			c44,1.4,78.9,38.6,79.5,84.6l0.1,0C272.8,83.4,264.5,62.4,249.6,46.5z"/>
	</g>
	<g>
		<polygon class="st3" points="271.5,105.2 273,107.8 274.5,105.2 		"/>
		<path class="st3" d="M271.4,105.2l3.2,0l-1.6,2.8L271.4,105.2z M271.7,105.3l1.4,2.3l1.3-2.3L271.7,105.3z"/>
	</g>
	<g>
		<polygon class="st3" points="191.9,20.9 193.6,22.8 193.7,19.2 		"/>
		<path class="st3" d="M191.8,20.9l2.1-1.9l-0.2,4L191.8,20.9z M192,20.9l1.5,1.6l0.1-3.2L192,20.9z"/>
	</g>
</g>
<g>
	<g>
		<path class="st3" d="M230.9,66.2c-7.9-8.4-18.5-13.3-29.9-13.6l0,0.2c23.4,0.7,41.9,20.5,42.2,44.9h0.2
			C243.2,85.8,238.8,74.6,230.9,66.2z"/>
		<path class="st3" d="M243,97.8l0.5,0l0-0.2c-0.1-11.9-4.6-23.1-12.5-31.5c-8-8.5-18.6-13.3-30-13.7l-0.2,0l0,0.5l0.2,0
			c23.3,0.7,41.8,20.4,42,44.7L243,97.8z"/>
	</g>
	<g>
		<polygon class="st3" points="242.5,97.4 243.3,98.7 244,97.4 		"/>
		<path class="st3" d="M242.2,97.2l2.1,0l-1,1.9L242.2,97.2z M242.8,97.6l0.5,0.8l0.5-0.9L242.8,97.6z"/>
	</g>
	<g>
		<polygon class="st3" points="200.2,52.6 201.1,53.6 201.2,51.7 		"/>
		<path class="st3" d="M199.9,52.6l1.4-1.3l-0.1,2.7L199.9,52.6z M200.4,52.6l0.5,0.6l0-1.1L200.4,52.6z"/>
	</g>
</g>
<g>
	<g>
		<path class="st3" d="M208.3,81.5c-3.3-3.5-7.7-5.5-12.4-5.7l0,0.1c9.7,0.3,17.4,8.5,17.5,18.6h0.1C213.4,89.7,211.6,85,208.3,81.5
			z"/>
		<path class="st3" d="M213.2,94.7l0.4,0v-0.2c-0.1-4.9-1.9-9.6-5.2-13.2c-3.3-3.5-7.8-5.6-12.5-5.7l-0.2,0l0,0.4l0.2,0
			c9.6,0.3,17.2,8.4,17.3,18.5L213.2,94.7z"/>
	</g>
	<g>
		<polygon class="st3" points="213.1,94.5 213.4,95 213.8,94.5 		"/>
		<polygon class="st3" points="213.4,95.4 214,94.3 212.8,94.3 		"/>
	</g>
	<g>
		<polygon class="st3" points="195.6,75.9 195.9,76.3 196,75.5 		"/>
		<polygon class="st3" points="196.1,76.7 196.2,75.1 195.3,75.9 		"/>
	</g>
</g>
<g>
	<circle class="st3" cx="33.2" cy="84.4" r="13.2"/>
	<g>
		<path class="st2" d="M24.3,81.8v2.4h1.2v-2.4h1.2v6h-1.2v-2.5h-1.2v2.5h-1.2v-6H24.3z"/>
		<path class="st2" d="M28.4,82.9h-1.1v-1.1h3.3v1.1h-1.1v4.9h-1.2V82.9z"/>
		<path class="st2" d="M35,85.7c0-0.6-0.1-1.3-0.1-2h0c-0.1,0.6-0.3,1.4-0.4,1.8L34,87.8h-0.8l-0.5-2.1c-0.1-0.5-0.3-1.2-0.4-1.9h0
			c0,0.7-0.1,1.4-0.1,2l-0.1,2.1h-1l0.4-6h1.2l0.5,2.2c0.2,0.8,0.3,1.4,0.4,2.1h0c0.1-0.7,0.2-1.3,0.4-2.1l0.5-2.2h1.2l0.4,6h-1
			L35,85.7z"/>
		<path class="st2" d="M37,81.8h1.2v5h1.5v1H37V81.8z"/>
		<path class="st2" d="M43.1,83.1h-1.5l-0.1,1c0.1,0,0.1,0,0.2,0c0.3,0,0.8,0.1,1.1,0.4c0.3,0.3,0.5,0.8,0.5,1.3c0,1.1-0.8,2-2,2
			c-0.4,0-0.9-0.1-1.1-0.2l0.2-0.9c0.2,0.1,0.5,0.2,0.8,0.2c0.6,0,0.9-0.4,0.9-1c0-0.8-0.6-1-1.3-1c-0.2,0-0.3,0-0.4,0l0.3-2.9h2.4
			V83.1z"/>
	</g>
</g>
<g>
	<ellipse class="st1" cx="71.3" cy="63.1" rx="12.8" ry="12.8"/>
	<g>
		<path class="st2" d="M63.5,59c0.4-0.1,1-0.2,1.6-0.2c0.9,0,1.7,0.1,2.2,0.6c0.5,0.4,0.7,1.1,0.7,1.8c0,0.9-0.3,1.5-0.7,1.9
			c-0.5,0.5-1.3,0.8-2,0.8c-0.1,0-0.2,0-0.3,0v3h-1.6V59z M65.1,62.7c0.1,0,0.2,0,0.3,0c0.8,0,1.1-0.6,1.1-1.3c0-0.7-0.3-1.3-1-1.3
			c-0.1,0-0.3,0-0.4,0.1V62.7z"/>
		<path class="st2" d="M70.5,58.9v3.2h1.6v-3.2h1.6v8h-1.6v-3.4h-1.6v3.4H69v-8H70.5z"/>
		<path class="st2" d="M75.1,59c0.4-0.1,1-0.2,1.6-0.2c0.9,0,1.7,0.1,2.2,0.6c0.5,0.4,0.7,1.1,0.7,1.8c0,0.9-0.3,1.5-0.7,1.9
			c-0.5,0.5-1.3,0.8-2,0.8c-0.1,0-0.2,0-0.3,0v3h-1.6V59z M76.7,62.7c0.1,0,0.2,0,0.3,0c0.8,0,1.1-0.6,1.1-1.3c0-0.7-0.3-1.3-1-1.3
			c-0.1,0-0.3,0-0.4,0.1V62.7z"/>
	</g>
</g>
<g>
	<path class="st3" d="M128,22.1c0.4-0.1,0.8-0.1,1.3-0.1c0.8,0,1.4,0.1,1.8,0.5c0.4,0.3,0.6,0.9,0.6,1.4c0,0.7-0.2,1.2-0.6,1.6
		c-0.4,0.4-1.1,0.6-1.6,0.6c-0.1,0-0.2,0-0.3,0v2.4H128V22.1z M129.2,25.1c0.1,0,0.1,0,0.2,0c0.6,0,0.9-0.5,0.9-1.1
		c0-0.6-0.2-1-0.8-1c-0.1,0-0.2,0-0.3,0V25.1z"/>
	<path class="st3" d="M133.7,22v2.6h1.3V22h1.3v6.5H135v-2.7h-1.3v2.7h-1.3V22H133.7z"/>
	<path class="st3" d="M137.4,22.1c0.4-0.1,0.8-0.1,1.3-0.1c0.8,0,1.4,0.1,1.8,0.5c0.4,0.3,0.6,0.9,0.6,1.4c0,0.7-0.2,1.2-0.6,1.6
		c-0.4,0.4-1.1,0.6-1.6,0.6c-0.1,0-0.2,0-0.3,0v2.4h-1.3V22.1z M138.7,25.1c0.1,0,0.1,0,0.2,0c0.6,0,0.9-0.5,0.9-1.1
		c0-0.6-0.2-1-0.8-1c-0.1,0-0.2,0-0.3,0V25.1z"/>
</g>
<g>
	<circle class="st1" cx="227.9" cy="113" r="13.1"/>
	<g>
		<path class="st2" d="M223.3,117.3c-0.2,0.1-0.7,0.2-1.2,0.2c-2.1,0-3-1.7-3-4c0-3,1.7-4.2,3.2-4.2c0.5,0,0.9,0.1,1.1,0.2l-0.3,1.3
			c-0.2-0.1-0.4-0.2-0.7-0.2c-0.9,0-1.7,0.8-1.7,2.8c0,1.9,0.7,2.7,1.7,2.7c0.3,0,0.6-0.1,0.8-0.1L223.3,117.3z"/>
		<path class="st2" d="M224,115.9c0.3,0.2,0.9,0.3,1.3,0.3c0.7,0,1.1-0.4,1.1-0.9c0-0.6-0.4-0.9-1-1.3c-1.1-0.7-1.5-1.5-1.5-2.2
			c0-1.3,0.9-2.4,2.5-2.4c0.5,0,1,0.1,1.3,0.3l-0.3,1.3c-0.2-0.1-0.6-0.3-1-0.3c-0.7,0-1,0.4-1,0.8c0,0.5,0.2,0.7,1.1,1.3
			c1.1,0.6,1.5,1.5,1.5,2.3c0,1.5-1.1,2.4-2.6,2.4c-0.6,0-1.3-0.2-1.5-0.3L224,115.9z"/>
		<path class="st2" d="M228.7,115.9c0.3,0.2,0.9,0.3,1.3,0.3c0.7,0,1.1-0.4,1.1-0.9c0-0.6-0.4-0.9-1-1.3c-1.1-0.7-1.5-1.5-1.5-2.2
			c0-1.3,0.9-2.4,2.5-2.4c0.5,0,1,0.1,1.3,0.3l-0.3,1.3c-0.2-0.1-0.6-0.3-1-0.3c-0.7,0-1,0.4-1,0.8c0,0.5,0.2,0.7,1.1,1.3
			c1.1,0.6,1.5,1.5,1.5,2.3c0,1.5-1.1,2.4-2.6,2.4c-0.6,0-1.3-0.2-1.5-0.3L228.7,115.9z"/>
		<path class="st2" d="M233.4,116c0.3,0.2,0.8,0.3,1.2,0.3c0.8,0,1.2-0.5,1.2-1.1c0-0.9-0.7-1.2-1.4-1.2h-0.2v-1.1h0.2
			c0.6,0,1.3-0.3,1.3-1c0-0.6-0.3-0.9-0.9-0.9c-0.4,0-0.7,0.1-1,0.3l-0.2-1.2c0.3-0.2,1-0.4,1.6-0.4c1.4,0,2.1,0.9,2.1,1.9
			c0,0.8-0.4,1.4-1.1,1.7v0c0.8,0.3,1.3,0.9,1.3,2c0,1.2-0.9,2.3-2.6,2.3c-0.6,0-1.2-0.2-1.5-0.3L233.4,116z"/>
	</g>
</g>
<g>
	<circle class="st6" cx="215.3" cy="161.8" r="18.3"/>
	<g>
		<path class="st2" d="M198.9,157.8h1.2v4.1c0,1.7-0.8,2-1.7,2c-0.2,0-0.5,0-0.6-0.1l0.1-1c0.1,0,0.2,0,0.4,0c0.3,0,0.6-0.1,0.6-0.9
			V157.8z"/>
		<path class="st2" d="M201.8,162.4l-0.3,1.4h-1.1l1.3-6h1.4l1.2,6h-1.1l-0.3-1.4H201.8z M202.7,161.5l-0.2-1.3
			c-0.1-0.4-0.1-1-0.2-1.4h0c-0.1,0.4-0.2,1-0.2,1.4l-0.2,1.3H202.7z"/>
		<path class="st2" d="M205.3,163.7l-1.3-6h1.3l0.4,2.6c0.1,0.6,0.2,1.4,0.3,2.1h0c0.1-0.7,0.2-1.4,0.3-2.1l0.4-2.6h1.3l-1.4,6
			H205.3z"/>
		<path class="st2" d="M209,162.4l-0.3,1.4h-1.1l1.3-6h1.4l1.2,6h-1.1l-0.3-1.4H209z M210,161.5l-0.2-1.3c-0.1-0.4-0.1-1-0.2-1.4h0
			c-0.1,0.4-0.1,1-0.2,1.4l-0.2,1.3H210z"/>
		<path class="st2" d="M213,162.5c0.2,0.1,0.7,0.2,1,0.2c0.5,0,0.8-0.3,0.8-0.7c0-0.4-0.3-0.6-0.8-1c-0.8-0.5-1.1-1.1-1.1-1.7
			c0-1,0.6-1.8,1.9-1.8c0.4,0,0.8,0.1,0.9,0.2l-0.2,1c-0.2-0.1-0.4-0.2-0.8-0.2c-0.5,0-0.7,0.3-0.7,0.6c0,0.4,0.2,0.5,0.8,0.9
			c0.8,0.5,1.1,1.1,1.1,1.7c0,1.1-0.8,1.8-2,1.8c-0.5,0-0.9-0.1-1.1-0.2L213,162.5z"/>
		<path class="st2" d="M219.2,163.6c-0.2,0.1-0.5,0.1-0.9,0.1c-1.5,0-2.3-1.3-2.3-3c0-2.3,1.2-3.1,2.4-3.1c0.4,0,0.7,0.1,0.8,0.2
			l-0.2,1c-0.1-0.1-0.3-0.1-0.5-0.1c-0.7,0-1.2,0.6-1.2,2c0,1.4,0.5,2,1.2,2c0.2,0,0.4,0,0.6-0.1L219.2,163.6z"/>
		<path class="st2" d="M219.7,157.9c0.4-0.1,0.8-0.1,1.3-0.1c0.6,0,1.2,0.1,1.6,0.4c0.4,0.3,0.5,0.7,0.5,1.2c0,0.6-0.3,1.2-0.9,1.5
			v0c0.4,0.2,0.6,0.5,0.7,1.2c0.1,0.7,0.3,1.4,0.4,1.6H222c-0.1-0.2-0.2-0.8-0.3-1.4c-0.1-0.7-0.3-0.9-0.7-0.9h-0.2v2.4h-1.2V157.9z
			 M220.8,160.5h0.2c0.5,0,0.8-0.4,0.8-0.9c0-0.5-0.2-0.9-0.7-0.9c-0.1,0-0.2,0-0.3,0V160.5z"/>
		<path class="st2" d="M224.8,157.8v6h-1.2v-6H224.8z"/>
		<path class="st2" d="M225.6,157.9c0.3-0.1,0.8-0.1,1.2-0.1c0.7,0,1.2,0.1,1.6,0.5c0.4,0.3,0.5,0.8,0.5,1.3c0,0.6-0.2,1.1-0.5,1.4
			c-0.4,0.4-1,0.6-1.5,0.6c-0.1,0-0.1,0-0.2,0v2.2h-1.2V157.9z M226.7,160.6c0.1,0,0.1,0,0.2,0c0.6,0,0.8-0.4,0.8-1
			c0-0.5-0.2-0.9-0.8-0.9c-0.1,0-0.2,0-0.3,0V160.6z"/>
		<path class="st2" d="M230.1,158.8H229v-1.1h3.3v1.1h-1.1v4.9h-1.2V158.8z"/>
	</g>
</g>
<g>
	<ellipse class="st0" cx="215.4" cy="55.6" rx="9.7" ry="9.7"/>
	<g>
		<path class="st2" d="M208.4,56.8c0-0.4,0.3-0.7,0.6-0.7c0.3,0,0.6,0.3,0.6,0.7c0,0.4-0.3,0.7-0.6,0.7
			C208.7,57.6,208.4,57.3,208.4,56.8z"/>
		<path class="st2" d="M212.5,57.4c-0.1,0-0.4,0.1-0.7,0.1c-1,0-1.7-0.7-1.7-2c0-1.2,0.7-2.1,1.8-2.1c0.3,0,0.5,0.1,0.6,0.1
			l-0.1,0.8c-0.1,0-0.2-0.1-0.4-0.1c-0.5,0-0.8,0.5-0.8,1.2c0,0.7,0.3,1.2,0.8,1.2c0.2,0,0.3,0,0.4-0.1L212.5,57.4z"/>
		<path class="st2" d="M215.9,55.5c0,1.7-0.9,2.1-1.5,2.1c-1,0-1.5-0.8-1.5-2.1c0-1.4,0.8-2.1,1.6-2.1
			C215.3,53.4,215.9,54.2,215.9,55.5z M213.9,55.5c0,0.7,0.1,1.3,0.5,1.3c0.4,0,0.4-0.7,0.4-1.3c0-0.5-0.1-1.2-0.5-1.2
			C214,54.2,213.9,54.9,213.9,55.5z"/>
		<path class="st2" d="M216.5,54.7c0-0.4,0-0.8,0-1.2h0.9l0.1,0.5h0c0.2-0.3,0.5-0.5,1-0.5c0.4,0,0.7,0.2,0.9,0.5h0
			c0.1-0.2,0.3-0.3,0.4-0.4c0.2-0.1,0.4-0.1,0.6-0.1c0.7,0,1,0.6,1,1.5v2.5h-1.1v-2.4c0-0.5-0.1-0.8-0.4-0.8c-0.2,0-0.3,0.1-0.4,0.4
			c0,0.1,0,0.2,0,0.3v2.5h-1.1V55c0-0.3,0-0.7-0.4-0.7c-0.2,0-0.3,0.1-0.4,0.4c0,0.1,0,0.2,0,0.3v2.5h-1.1V54.7z"/>
	</g>
</g>
<g>
	<path class="st3" d="M41.9,178.8c0-0.4,0.3-0.7,0.6-0.7c0.3,0,0.6,0.3,0.6,0.7c0,0.4-0.3,0.7-0.6,0.7
		C42.2,179.5,41.9,179.2,41.9,178.8z"/>
	<path class="st3" d="M46,179.4c-0.1,0-0.4,0.1-0.7,0.1c-1,0-1.7-0.7-1.7-2c0-1.2,0.7-2.1,1.8-2.1c0.3,0,0.5,0.1,0.6,0.1l-0.1,0.8
		c-0.1,0-0.2-0.1-0.4-0.1c-0.5,0-0.8,0.5-0.8,1.2c0,0.7,0.3,1.2,0.8,1.2c0.2,0,0.3,0,0.4-0.1L46,179.4z"/>
	<path class="st3" d="M49.4,177.4c0,1.7-0.9,2.1-1.5,2.1c-1,0-1.5-0.8-1.5-2.1c0-1.4,0.8-2.1,1.5-2.1
		C48.8,175.4,49.4,176.2,49.4,177.4z M47.4,177.4c0,0.7,0.1,1.3,0.5,1.3c0.4,0,0.4-0.7,0.4-1.3c0-0.5-0.1-1.2-0.5-1.2
		C47.4,176.2,47.4,176.9,47.4,177.4z"/>
	<path class="st3" d="M50,176.7c0-0.4,0-0.8,0-1.2h0.9l0.1,0.5h0c0.2-0.3,0.5-0.5,1-0.5c0.5,0,0.7,0.2,0.9,0.5h0
		c0.1-0.2,0.3-0.3,0.4-0.4c0.2-0.1,0.4-0.1,0.6-0.1c0.7,0,1,0.6,1,1.5v2.5h-1.1v-2.4c0-0.5,0-0.8-0.4-0.8c-0.2,0-0.3,0.1-0.4,0.4
		c0,0.1,0,0.2,0,0.3v2.5h-1.1v-2.5c0-0.3,0-0.7-0.4-0.7c-0.2,0-0.3,0.1-0.4,0.4c0,0.1,0,0.2,0,0.3v2.5H50V176.7z"/>
</g>
<g>
	<circle class="st6" cx="113.4" cy="42.4" r="13.1"/>
	<g>
		<path class="st2" d="M108.4,45.7c-0.2,0.1-0.7,0.2-1.2,0.2c-2.1,0-3.1-1.7-3.1-4.1c0-3.1,1.7-4.3,3.4-4.3c0.6,0,1,0.1,1.1,0.2
			l-0.3,1.4c-0.2-0.1-0.4-0.2-0.8-0.2c-0.9,0-1.7,0.8-1.7,2.8c0,2,0.8,2.8,1.7,2.8c0.3,0,0.6-0.1,0.8-0.1L108.4,45.7z"/>
		<path class="st2" d="M112.7,39.3V42h2.7v1h-2.7v2.8h-1V43H109v-1h2.7v-2.8H112.7z"/>
		<path class="st2" d="M120.1,39.3V42h2.7v1h-2.7v2.8h-1V43h-2.7v-1h2.7v-2.8H120.1z"/>
	</g>
</g>
<g>
	<path class="st3" d="M65.3,45.8c-0.2,0.1-0.5,0.1-0.8,0.1c-1.4,0-2.1-1.2-2.1-2.7c0-2.1,1.2-2.9,2.2-2.9c0.4,0,0.6,0.1,0.7,0.1
		l-0.2,0.9c-0.1-0.1-0.3-0.1-0.5-0.1c-0.6,0-1.2,0.5-1.2,1.9c0,1.3,0.5,1.8,1.2,1.8c0.2,0,0.4,0,0.5-0.1L65.3,45.8z"/>
	<path class="st3" d="M68.2,41.5v1.8H70V44h-1.8v1.9h-0.7V44h-1.8v-0.7h1.8v-1.8H68.2z"/>
	<path class="st3" d="M73.1,41.5v1.8h1.8V44h-1.8v1.9h-0.7V44h-1.8v-0.7h1.8v-1.8H73.1z"/>
</g>
<g>
	<circle class="st5" cx="222.3" cy="81.8" r="8.8"/>
	<g>
		<path class="st2" d="M216.7,82.3l3.9-1.9v0.8l-2.9,1.3v0l2.9,1.3v0.8l-3.9-1.9V82.3z"/>
		<path class="st2" d="M220.9,85.1l1.9-5.9h0.7l-1.9,5.9H220.9z"/>
		<path class="st2" d="M227.8,82.9l-3.9,1.8v-0.8l3.1-1.4v0l-3.1-1.4v-0.8l3.9,1.8V82.9z"/>
	</g>
</g>
<g>
	<path class="st3" d="M198.1,131.2l3.9-1.9v0.8l-2.9,1.3v0l2.9,1.3v0.8l-3.9-1.9V131.2z"/>
	<path class="st3" d="M202.3,133.9l1.9-5.9h0.7l-1.9,5.9H202.3z"/>
	<path class="st3" d="M209.2,131.8l-3.9,1.8v-0.8l3.1-1.4v0l-3.1-1.4v-0.8l3.9,1.8V131.8z"/>
</g>
<g>
	<circle class="st6" cx="57.2" cy="151.7" r="10.6"/>
	<g>
		<path class="st2" d="M50,148.6h1.1v2.1h0c0.1-0.1,0.2-0.2,0.3-0.3c0.2-0.1,0.3-0.1,0.5-0.1c0.7,0,1,0.6,1,1.6v2.4H52v-2.4
			c0-0.4-0.1-0.7-0.4-0.7c-0.2,0-0.3,0.1-0.4,0.4c0,0.1,0,0.2,0,0.3v2.5H50V148.6z"/>
		<path class="st2" d="M55.1,149.2v1h0.8v0.8h-0.8v1.8c0,0.5,0.2,0.6,0.4,0.6c0.1,0,0.2,0,0.3,0l0,0.8c-0.1,0-0.4,0.1-0.7,0.1
			c-0.3,0-0.6-0.1-0.8-0.3c-0.2-0.2-0.3-0.5-0.3-1.1V151h-0.5v-0.8H54v-0.7L55.1,149.2z"/>
		<path class="st2" d="M57.6,149.2v1h0.8v0.8h-0.8v1.8c0,0.5,0.2,0.6,0.4,0.6c0.1,0,0.2,0,0.3,0l0,0.8c-0.1,0-0.4,0.1-0.7,0.1
			c-0.3,0-0.6-0.1-0.8-0.3c-0.2-0.2-0.3-0.5-0.3-1.1V151h-0.5v-0.8h0.5v-0.7L57.6,149.2z"/>
		<path class="st2" d="M58.9,151.5c0-0.5,0-0.9,0-1.3h0.9l0.1,0.5h0c0.2-0.3,0.5-0.5,0.8-0.5c0.9,0,1.2,1,1.2,2.1
			c0,1.4-0.6,2.1-1.3,2.1c-0.3,0-0.5-0.2-0.7-0.4h0v1.9h-1.1V151.5z M60,152.8c0,0.1,0,0.3,0.1,0.3c0.1,0.2,0.2,0.3,0.3,0.3
			c0.4,0,0.5-0.6,0.5-1.2c0-0.8-0.2-1.2-0.5-1.2c-0.2,0-0.3,0.2-0.4,0.3c0,0.1,0,0.2,0,0.3V152.8z"/>
		<path class="st2" d="M62.6,151c0-0.4,0.3-0.7,0.6-0.7c0.3,0,0.6,0.3,0.6,0.7c0,0.4-0.2,0.7-0.6,0.7
			C62.9,151.6,62.6,151.4,62.6,151z M62.6,153.7c0-0.4,0.3-0.7,0.6-0.7c0.3,0,0.6,0.3,0.6,0.7c0,0.4-0.2,0.7-0.6,0.7
			C62.9,154.3,62.6,154.1,62.6,153.7z"/>
	</g>
</g>
<g>
	<path class="st3" d="M26.3,140.3h1.1v2.1h0c0.1-0.1,0.2-0.2,0.3-0.3c0.2-0.1,0.3-0.1,0.5-0.1c0.7,0,1,0.6,1,1.6v2.4h-1.1v-2.4
		c0-0.4-0.1-0.7-0.4-0.7c-0.2,0-0.3,0.1-0.4,0.4c0,0.1,0,0.2,0,0.3v2.5h-1.1V140.3z"/>
	<path class="st3" d="M31.3,140.9v1h0.8v0.8h-0.8v1.8c0,0.5,0.2,0.6,0.4,0.6c0.1,0,0.2,0,0.3,0l0,0.8c-0.1,0-0.4,0.1-0.7,0.1
		c-0.3,0-0.6-0.1-0.8-0.3c-0.2-0.2-0.3-0.5-0.3-1.1v-1.9h-0.5v-0.8h0.5v-0.7L31.3,140.9z"/>
	<path class="st3" d="M33.9,140.9v1h0.8v0.8h-0.8v1.8c0,0.5,0.2,0.6,0.4,0.6c0.1,0,0.2,0,0.3,0l0,0.8c-0.1,0-0.4,0.1-0.7,0.1
		c-0.3,0-0.6-0.1-0.8-0.3c-0.2-0.2-0.3-0.5-0.3-1.1v-1.9h-0.5v-0.8h0.5v-0.7L33.9,140.9z"/>
	<path class="st3" d="M35.1,143.2c0-0.5,0-0.9,0-1.3H36l0.1,0.5h0c0.2-0.3,0.5-0.5,0.8-0.5c0.9,0,1.2,1,1.2,2.1
		c0,1.4-0.6,2.1-1.3,2.1c-0.3,0-0.5-0.2-0.7-0.4h0v1.9h-1.1V143.2z M36.2,144.5c0,0.1,0,0.3,0.1,0.3c0.1,0.2,0.2,0.3,0.3,0.3
		c0.4,0,0.5-0.6,0.5-1.2c0-0.8-0.2-1.2-0.5-1.2c-0.2,0-0.3,0.2-0.4,0.3c0,0.1,0,0.2,0,0.3V144.5z"/>
	<path class="st3" d="M38.9,142.6c0-0.4,0.3-0.7,0.6-0.7c0.3,0,0.6,0.3,0.6,0.7c0,0.4-0.2,0.7-0.6,0.7
		C39.1,143.3,38.9,143,38.9,142.6z M38.9,145.3c0-0.4,0.3-0.7,0.6-0.7c0.3,0,0.6,0.3,0.6,0.7c0,0.4-0.2,0.7-0.6,0.7
		C39.1,146,38.9,145.7,38.9,145.3z"/>
</g>
<g>
	<ellipse class="st5" cx="78.4" cy="176.2" rx="8.7" ry="8.7"/>
	<g>
		<path class="st2" d="M81.8,176.4c-0.5,0-0.6,0.3-0.6,0.5c0,0.2,0,0.5,0.1,0.7c0,0.2,0.1,0.5,0.1,0.7c0,1-0.6,1.3-1.4,1.3h-0.2V179
			h0.1c0.4,0,0.5-0.3,0.5-0.6c0-0.2,0-0.4,0-0.6c0-0.2,0-0.4,0-0.6c0-0.6,0.2-1,0.7-1.1v0c-0.5-0.1-0.7-0.5-0.7-1.1
			c0-0.2,0-0.3,0-0.5c0-0.2,0-0.4,0-0.6c0-0.3-0.1-0.6-0.5-0.6h-0.1v-0.7H80c0.9,0,1.4,0.4,1.4,1.3c0,0.3,0,0.5-0.1,0.7
			c0,0.2-0.1,0.5-0.1,0.7c0,0.2,0.1,0.5,0.6,0.5V176.4z"/>
	</g>
	<g>
		<path class="st2" d="M74.3,175.7c0.5,0,0.6-0.3,0.6-0.5c0-0.2,0-0.5-0.1-0.7c0-0.2-0.1-0.5-0.1-0.7c0-0.9,0.5-1.3,1.4-1.3h0.2v0.7
			h-0.1c-0.3,0-0.5,0.3-0.5,0.6c0,0.2,0,0.4,0,0.6c0,0.2,0,0.4,0,0.5c0,0.6-0.2,1-0.7,1.1v0c0.5,0.1,0.7,0.5,0.7,1.1
			c0,0.2,0,0.4,0,0.6c0,0.2,0,0.4,0,0.6c0,0.3,0.1,0.6,0.5,0.6h0.1v0.7h-0.2c-0.7,0-1.4-0.3-1.4-1.3c0-0.3,0-0.5,0.1-0.7
			c0-0.2,0.1-0.5,0.1-0.7c0-0.2-0.1-0.5-0.6-0.5V175.7z"/>
	</g>
</g>
<g>
	<g>
		<path class="st3" d="M236.5,50.4c-0.5,0-0.6,0.3-0.6,0.5c0,0.2,0,0.5,0.1,0.7c0,0.2,0.1,0.5,0.1,0.7c0,1-0.6,1.3-1.4,1.3h-0.2
			v-0.7h0.1c0.4,0,0.5-0.3,0.5-0.6c0-0.2,0-0.4,0-0.6c0-0.2,0-0.4,0-0.6c0-0.6,0.2-1,0.7-1.1v0c-0.5-0.1-0.7-0.5-0.7-1.1
			c0-0.2,0-0.3,0-0.5c0-0.2,0-0.4,0-0.6c0-0.3-0.1-0.6-0.5-0.6h-0.1v-0.7h0.2c0.9,0,1.4,0.4,1.4,1.3c0,0.3,0,0.5-0.1,0.7
			c0,0.2-0.1,0.5-0.1,0.7c0,0.2,0.1,0.5,0.6,0.5V50.4z"/>
	</g>
	<g>
		<path class="st3" d="M228.9,49.6c0.5,0,0.6-0.3,0.6-0.5c0-0.2,0-0.5-0.1-0.7c0-0.2-0.1-0.5-0.1-0.7c0-0.9,0.5-1.3,1.4-1.3h0.2v0.7
			h-0.1c-0.3,0-0.5,0.3-0.5,0.6c0,0.2,0,0.4,0,0.6c0,0.2,0,0.4,0,0.5c0,0.6-0.2,1-0.7,1.1v0c0.5,0.1,0.7,0.5,0.7,1.1
			c0,0.2,0,0.4,0,0.6c0,0.2,0,0.4,0,0.6c0,0.3,0.1,0.6,0.5,0.6h0.1v0.7h-0.2c-0.7,0-1.4-0.3-1.4-1.3c0-0.3,0-0.5,0.1-0.7
			c0-0.2,0.1-0.5,0.1-0.7c0-0.2-0.1-0.5-0.6-0.5V49.6z"/>
	</g>
</g>
<g>
	<ellipse class="st5" cx="154.6" cy="37.7" rx="12.6" ry="12.6"/>
	<g>
		<path class="st2" d="M144.1,37.7l5.7-2.8v1.2l-4.2,2v0l4.2,1.9v1.2l-5.7-2.8V37.7z"/>
		<path class="st2" d="M151,38.2c0-0.6,0.4-1,0.9-1c0.5,0,0.9,0.4,0.9,1c0,0.6-0.4,1-0.9,1C151.4,39.2,151,38.8,151,38.2z"/>
		<path class="st2" d="M153.8,38.2c0-0.6,0.4-1,0.9-1c0.5,0,0.9,0.4,0.9,1c0,0.6-0.4,1-0.9,1C154.2,39.2,153.8,38.8,153.8,38.2z"/>
		<path class="st2" d="M156.6,38.2c0-0.6,0.4-1,0.9-1c0.5,0,0.9,0.4,0.9,1c0,0.6-0.4,1-0.9,1C157,39.2,156.6,38.8,156.6,38.2z"/>
		<path class="st2" d="M165.2,38.6l-5.7,2.6v-1.2l4.6-2v0l-4.6-2v-1.2l5.7,2.6V38.6z"/>
	</g>
</g>
<g>
	<path class="st3" d="M171.2,53.8l3.9-1.9v0.8l-2.9,1.3v0l2.9,1.3v0.8l-3.9-1.9V53.8z"/>
	<path class="st3" d="M176,54.1c0-0.4,0.3-0.7,0.6-0.7c0.3,0,0.6,0.3,0.6,0.7c0,0.4-0.3,0.7-0.6,0.7C176.3,54.8,176,54.5,176,54.1z"
		/>
	<path class="st3" d="M177.9,54.1c0-0.4,0.3-0.7,0.6-0.7c0.3,0,0.6,0.3,0.6,0.7c0,0.4-0.3,0.7-0.6,0.7
		C178.2,54.8,177.9,54.5,177.9,54.1z"/>
	<path class="st3" d="M179.8,54.1c0-0.4,0.3-0.7,0.6-0.7c0.3,0,0.6,0.3,0.6,0.7c0,0.4-0.3,0.7-0.6,0.7
		C180.1,54.8,179.8,54.5,179.8,54.1z"/>
	<path class="st3" d="M185.8,54.4l-3.9,1.8v-0.8L185,54v0l-3.1-1.4v-0.8l3.9,1.8V54.4z"/>
</g>
<g>
	<ellipse class="st1" cx="186.9" cy="38.9" rx="8.2" ry="8.2"/>
	<polygon class="st2" points="190.8,36.8 188.9,34.4 186.9,32.1 185,34.4 183,36.8 184.8,36.8 184.8,44.1 189.1,44.1 189.1,36.8 	
		"/>
</g>
<g>
	<g>
		<g>
			<path class="st0" d="M156.6,202.6c-3.7,0-6.4-0.6-6.5-0.6l-0.4-0.1l-12-32.4l1.2,0c0.1,0,13.1,0.3,17.3,0.3
				c4.5,0,18.3-0.3,18.4-0.3l1.1,0l-11.6,32.4l-0.4,0.1C163.7,202,161.1,202.6,156.6,202.6z M150.9,200.5c0.9,0.2,3,0.5,5.7,0.5
				c3.3,0,5.5-0.3,6.4-0.5l10.5-29.4c-3.4,0.1-13.5,0.3-17.3,0.3c-3.5,0-12.9-0.2-16.2-0.3L150.9,200.5z"/>
		</g>
	</g>
	<g>
		<path class="st0" d="M140.4,180.3L140.4,180.3c-2.6,0-4.7-1.4-4.8-3.3c0-0.7,0.2-1.5,0.8-2.1c0.9-1,2.4-1.7,4.1-1.7l32.2-2
			c2.8-0.2,5.1,1.3,5.2,3.2c0.1,2-2,3.7-4.8,3.8l-32.2,2C140.7,180.3,140.5,180.3,140.4,180.3z M173.1,172.7c-0.1,0-0.2,0-0.4,0
			l-32.2,2c-1.3,0.1-2.4,0.6-3.1,1.3c-0.2,0.2-0.5,0.6-0.4,1c0.1,1.1,1.6,1.9,3.4,1.9l0,0c0.1,0,0.2,0,0.4,0l32.2-2
			c2-0.1,3.6-1.2,3.5-2.3C176.4,173.5,174.9,172.7,173.1,172.7z"/>
	</g>
	<g>
		<path class="st0" d="M143.4,187.7c-2.2,0-4-1.4-4.1-3.3c-0.1-0.8,0.2-1.6,0.8-2.3c0.8-0.9,1.9-1.4,3.2-1.5l26.4-1.6
			c2.4-0.2,4.4,1.3,4.5,3.3c0.1,2-1.7,3.7-4.1,3.8l-26.4,1.6C143.6,187.7,143.5,187.7,143.4,187.7z M170.1,180.5l-0.2,0l-26.4,1.6
			c-0.9,0.1-1.7,0.4-2.2,1c-0.2,0.3-0.5,0.7-0.5,1.3c0.1,1.1,1.3,1.9,2.7,1.9l0.2,0l26.4-1.6c1.5-0.1,2.8-1.1,2.8-2.3
			C172.7,181.3,171.5,180.5,170.1,180.5z"/>
	</g>
	<g>
		<path class="st0" d="M146.1,195.6c-1.9,0-3.5-1.5-3.6-3.3c-0.1-2,1.4-3.6,3.3-3.8l21.5-1.3c1.9,0,3.5,1.5,3.6,3.3
			c0.1,0.9-0.2,1.8-0.9,2.5c-0.6,0.7-1.5,1.2-2.5,1.2L146.1,195.6z M167.4,188.7L146,190c-1.2,0.1-2.1,1.1-2,2.2c0.1,1.1,1,2,2.2,2
			v0.7l0.1-0.7l21.3-1.3c0.6,0,1.1-0.3,1.5-0.7c0.4-0.4,0.5-0.9,0.5-1.5C169.5,189.5,168.5,188.7,167.4,188.7z"/>
	</g>
	<g>
		<path class="st0" d="M148.9,201.2c-1.5,0-2.7-1.1-2.8-2.5c-0.1-1.5,1.1-2.7,2.6-2.8l15.7-0.8l0,0c1.6,0,2.9,1.1,3,2.5
			c0,0.7-0.2,1.5-0.8,2c-0.5,0.5-1.1,0.8-1.8,0.8L148.9,201.2z M164.5,196.2l-15.7,0.8c-0.8,0-1.3,0.7-1.3,1.5
			c0.1,0.8,0.7,1.3,1.4,1.3v0.6l0.1-0.6l15.7-0.8c0.3,0,0.6-0.2,0.9-0.4c0.3-0.3,0.4-0.7,0.4-1.1
			C165.9,196.8,165.3,196.2,164.5,196.2z"/>
	</g>
</g>
<g>
	<path class="st2" d="M139.6,90.1c0,0.4-0.1,0.9-0.2,1.3c-0.2,0.4-0.4,0.7-0.7,1c-0.4,0.3-0.8,0.6-1.2,0.8c-0.5,0.2-1.1,0.3-1.8,0.3
		h-1.1v3.8h-1.4V87h2.6c0.6,0,1.1,0.1,1.5,0.2c0.4,0.1,0.8,0.3,1.1,0.5c0.4,0.3,0.7,0.6,0.9,1C139.5,89.1,139.6,89.5,139.6,90.1z
		 M138.2,90.1c0-0.4-0.1-0.7-0.2-0.9c-0.1-0.3-0.3-0.5-0.6-0.6c-0.2-0.1-0.5-0.2-0.7-0.3c-0.3-0.1-0.6-0.1-1.1-0.1h-1.1v4.1h0.9
		c0.5,0,1,0,1.3-0.1c0.3-0.1,0.6-0.2,0.8-0.5c0.2-0.2,0.3-0.4,0.4-0.7S138.2,90.5,138.2,90.1z"/>
	<path class="st2" d="M140.9,97.2V87h6.4v1.2h-5V91h4.7v1.2h-4.7V96h5v1.2H140.9z"/>
	<path class="st2" d="M156.6,97.2h-1.8l-3.2-4h-1.5v4h-1.4V87h2.6c0.6,0,1.1,0,1.5,0.1c0.4,0.1,0.8,0.2,1.1,0.4
		c0.4,0.2,0.6,0.5,0.8,0.9c0.2,0.4,0.3,0.8,0.3,1.3c0,0.7-0.2,1.4-0.6,1.9c-0.4,0.5-0.9,0.9-1.5,1.1L156.6,97.2z M153.7,89.9
		c0-0.3-0.1-0.6-0.2-0.8c-0.1-0.2-0.3-0.4-0.5-0.6c-0.2-0.1-0.4-0.2-0.7-0.3c-0.3-0.1-0.6-0.1-1-0.1h-1.3V92h1.2c0.4,0,0.7,0,1-0.1
		c0.3-0.1,0.6-0.2,0.8-0.4c0.2-0.2,0.3-0.4,0.4-0.7C153.6,90.6,153.7,90.2,153.7,89.9z"/>
	<path class="st2" d="M163.5,88.2h-4.7v2.9h4.5v1.2h-4.5v4.9h-1.4V87h6.1V88.2z"/>
	<path class="st2" d="M164.7,97.2V87h6.4v1.2h-5V91h4.7v1.2h-4.7V96h5v1.2H164.7z"/>
	<path class="st2" d="M176.5,97.4c-0.7,0-1.3-0.1-1.8-0.3c-0.6-0.2-1-0.6-1.4-1c-0.4-0.4-0.7-1-0.9-1.7c-0.2-0.7-0.3-1.4-0.3-2.3
		c0-0.9,0.1-1.6,0.3-2.2c0.2-0.6,0.5-1.2,0.9-1.7c0.4-0.5,0.9-0.8,1.4-1c0.6-0.2,1.2-0.4,1.9-0.4c0.3,0,0.7,0,1,0.1
		c0.3,0.1,0.6,0.1,0.8,0.2c0.2,0.1,0.4,0.2,0.7,0.3c0.2,0.1,0.5,0.2,0.7,0.3v1.6h-0.1c-0.1-0.1-0.3-0.2-0.5-0.4
		c-0.2-0.2-0.4-0.3-0.7-0.5c-0.3-0.1-0.5-0.3-0.8-0.3c-0.3-0.1-0.7-0.1-1.1-0.1c-0.4,0-0.8,0.1-1.2,0.3c-0.4,0.2-0.7,0.4-1,0.8
		c-0.3,0.3-0.5,0.8-0.7,1.3c-0.2,0.5-0.2,1.1-0.2,1.8c0,0.7,0.1,1.3,0.3,1.8c0.2,0.5,0.4,0.9,0.7,1.3c0.3,0.3,0.6,0.6,1,0.8
		s0.8,0.3,1.2,0.3c0.4,0,0.8,0,1.1-0.1c0.3-0.1,0.6-0.2,0.9-0.4c0.3-0.1,0.5-0.3,0.6-0.4c0.2-0.1,0.3-0.3,0.4-0.4h0.1v1.6
		c-0.2,0.1-0.4,0.2-0.6,0.3c-0.2,0.1-0.4,0.2-0.7,0.3c-0.3,0.1-0.6,0.2-0.8,0.2C177.3,97.4,177,97.4,176.5,97.4z"/>
	<path class="st2" d="M183.4,97.2v-9h-3.4V87h8.2v1.2h-3.4v9H183.4z"/>
	<path class="st2" d="M149.5,111.4c-0.7,0-1.3-0.1-1.8-0.3c-0.6-0.2-1-0.6-1.4-1c-0.4-0.4-0.7-1-0.9-1.7c-0.2-0.7-0.3-1.4-0.3-2.3
		c0-0.9,0.1-1.6,0.3-2.2c0.2-0.6,0.5-1.2,0.9-1.7c0.4-0.5,0.9-0.8,1.4-1c0.6-0.2,1.2-0.4,1.9-0.4c0.3,0,0.7,0,1,0.1
		c0.3,0.1,0.6,0.1,0.8,0.2c0.2,0.1,0.4,0.2,0.7,0.3c0.2,0.1,0.5,0.2,0.7,0.3v1.6h-0.1c-0.1-0.1-0.3-0.2-0.5-0.4
		c-0.2-0.2-0.4-0.3-0.7-0.5c-0.3-0.1-0.5-0.3-0.8-0.3c-0.3-0.1-0.7-0.1-1.1-0.1c-0.4,0-0.8,0.1-1.2,0.3c-0.4,0.2-0.7,0.4-1,0.8
		c-0.3,0.3-0.5,0.8-0.7,1.3c-0.2,0.5-0.2,1.1-0.2,1.8c0,0.7,0.1,1.3,0.3,1.8c0.2,0.5,0.4,0.9,0.7,1.3c0.3,0.3,0.6,0.6,1,0.8
		s0.8,0.3,1.2,0.3c0.4,0,0.8,0,1.1-0.1c0.3-0.1,0.6-0.2,0.9-0.4c0.3-0.1,0.5-0.3,0.6-0.4c0.2-0.1,0.3-0.3,0.4-0.4h0.1v1.6
		c-0.2,0.1-0.4,0.2-0.6,0.3c-0.2,0.1-0.4,0.2-0.7,0.3c-0.3,0.1-0.6,0.2-0.8,0.2C150.2,111.4,149.9,111.4,149.5,111.4z"/>
	<path class="st2" d="M161.1,102.2c0.4,0.4,0.7,1,0.9,1.7c0.2,0.7,0.3,1.4,0.3,2.3c0,0.8-0.1,1.6-0.3,2.2c-0.2,0.7-0.5,1.2-0.9,1.7
		c-0.4,0.5-0.9,0.8-1.5,1c-0.6,0.2-1.2,0.3-1.8,0.3c-0.7,0-1.3-0.1-1.9-0.3c-0.6-0.2-1-0.6-1.4-1c-0.4-0.5-0.7-1-0.9-1.7
		c-0.2-0.7-0.3-1.4-0.3-2.2c0-0.9,0.1-1.6,0.3-2.3c0.2-0.6,0.5-1.2,0.9-1.7c0.4-0.5,0.9-0.8,1.4-1c0.6-0.2,1.2-0.4,1.9-0.4
		c0.7,0,1.3,0.1,1.9,0.4C160.3,101.4,160.7,101.8,161.1,102.2z M160.9,106.1c0-0.7-0.1-1.3-0.2-1.8c-0.1-0.5-0.4-1-0.6-1.3
		c-0.3-0.4-0.6-0.6-1-0.8c-0.4-0.2-0.8-0.3-1.3-0.3c-0.5,0-0.9,0.1-1.3,0.3c-0.4,0.2-0.7,0.4-1,0.8c-0.3,0.3-0.5,0.8-0.6,1.3
		c-0.1,0.5-0.2,1.1-0.2,1.8c0,1.3,0.3,2.4,0.8,3.1c0.6,0.7,1.3,1.1,2.3,1.1c0.9,0,1.7-0.4,2.3-1.1
		C160.6,108.5,160.9,107.5,160.9,106.1z"/>
	<path class="st2" d="M171.8,106.1c0,0.9-0.2,1.8-0.6,2.5c-0.4,0.7-0.9,1.3-1.5,1.8c-0.5,0.3-1,0.5-1.6,0.6c-0.5,0.1-1.2,0.2-2,0.2
		h-2.3V101h2.3c1,0,1.7,0.1,2.3,0.2c0.5,0.1,1,0.3,1.4,0.6c0.7,0.4,1.2,1,1.5,1.7C171.7,104.3,171.8,105.1,171.8,106.1z
		 M170.4,106.1c0-0.8-0.1-1.5-0.4-2c-0.3-0.6-0.6-1-1.2-1.3c-0.4-0.2-0.7-0.4-1.2-0.5c-0.4-0.1-0.9-0.1-1.5-0.1h-1v7.9h1
		c0.6,0,1.1,0,1.6-0.1c0.5-0.1,0.9-0.3,1.2-0.5c0.5-0.3,0.8-0.7,1.1-1.3C170.3,107.6,170.4,106.9,170.4,106.1z"/>
	<path class="st2" d="M173.3,111.2V101h6.4v1.2h-5v2.8h4.7v1.2h-4.7v3.8h5v1.2H173.3z"/>
</g>
<g>
	<g>
		<path class="st2" d="M204.2,37.8c-0.1,0-0.2,0-0.3-0.1c-0.1-0.1-0.2-0.2-0.2-0.3c0-0.1,0-0.3,0.1-0.4l1-1.7
			c-0.9-0.8-1.2-2.2-0.5-3.3c0.4-0.6,0.9-1.1,1.6-1.2c0.7-0.2,1.4-0.1,2,0.3c0.6,0.4,1.1,0.9,1.2,1.6c0.2,0.7,0.1,1.4-0.3,2
			c-0.4,0.6-0.9,1.1-1.6,1.2c-0.2,0.1-0.5,0.1-0.7,0.1l0,0c-0.3,0-0.6,0-0.9-0.1l-1,1.7c-0.1,0.1-0.2,0.2-0.3,0.2
			C204.3,37.8,204.2,37.8,204.2,37.8z M206.5,31c-0.2,0-0.4,0-0.6,0.1c-0.6,0.2-1.1,0.6-1.5,1.1c-0.6,1-0.3,2.3,0.6,3.1l0.1,0.1
			l-1.1,1.9c0,0.1,0,0.1,0,0.2c0,0.1,0.1,0.1,0.1,0.1c0.1,0,0.1,0,0.2,0c0.1,0,0.1-0.1,0.1-0.1l1.1-1.9l0.1,0c0.5,0.2,1,0.2,1.5,0.1
			c0.6-0.2,1.1-0.6,1.5-1.1c0.3-0.6,0.4-1.2,0.2-1.8c-0.2-0.6-0.6-1.1-1.1-1.5C207.3,31.1,206.9,31,206.5,31z M206.5,35.3
			c-0.3,0-0.7-0.1-1-0.3c-0.4-0.3-0.8-0.7-0.9-1.2c-0.1-0.5-0.1-1,0.2-1.4c0.3-0.4,0.7-0.7,1.2-0.9c0.5-0.1,1-0.1,1.4,0.2
			c0.9,0.5,1.2,1.7,0.7,2.6c-0.3,0.4-0.7,0.8-1.2,0.9C206.8,35.2,206.6,35.3,206.5,35.3z M206.5,31.7c-0.1,0-0.3,0-0.4,0.1
			c-0.4,0.1-0.8,0.4-1,0.8c-0.2,0.4-0.3,0.8-0.2,1.2c0.1,0.4,0.4,0.8,0.8,1c0.4,0.2,0.8,0.3,1.2,0.2c0.4-0.1,0.8-0.4,1-0.8
			c0.4-0.8,0.2-1.8-0.6-2.2C207,31.8,206.8,31.7,206.5,31.7z"/>
	</g>
	<g>
		<path class="st2" d="M205.2,33c0,0-0.1,0-0.1,0c-0.1,0-0.1-0.1-0.1-0.1c0-0.1,0-0.1,0-0.2c0.2-0.4,0.6-0.7,1-0.8
			c0.5-0.2,1-0.1,1.4,0.1c0,0,0.1,0.1,0.1,0.1c0,0.1,0,0.1,0,0.2c-0.1,0.1-0.2,0.2-0.3,0.1c-0.3-0.2-0.7-0.2-1.1-0.1
			c-0.3,0.1-0.6,0.3-0.7,0.6C205.3,32.9,205.3,33,205.2,33L205.2,33z"/>
	</g>
</g>
<g>
	<g>
		<path class="st2" d="M229.1,138.8c-0.1,0-0.2,0-0.3-0.1c-0.1-0.1-0.2-0.2-0.2-0.3c0-0.1,0-0.3,0.1-0.4l1-1.7
			c-0.9-0.8-1.2-2.2-0.5-3.3c0.4-0.6,0.9-1.1,1.6-1.2c0.7-0.2,1.4-0.1,2,0.3c0.6,0.4,1.1,0.9,1.2,1.6c0.2,0.7,0.1,1.4-0.3,2
			c-0.4,0.6-0.9,1.1-1.6,1.2c-0.2,0.1-0.5,0.1-0.7,0.1l0,0c-0.3,0-0.6,0-0.9-0.1l-1,1.7c-0.1,0.1-0.2,0.2-0.3,0.2
			C229.2,138.8,229.1,138.8,229.1,138.8z M231.4,131.9c-0.2,0-0.4,0-0.6,0.1c-0.6,0.2-1.1,0.6-1.5,1.1c-0.6,1-0.3,2.3,0.6,3.1
			l0.1,0.1l-1.1,1.9c0,0.1,0,0.1,0,0.2c0,0.1,0.1,0.1,0.1,0.1c0.1,0,0.1,0,0.2,0c0.1,0,0.1-0.1,0.1-0.1l1.1-1.9l0.1,0
			c0.5,0.2,1,0.2,1.5,0.1c0.6-0.2,1.1-0.6,1.5-1.1c0.3-0.6,0.4-1.2,0.2-1.8c-0.2-0.6-0.6-1.1-1.1-1.5
			C232.2,132,231.8,131.9,231.4,131.9z M231.4,136.2c-0.3,0-0.7-0.1-1-0.3c-0.4-0.3-0.8-0.7-0.9-1.2c-0.1-0.5-0.1-1,0.2-1.4
			c0.3-0.4,0.7-0.8,1.2-0.9c0.5-0.1,1-0.1,1.4,0.2c0.9,0.5,1.2,1.7,0.7,2.6c-0.3,0.4-0.7,0.8-1.2,0.9
			C231.7,136.2,231.6,136.2,231.4,136.2z M231.4,132.7c-0.1,0-0.3,0-0.4,0.1c-0.4,0.1-0.8,0.4-1,0.8c-0.2,0.4-0.3,0.8-0.2,1.2
			c0.1,0.4,0.4,0.8,0.8,1c0.4,0.2,0.8,0.3,1.2,0.2c0.4-0.1,0.8-0.4,1-0.8c0.4-0.8,0.2-1.8-0.6-2.2
			C232,132.8,231.7,132.7,231.4,132.7z"/>
	</g>
	<g>
		<path class="st2" d="M230.1,134c0,0-0.1,0-0.1,0c-0.1,0-0.1-0.1-0.1-0.1c0-0.1,0-0.1,0-0.2c0.2-0.4,0.6-0.7,1-0.8
			c0.5-0.2,1-0.1,1.4,0.1c0,0,0.1,0.1,0.1,0.1c0,0.1,0,0.1,0,0.2c-0.1,0.1-0.2,0.2-0.3,0.1c-0.3-0.2-0.7-0.2-1.1-0.1
			c-0.3,0.1-0.6,0.3-0.7,0.6C230.3,133.9,230.2,133.9,230.1,134L230.1,134z"/>
	</g>
</g>
<g>
	<g>
		<path class="st2" d="M229.2,198.6c-0.1,0-0.3-0.1-0.3-0.2l-1-1.7c-0.3,0.1-0.6,0.1-0.9,0.1l0,0c-0.2,0-0.5,0-0.7-0.1
			c-0.7-0.2-1.3-0.6-1.6-1.2c-0.4-0.6-0.5-1.3-0.3-2c0.2-0.7,0.6-1.3,1.2-1.6c0.6-0.4,1.4-0.5,2-0.3c0.7,0.2,1.3,0.6,1.6,1.2
			c0.6,1.1,0.4,2.5-0.5,3.3l1,1.7c0.1,0.1,0.1,0.3,0.1,0.4c0,0.1-0.1,0.3-0.2,0.3c-0.1,0-0.2,0.1-0.3,0.1
			C229.2,198.6,229.2,198.6,229.2,198.6z M225.8,192c-0.6,0.3-0.9,0.8-1.1,1.5c-0.2,0.6-0.1,1.3,0.2,1.8c0.3,0.6,0.8,0.9,1.5,1.1
			c0.5,0.1,1,0.1,1.5-0.1l0.1,0l1.1,1.9c0,0.1,0.1,0.1,0.1,0.1c0.1,0,0.1,0,0.2,0c0.1,0,0.1-0.1,0.1-0.1c0-0.1,0-0.1,0-0.2l-1.1-1.9
			l0.1-0.1c0.9-0.7,1.2-2,0.6-3.1c-0.3-0.6-0.8-1-1.5-1.1c-0.2-0.1-0.4-0.1-0.6-0.1C226.6,191.7,226.2,191.8,225.8,192z
			 M226.5,195.9c-0.5-0.1-0.9-0.4-1.2-0.9c-0.5-0.9-0.2-2.1,0.7-2.6c0.4-0.3,1-0.3,1.4-0.2c0.5,0.1,0.9,0.4,1.2,0.9
			c0.3,0.4,0.3,1,0.2,1.4c-0.1,0.5-0.4,0.9-0.9,1.2c-0.3,0.2-0.6,0.3-1,0.3C226.8,196,226.7,196,226.5,195.9z M226.2,192.7
			c-0.8,0.4-1,1.4-0.6,2.2c0.2,0.4,0.6,0.6,1,0.8c0.4,0.1,0.9,0,1.2-0.2c0.4-0.2,0.6-0.6,0.8-1c0.1-0.4,0.1-0.9-0.2-1.2
			c-0.2-0.4-0.6-0.6-1-0.8c-0.1,0-0.3-0.1-0.4-0.1C226.7,192.5,226.4,192.6,226.2,192.7z"/>
	</g>
	<g>
		<path class="st2" d="M228.3,193.7c0,0,0.1,0,0.1,0c0.1,0,0.1-0.1,0.1-0.1c0-0.1,0-0.1,0-0.2c-0.2-0.4-0.6-0.7-1-0.8
			c-0.5-0.2-1-0.1-1.4,0.1c0,0-0.1,0.1-0.1,0.1c0,0.1,0,0.1,0,0.2c0.1,0.1,0.2,0.2,0.3,0.1c0.3-0.2,0.7-0.2,1.1-0.1
			c0.3,0.1,0.6,0.3,0.7,0.6C228.1,193.7,228.2,193.7,228.3,193.7L228.3,193.7z"/>
	</g>
</g>
<g>
	<g>
		<path class="st2" d="M91.9,102.1h-2.2l0-0.1c0,0-0.2-1.2-0.8-2.1c-0.6-0.8-1-1.4-0.5-2.6c0.6-1.5,2.2-1.5,2.5-1.5
			c0.3,0,1.9,0.1,2.5,1.5c0.5,1.2,0.1,1.8-0.5,2.6c-0.7,0.9-0.8,2.1-0.8,2.1l0,0.1H91.9z M90,101.8h1.8c0.1-0.3,0.3-1.3,0.9-2.1
			c0.5-0.7,0.9-1.3,0.5-2.3c-0.5-1.3-2-1.4-2.2-1.4c-0.3,0-1.7,0.1-2.2,1.4c-0.4,1-0.1,1.6,0.5,2.3C89.7,100.6,90,101.5,90,101.8z"
			/>
	</g>
	<g>
		<path class="st2" d="M91.8,102.6h-1.7c-0.2,0-0.4-0.1-0.4-0.3c0-0.2,0.2-0.3,0.4-0.3h1.7c0.2,0,0.4,0.1,0.4,0.3
			C92.2,102.4,92,102.6,91.8,102.6z M90,102.3C90,102.3,90,102.3,90,102.3l1.8,0c0.1,0,0.1,0,0.1,0c0,0,0,0-0.1,0L90,102.3
			C90,102.2,90,102.3,90,102.3C90,102.3,90,102.3,90,102.3z"/>
	</g>
	<g>
		<path class="st2" d="M91.6,103h-1.4c-0.2,0-0.3-0.1-0.3-0.3s0.1-0.3,0.3-0.3h1.4c0.2,0,0.3,0.1,0.3,0.3S91.8,103,91.6,103z
			 M90.2,102.7C90.2,102.7,90.2,102.7,90.2,102.7C90.2,102.7,90.2,102.7,90.2,102.7l1.4,0.1c0,0,0,0,0,0c0,0,0,0,0,0H90.2z"/>
	</g>
	<g>
		<path class="st2" d="M91.5,103.4h-1.1c-0.2,0-0.3-0.1-0.3-0.3c0-0.2,0.1-0.3,0.3-0.3h1.1c0.2,0,0.3,0.1,0.3,0.3
			C91.8,103.3,91.7,103.4,91.5,103.4z M91.5,103.1h-1.1l0,0.1L91.5,103.1L91.5,103.1z"/>
	</g>
	<g>
		<path class="st2" d="M91.3,103.8h-0.8c-0.1,0-0.3-0.1-0.3-0.3c0-0.2,0.1-0.3,0.3-0.3h0.8c0.1,0,0.3,0.1,0.3,0.3
			C91.6,103.7,91.5,103.8,91.3,103.8z"/>
	</g>
</g>
<g>
	<g>
		<path class="st2" d="M15.7,125.5c-0.1,0-0.1,0-0.2,0c-0.1,0-0.2,0-0.2-0.1c-0.1-0.1-0.1-0.1-0.1-0.2l0-0.1c0,0-0.1,0-0.1,0l0,0.1
			c0,0.1-0.2,0.3-0.4,0.2c-0.2,0-0.3-0.1-0.4-0.1c-0.1,0-0.1-0.1-0.2-0.2c0-0.1,0-0.1,0-0.2l0-0.1c0,0-0.1,0-0.1,0l-0.1,0.1
			c-0.1,0.1-0.3,0.2-0.4,0.1c-0.1-0.1-0.2-0.2-0.4-0.3c-0.1-0.1-0.1-0.1-0.1-0.2c0-0.1,0-0.2,0.1-0.2l0.1-0.1c0,0,0,0-0.1-0.1
			l-0.1,0.1c-0.1,0.1-0.3,0.1-0.4-0.1c-0.1-0.1-0.2-0.2-0.2-0.4c0-0.1-0.1-0.2,0-0.2c0-0.1,0.1-0.1,0.1-0.2l0.1,0c0,0,0-0.1,0-0.1
			l-0.1,0c-0.1,0.1-0.3,0-0.4-0.2c0-0.2-0.1-0.3-0.1-0.4c0-0.1,0-0.2,0.1-0.2c0-0.1,0.1-0.1,0.2-0.1l0.1,0c0,0,0-0.1,0-0.1l-0.1,0
			l0,0c-0.2,0-0.3-0.1-0.3-0.3c0-0.1,0-0.3,0-0.4c0-0.1,0.1-0.3,0.3-0.3l0,0l0.1,0c0,0,0-0.1,0-0.1l-0.1,0c-0.1,0-0.1-0.1-0.2-0.1
			c0-0.1,0-0.2,0-0.2c0-0.1,0.1-0.3,0.2-0.4c0.1-0.1,0.3-0.2,0.4-0.1l0.1,0.1c0,0,0,0,0-0.1l-0.1-0.1c-0.1,0-0.1-0.1-0.1-0.2
			c0-0.1,0-0.2,0.1-0.2c0.1-0.1,0.2-0.2,0.3-0.3c0.1-0.1,0.3-0.1,0.4,0l0.1,0.1c0,0,0,0,0.1-0.1l-0.1-0.1c0-0.1-0.1-0.1,0-0.2
			c0-0.1,0.1-0.2,0.1-0.2c0.1-0.1,0.2-0.1,0.4-0.2c0.1-0.1,0.3,0,0.4,0.1l0,0.1c0,0,0.1,0,0.1,0l0-0.1c0-0.1,0-0.2,0-0.2
			c0-0.1,0.1-0.1,0.2-0.1c0.1,0,0.3-0.1,0.4-0.1l0,0c0.2,0,0.3,0.1,0.3,0.3l0,0.1c0,0,0.1,0,0.1,0l0-0.1c0-0.2,0.1-0.3,0.3-0.3
			c0.2,0,0.3,0,0.5,0.1c0.1,0,0.2,0.1,0.2,0.1c0,0.1,0.1,0.1,0,0.2l0,0.1c0,0,0.1,0,0.1,0l0-0.1c0.1-0.1,0.2-0.2,0.4-0.2
			c0.1,0.1,0.3,0.1,0.4,0.2c0.1,0,0.1,0.1,0.1,0.2c0,0.1,0,0.2,0,0.2l-0.1,0.1c0,0,0,0,0.1,0.1l0.1-0.1c0.1-0.1,0.3-0.1,0.4,0
			c0.1,0.1,0.2,0.2,0.3,0.3c0.1,0.1,0.1,0.1,0.1,0.2c0,0.1,0,0.1-0.1,0.2l-0.1,0.1c0,0,0,0,0.1,0.1l0.1-0.1c0.1-0.1,0.3,0,0.4,0.1
			c0.1,0.1,0.1,0.3,0.2,0.4c0,0.1,0,0.2,0,0.2c0,0.1-0.1,0.1-0.2,0.1l-0.1,0c0,0,0,0.1,0,0.1l0.2,0c0.1,0,0.3,0.1,0.3,0.2
			c0,0.2,0,0.3,0,0.4c0,0.1,0,0.2-0.1,0.2c0,0.1-0.1,0.1-0.2,0.1h-0.1c0,0,0,0.1,0,0.1l0.1,0c0.1,0,0.1,0.1,0.2,0.1
			c0,0.1,0.1,0.1,0.1,0.2c0,0.2-0.1,0.3-0.1,0.4c0,0.2-0.2,0.2-0.4,0.2l-0.1,0c0,0,0,0.1,0,0.1l0.1,0c0.1,0,0.1,0.1,0.1,0.2
			c0,0.1,0,0.2,0,0.2c-0.1,0.1-0.2,0.3-0.2,0.4c-0.1,0.1-0.3,0.2-0.4,0.1l-0.1-0.1c0,0,0,0-0.1,0.1l0.1,0.1c0.1,0,0.1,0.1,0.1,0.2
			c0,0.1,0,0.2-0.1,0.2c-0.1,0.1-0.2,0.2-0.3,0.3c-0.1,0.1-0.3,0.1-0.4-0.1l-0.1-0.1c0,0-0.1,0-0.1,0l0,0.1c0,0.1,0,0.1,0,0.2
			c0,0.1-0.1,0.1-0.2,0.2c-0.1,0.1-0.3,0.1-0.4,0.2c-0.2,0-0.3,0-0.4-0.2l0-0.1c0,0-0.1,0-0.1,0l0,0.1c0,0.1,0,0.1-0.1,0.2
			c-0.1,0.1-0.1,0.1-0.2,0.1C15.9,125.5,15.8,125.5,15.7,125.5z M14.9,124.8l0.1,0c0.1,0,0.2,0,0.3,0.1l0.1,0l0,0.4
			c0.2,0,0.3,0,0.4,0l0-0.4l0.1,0c0.1,0,0.2,0,0.3-0.1l0.1,0l0.1,0.4c0.2,0,0.3-0.1,0.4-0.1l-0.2-0.4l0.1-0.1c0.1,0,0.2-0.1,0.3-0.2
			l0.1-0.1l0.2,0.3c0.1-0.1,0.2-0.2,0.3-0.3l-0.3-0.3l0.1-0.1c0.1-0.1,0.2-0.2,0.2-0.3l0.1-0.1l0.3,0.2c0.1-0.1,0.2-0.2,0.2-0.4
			l-0.3-0.2l0.1-0.1c0-0.1,0.1-0.2,0.1-0.3c-0.4,1.1-1.5,1.9-2.8,1.9c-1.6,0-2.9-1.3-2.9-2.9c0-1.6,1.3-2.9,2.9-2.9s2.9,1.3,2.9,2.9
			c0,0.1,0,0.2,0,0.3c0-0.1,0-0.2,0-0.3l0-0.1H19c0-0.1,0-0.3,0-0.4l-0.4,0.1l0-0.1c0-0.1,0-0.2-0.1-0.3l0-0.1l0.4-0.1
			c0-0.1-0.1-0.3-0.2-0.4l-0.3,0.2l-0.1-0.1c-0.1-0.1-0.1-0.2-0.2-0.3l-0.1-0.1l0.3-0.2c-0.1-0.1-0.2-0.2-0.3-0.3l-0.3,0.3l-0.1-0.1
			c-0.1-0.1-0.2-0.1-0.3-0.2l-0.1-0.1l0.2-0.3c-0.1-0.1-0.3-0.1-0.4-0.2l-0.2,0.4l-0.1,0c-0.1,0-0.2-0.1-0.3-0.1l-0.1,0l0.1-0.4
			c-0.1,0-0.3-0.1-0.4-0.1l0,0.4l-0.1,0c-0.1,0-0.1,0-0.1,0c-0.1,0-0.2,0-0.2,0l-0.1,0l0-0.4c-0.2,0-0.3,0-0.4,0.1L15,119l-0.1,0
			c-0.1,0-0.2,0.1-0.3,0.1l-0.1,0.1l-0.2-0.4c-0.1,0.1-0.3,0.1-0.4,0.2l0.2,0.3l-0.1,0.1c-0.1,0.1-0.2,0.1-0.3,0.2l-0.1,0.1
			l-0.3-0.3c-0.1,0.1-0.2,0.2-0.3,0.3l0.3,0.2l-0.1,0.1c-0.1,0.1-0.1,0.2-0.2,0.3l-0.1,0.1l-0.3-0.2c-0.1,0.1-0.1,0.3-0.2,0.4
			l0.4,0.1l0,0.1c0,0.1-0.1,0.2-0.1,0.3l0,0.1l-0.4-0.1c0,0.2,0,0.3,0,0.4l0.2,0l0.1,0l0,0.1c0,0.1,0,0.2,0,0.3l0,0.1l-0.4,0.1
			c0,0.1,0.1,0.3,0.1,0.4l0.4-0.1l0,0.1c0,0.1,0.1,0.2,0.1,0.3l0.1,0.1l-0.3,0.2c0.1,0.1,0.2,0.2,0.2,0.4l0.3-0.2l0.1,0.1
			c0.1,0.1,0.1,0.2,0.2,0.2l0.1,0.1l-0.3,0.3c0.1,0.1,0.2,0.2,0.3,0.3l0.2-0.3l0.1,0.1c0.1,0.1,0.2,0.1,0.3,0.2l0.1,0.1l-0.2,0.3
			c0.1,0.1,0.3,0.1,0.4,0.1L14.9,124.8z M15.7,119.2c-1.5,0-2.7,1.2-2.7,2.7c0,1.5,1.2,2.7,2.7,2.7c1.5,0,2.7-1.2,2.7-2.7
			C18.4,120.4,17.2,119.2,15.7,119.2z M18.5,122.7l0.4,0.1c0-0.1,0.1-0.3,0.1-0.4l-0.4-0.1l0-0.1C18.6,122.5,18.6,122.6,18.5,122.7
			L18.5,122.7z"/>
	</g>
	<g>
		<path class="st2" d="M18.3,126.2c0,0-0.1,0-0.1,0c-0.1,0-0.1,0-0.2-0.1c0,0,0-0.1-0.1-0.1c0,0.1-0.1,0.1-0.2,0.1l-0.1,0
			c-0.1,0-0.2-0.1-0.3-0.1c-0.1,0-0.1-0.1-0.1-0.1c0,0,0-0.1,0-0.1c-0.1,0.1-0.2,0.1-0.3,0c-0.1-0.1-0.2-0.1-0.3-0.2
			c-0.1,0-0.1-0.1-0.1-0.2c0,0,0-0.1,0-0.1c-0.1,0-0.2,0-0.3-0.1c-0.1-0.1-0.1-0.2-0.2-0.3c0-0.1,0-0.1,0-0.2c0,0,0-0.1,0.1-0.1h0
			c-0.1,0-0.2-0.1-0.2-0.2c0-0.1-0.1-0.2-0.1-0.3c0-0.1,0-0.1,0-0.2c0,0,0.1-0.1,0.1-0.1c-0.1,0-0.2-0.1-0.2-0.2c0-0.1,0-0.2,0-0.3
			c0-0.1,0.1-0.2,0.2-0.2c0,0-0.1-0.1-0.1-0.1c0-0.1,0-0.1,0-0.2c0-0.1,0.1-0.2,0.1-0.3c0-0.1,0.2-0.2,0.3-0.1c0,0,0-0.1,0-0.1
			c0-0.1,0-0.1,0.1-0.2c0.1-0.1,0.1-0.2,0.2-0.2c0.1-0.1,0.2-0.1,0.3,0c0,0,0-0.1,0-0.1c0-0.1,0.1-0.1,0.1-0.2
			c0.1-0.1,0.2-0.1,0.3-0.2c0.1,0,0.2,0,0.3,0.1c0,0,0-0.1,0-0.1c0-0.1,0.1-0.1,0.2-0.1c0.1,0,0.2,0,0.3-0.1c0.1,0,0.2,0.1,0.3,0.1
			c0-0.1,0.1-0.2,0.2-0.2c0.1,0,0.2,0,0.3,0c0.1,0,0.1,0.1,0.2,0.1c0,0,0,0.1,0,0.1c0.1-0.1,0.2-0.1,0.3-0.1c0.1,0,0.2,0.1,0.3,0.1
			c0.1,0,0.1,0.1,0.1,0.2c0,0,0,0.1,0,0.1c0.1,0,0.2,0,0.3,0c0.1,0.1,0.1,0.1,0.2,0.2c0,0.1,0.1,0.1,0.1,0.2c0,0,0,0.1,0,0.1
			c0.1,0,0.2,0,0.3,0.1c0.1,0.1,0.1,0.2,0.1,0.3c0,0.1,0,0.1,0,0.2c0,0,0,0.1-0.1,0.1c0.1,0,0.2,0.1,0.2,0.2c0,0.1,0,0.2,0,0.3
			c0,0.1,0,0.1-0.1,0.2c0,0-0.1,0-0.1,0.1c0,0,0.1,0,0.1,0.1c0,0.1,0.1,0.1,0.1,0.2c0,0.1,0,0.2-0.1,0.3c0,0.1-0.1,0.2-0.2,0.2
			c0,0,0,0.1,0.1,0.1c0,0.1,0,0.1,0,0.2c0,0.1-0.1,0.2-0.2,0.3c-0.1,0.1-0.2,0.1-0.3,0.1c0,0,0,0.1,0,0.1c0,0.1,0,0.1-0.1,0.2
			c-0.1,0.1-0.2,0.1-0.2,0.2c-0.1,0.1-0.2,0.1-0.3,0c0,0,0,0.1,0,0.1c0,0.1-0.1,0.1-0.1,0.2c-0.1,0-0.2,0.1-0.3,0.1l-0.1,0
			c-0.1,0-0.2,0-0.2-0.1c0,0,0,0.1,0,0.1c0,0.1-0.1,0.1-0.2,0.1C18.5,126.2,18.4,126.2,18.3,126.2z M18.3,125.9c0.1,0,0.1,0,0.2,0
			l0-0.2c-0.1,0-0.1,0-0.2,0L18.3,125.9z M17.5,125.8c0.1,0,0.1,0,0.2,0.1l0-0.2c-0.1,0-0.1,0-0.2-0.1L17.5,125.8z M19,125.6l0,0.2
			c0.1,0,0.1,0,0.2-0.1l-0.1-0.2C19.1,125.6,19,125.6,19,125.6z M16.9,125.4c0.1,0,0.1,0.1,0.2,0.1l0.1-0.2c0,0-0.1-0.1-0.1-0.1
			L16.9,125.4z M19.6,125.3l0.1,0.2c0.1,0,0.1-0.1,0.2-0.1l-0.1-0.1C19.7,125.3,19.6,125.3,19.6,125.3z M18.3,121.9
			c-1,0-1.8,0.8-1.8,1.8c0,1,0.8,1.8,1.8,1.8c1,0,1.8-0.8,1.8-1.8C20.1,122.7,19.3,121.9,18.3,121.9z M16.4,124.8
			c0,0.1,0.1,0.1,0.1,0.2l0.2-0.1c0,0-0.1-0.1-0.1-0.2L16.4,124.8z M20,124.9l0.2,0.1c0-0.1,0.1-0.1,0.1-0.2l-0.2-0.1
			C20.1,124.7,20.1,124.8,20,124.9z M16.1,124.2c0,0.1,0,0.1,0.1,0.2l0.2-0.1c0-0.1,0-0.1,0-0.2L16.1,124.2z M20.3,124.2l0.2,0.1
			c0-0.1,0-0.1,0.1-0.2l-0.2,0C20.3,124.1,20.3,124.2,20.3,124.2z M16.1,123.4c0,0.1,0,0.1,0,0.2l0.2,0c0-0.1,0-0.1,0-0.2
			L16.1,123.4z M20.4,123.6h0.2c0-0.1,0-0.1,0-0.2l-0.2,0C20.4,123.4,20.4,123.5,20.4,123.6z M16.2,122.9l0.2,0.1
			c0-0.1,0-0.1,0.1-0.2l-0.2-0.1C16.3,122.8,16.2,122.8,16.2,122.9z M20.2,122.7c0,0.1,0.1,0.1,0.1,0.2l0.2-0.1
			c0-0.1-0.1-0.1-0.1-0.2L20.2,122.7z M16.6,122.3l0.2,0.1c0,0,0.1-0.1,0.1-0.1l-0.1-0.2C16.7,122.1,16.6,122.2,16.6,122.3z
			 M19.8,122.2c0,0,0.1,0.1,0.1,0.1l0.2-0.1c0-0.1-0.1-0.1-0.2-0.2L19.8,122.2z M17.1,121.8l0.1,0.2c0,0,0.1-0.1,0.2-0.1l-0.1-0.2
			C17.3,121.7,17.2,121.7,17.1,121.8z M19.2,121.8c0.1,0,0.1,0.1,0.2,0.1l0.1-0.2c-0.1,0-0.1-0.1-0.2-0.1L19.2,121.8z M17.8,121.5
			l0.1,0.2c0.1,0,0.1,0,0.2,0l0-0.2C18,121.4,17.9,121.5,17.8,121.5z M18.6,121.6c0.1,0,0.1,0,0.2,0l0.1-0.2c-0.1,0-0.1,0-0.2,0
			L18.6,121.6z"/>
	</g>
</g>
<g>
	<g>
		<path class="st2" d="M130.9,60.3c-0.1,0-0.1,0-0.2,0c-0.1,0-0.2,0-0.2-0.1c-0.1-0.1-0.1-0.1-0.1-0.2l0-0.1c0,0-0.1,0-0.1,0l0,0.1
			c0,0.1-0.2,0.3-0.4,0.2c-0.2,0-0.3-0.1-0.4-0.1c-0.1,0-0.1-0.1-0.2-0.2c0-0.1,0-0.1,0-0.2l0-0.1c0,0-0.1,0-0.1,0l-0.1,0.1
			c-0.1,0.1-0.3,0.2-0.4,0.1c-0.1-0.1-0.2-0.2-0.4-0.3c-0.1-0.1-0.1-0.1-0.1-0.2c0-0.1,0-0.2,0.1-0.2l0.1-0.1c0,0,0,0-0.1-0.1
			l-0.1,0.1c-0.1,0.1-0.3,0.1-0.4-0.1c-0.1-0.1-0.2-0.2-0.2-0.4c0-0.1-0.1-0.2,0-0.2c0-0.1,0.1-0.1,0.1-0.2l0.1,0c0,0,0-0.1,0-0.1
			l-0.1,0c-0.1,0.1-0.3,0-0.4-0.2c0-0.2-0.1-0.3-0.1-0.4c0-0.1,0-0.2,0-0.2c0-0.1,0.1-0.1,0.2-0.1l0.1,0c0,0,0-0.1,0-0.1l-0.1,0l0,0
			c-0.2,0-0.3-0.1-0.3-0.3c0-0.1,0-0.3,0-0.4c0-0.1,0.1-0.3,0.3-0.3l0,0l0.1,0c0,0,0-0.1,0-0.1l-0.1,0c-0.1,0-0.1-0.1-0.2-0.1
			c0-0.1,0-0.2,0-0.2c0-0.1,0.1-0.3,0.2-0.4c0.1-0.1,0.3-0.2,0.4-0.1l0.1,0.1c0,0,0,0,0-0.1l-0.1-0.1c-0.1,0-0.1-0.1-0.1-0.2
			c0-0.1,0-0.2,0.1-0.2c0.1-0.1,0.2-0.2,0.3-0.3c0.1-0.1,0.3-0.1,0.4,0l0.1,0.1c0,0,0,0,0.1-0.1l-0.1-0.1c0-0.1-0.1-0.1,0-0.2
			c0-0.1,0.1-0.2,0.1-0.2c0.1-0.1,0.2-0.1,0.4-0.2c0.1-0.1,0.3,0,0.4,0.1l0,0.1c0,0,0.1,0,0.1,0l0-0.1c0-0.1,0-0.2,0-0.2
			c0-0.1,0.1-0.1,0.2-0.1c0.1,0,0.3-0.1,0.4-0.1l0,0c0.2,0,0.3,0.1,0.3,0.3l0,0.1c0,0,0.1,0,0.1,0l0-0.1c0-0.2,0.1-0.3,0.3-0.3
			c0.2,0,0.3,0,0.5,0.1c0.1,0,0.2,0.1,0.2,0.1c0,0.1,0.1,0.1,0,0.2l0,0.1c0,0,0.1,0,0.1,0l0-0.1c0.1-0.1,0.2-0.2,0.4-0.2
			c0.1,0.1,0.3,0.1,0.4,0.2c0.1,0,0.1,0.1,0.1,0.2c0,0.1,0,0.2,0,0.2l-0.1,0.1c0,0,0,0,0.1,0.1l0.1-0.1c0.1-0.1,0.3-0.1,0.4,0
			c0.1,0.1,0.2,0.2,0.3,0.3c0.1,0.1,0.1,0.1,0.1,0.2c0,0.1,0,0.1-0.1,0.2l-0.1,0.1c0,0,0,0,0,0.1l0.1-0.1c0.1-0.1,0.3,0,0.4,0.1
			c0.1,0.1,0.1,0.3,0.2,0.4c0,0.1,0,0.2,0,0.2c0,0.1-0.1,0.1-0.2,0.1l-0.1,0c0,0,0,0.1,0,0.1l0.2,0c0.1,0,0.3,0.1,0.3,0.2
			c0,0.2,0,0.3,0,0.4c0,0.1,0,0.2-0.1,0.2c0,0.1-0.1,0.1-0.2,0.1h-0.1c0,0,0,0.1,0,0.1l0.1,0c0.1,0,0.1,0,0.2,0.1
			c0,0.1,0.1,0.1,0.1,0.2c0,0.2-0.1,0.3-0.1,0.4c0,0.2-0.2,0.2-0.4,0.2l-0.1,0c0,0,0,0.1,0,0.1l0.1,0c0.1,0,0.1,0.1,0.1,0.2
			c0,0.1,0,0.2,0,0.2c-0.1,0.1-0.1,0.3-0.2,0.4c-0.1,0.1-0.3,0.2-0.4,0.1l-0.1-0.1c0,0,0,0-0.1,0.1l0.1,0.1c0.1,0,0.1,0.1,0.1,0.2
			c0,0.1,0,0.2-0.1,0.2c-0.1,0.1-0.2,0.2-0.3,0.3c-0.1,0.1-0.3,0.1-0.4-0.1l-0.1-0.1c0,0,0,0-0.1,0l0,0.1c0,0.1,0,0.1,0,0.2
			c0,0.1-0.1,0.1-0.2,0.2c-0.1,0.1-0.3,0.1-0.4,0.2c-0.2,0-0.3,0-0.4-0.2l0-0.1c0,0-0.1,0-0.1,0l0,0.1c0,0.1,0,0.1-0.1,0.2
			c-0.1,0.1-0.1,0.1-0.2,0.1C131,60.3,130.9,60.3,130.9,60.3z M130.1,59.6l0.1,0c0.1,0,0.2,0,0.3,0l0.1,0l0,0.4c0.2,0,0.3,0,0.4,0
			l0-0.4l0.1,0c0.1,0,0.2,0,0.3-0.1l0.1,0l0.1,0.4c0.2,0,0.3-0.1,0.4-0.1l-0.2-0.4l0.1-0.1c0.1,0,0.2-0.1,0.3-0.2l0.1-0.1l0.2,0.3
			c0.1-0.1,0.2-0.2,0.3-0.3l-0.3-0.3l0.1-0.1c0.1-0.1,0.2-0.2,0.2-0.3l0.1-0.1l0.3,0.2c0.1-0.1,0.2-0.2,0.2-0.4l-0.3-0.2l0.1-0.1
			c0-0.1,0.1-0.2,0.1-0.3c-0.4,1.1-1.5,1.9-2.8,1.9c-1.6,0-2.9-1.3-2.9-2.9c0-1.6,1.3-2.9,2.9-2.9c1.6,0,2.9,1.3,2.9,2.9
			c0,0.1,0,0.2,0,0.3c0-0.1,0-0.2,0-0.3l0-0.1h0.4c0-0.1,0-0.3,0-0.4l-0.4,0.1l0-0.1c0-0.1,0-0.2-0.1-0.3l0-0.1l0.4-0.1
			c0-0.1-0.1-0.3-0.2-0.4l-0.3,0.2l-0.1-0.1c-0.1-0.1-0.1-0.2-0.2-0.3l-0.1-0.1l0.3-0.2c-0.1-0.1-0.2-0.2-0.3-0.3l-0.3,0.3l-0.1-0.1
			c-0.1-0.1-0.2-0.1-0.3-0.2l-0.1-0.1l0.2-0.3c-0.1-0.1-0.3-0.1-0.4-0.2l-0.2,0.4l-0.1,0c-0.1,0-0.2-0.1-0.3-0.1l-0.1,0l0.1-0.4
			c-0.1,0-0.3-0.1-0.4-0.1l0,0.4l-0.1,0c-0.1,0-0.1,0-0.1,0c-0.1,0-0.2,0-0.2,0l-0.1,0l0-0.4c-0.2,0-0.3,0-0.4,0.1l0.1,0.4l-0.1,0
			c-0.1,0-0.2,0.1-0.3,0.1l-0.1,0.1l-0.2-0.4c-0.1,0.1-0.3,0.1-0.4,0.2l0.2,0.3l-0.1,0.1c-0.1,0.1-0.2,0.1-0.3,0.2l-0.1,0.1
			l-0.3-0.3c-0.1,0.1-0.2,0.2-0.3,0.3l0.3,0.2l-0.1,0.1c-0.1,0.1-0.1,0.2-0.2,0.3l-0.1,0.1l-0.3-0.2c-0.1,0.1-0.1,0.3-0.2,0.4
			l0.4,0.1l0,0.1c0,0.1-0.1,0.2-0.1,0.3l0,0.1l-0.4-0.1c0,0.2,0,0.3,0,0.4l0.2,0l0.1,0l0,0.1c0,0.1,0,0.2,0,0.3l0,0.1l-0.4,0.1
			c0,0.1,0.1,0.3,0.1,0.4l0.4-0.1l0.1,0.1c0,0.1,0.1,0.2,0.1,0.3l0.1,0.1l-0.3,0.2c0.1,0.1,0.1,0.2,0.2,0.3l0.3-0.2l0.1,0.1
			c0.1,0.1,0.2,0.2,0.2,0.2l0.1,0.1l-0.3,0.3c0.1,0.1,0.2,0.2,0.3,0.3l0.2-0.3l0.1,0.1c0.1,0.1,0.2,0.1,0.3,0.2l0.1,0.1l-0.2,0.3
			c0.1,0.1,0.3,0.1,0.4,0.1L130.1,59.6z M130.9,54.1c-1.5,0-2.7,1.2-2.7,2.7c0,1.5,1.2,2.7,2.7,2.7c1.5,0,2.7-1.2,2.7-2.7
			C133.5,55.3,132.3,54.1,130.9,54.1z M133.7,57.6l0.4,0.1c0-0.1,0.1-0.3,0.1-0.4l-0.4-0.1l0-0.1C133.7,57.3,133.7,57.4,133.7,57.6
			L133.7,57.6z"/>
	</g>
	<g>
		<path class="st2" d="M133.5,61c0,0-0.1,0-0.1,0c-0.1,0-0.1,0-0.2-0.1c0,0,0-0.1-0.1-0.1c0,0.1-0.1,0.1-0.2,0.1l-0.1,0
			c-0.1,0-0.2-0.1-0.3-0.1c-0.1,0-0.1-0.1-0.1-0.1c0,0,0-0.1,0-0.1c-0.1,0.1-0.2,0.1-0.3,0c-0.1-0.1-0.2-0.1-0.2-0.2
			c-0.1,0-0.1-0.1-0.1-0.2c0,0,0-0.1,0-0.1c-0.1,0-0.2,0-0.3-0.1c-0.1-0.1-0.1-0.2-0.2-0.3c0-0.1,0-0.1,0-0.2c0,0,0-0.1,0.1-0.1h0
			c-0.1,0-0.2-0.1-0.2-0.2c0-0.1-0.1-0.2-0.1-0.3c0-0.1,0-0.1,0-0.2c0,0,0.1-0.1,0.1-0.1c-0.1,0-0.2-0.1-0.2-0.2c0-0.1,0-0.2,0-0.3
			c0-0.1,0.1-0.2,0.2-0.2c0,0-0.1-0.1-0.1-0.1c0-0.1,0-0.1,0-0.2c0-0.1,0.1-0.2,0.1-0.3c0-0.1,0.2-0.2,0.3-0.1c0,0,0-0.1,0-0.1
			c0-0.1,0-0.1,0.1-0.2c0.1-0.1,0.1-0.2,0.2-0.2c0.1-0.1,0.2-0.1,0.3,0c0,0,0-0.1,0-0.1c0-0.1,0.1-0.1,0.1-0.2
			c0.1-0.1,0.2-0.1,0.3-0.2c0.1,0,0.2,0,0.3,0.1c0,0,0-0.1,0-0.1c0-0.1,0.1-0.1,0.2-0.1c0.1,0,0.2,0,0.3-0.1c0.1,0,0.2,0.1,0.3,0.1
			c0-0.1,0.1-0.2,0.2-0.2c0.1,0,0.2,0,0.3,0c0.1,0,0.1,0.1,0.2,0.1c0,0,0,0.1,0,0.1c0.1-0.1,0.2-0.1,0.3-0.1c0.1,0,0.2,0.1,0.3,0.1
			c0.1,0,0.1,0.1,0.1,0.2c0,0,0,0.1,0,0.1c0.1,0,0.2,0,0.3,0c0.1,0.1,0.1,0.1,0.2,0.2c0,0.1,0.1,0.1,0.1,0.2c0,0,0,0.1,0,0.1
			c0.1,0,0.2,0,0.3,0.1c0.1,0.1,0.1,0.2,0.1,0.3c0,0.1,0,0.1,0,0.2c0,0,0,0.1-0.1,0.1c0.1,0,0.2,0.1,0.2,0.2c0,0.1,0,0.2,0,0.3
			c0,0.1,0,0.1-0.1,0.2c0,0-0.1,0-0.1,0.1c0,0,0.1,0,0.1,0.1c0,0.1,0.1,0.1,0,0.2c0,0.1,0,0.2-0.1,0.3c0,0.1-0.1,0.2-0.2,0.2
			c0,0,0,0.1,0.1,0.1c0,0.1,0,0.1,0,0.2c0,0.1-0.1,0.2-0.2,0.3c-0.1,0.1-0.2,0.1-0.3,0.1c0,0,0,0.1,0,0.1c0,0.1,0,0.1-0.1,0.2
			c-0.1,0.1-0.2,0.1-0.2,0.2c-0.1,0.1-0.2,0.1-0.3,0c0,0,0,0.1,0,0.1c0,0.1-0.1,0.1-0.1,0.2c-0.1,0-0.2,0.1-0.3,0.1l-0.1,0
			c-0.1,0-0.2,0-0.2-0.1c0,0,0,0.1,0,0.1c0,0.1-0.1,0.1-0.2,0.1C133.6,61,133.6,61,133.5,61z M133.4,60.8c0.1,0,0.1,0,0.2,0l0-0.2
			c-0.1,0-0.1,0-0.2,0L133.4,60.8z M132.7,60.6c0.1,0,0.1,0,0.2,0.1l0-0.2c-0.1,0-0.1,0-0.2-0.1L132.7,60.6z M134.1,60.5l0,0.2
			c0.1,0,0.1,0,0.2-0.1l-0.1-0.2C134.2,60.4,134.2,60.5,134.1,60.5z M132.1,60.2c0.1,0,0.1,0.1,0.2,0.1l0.1-0.2
			c-0.1,0-0.1-0.1-0.1-0.1L132.1,60.2z M134.7,60.2l0.1,0.2c0,0,0.1-0.1,0.2-0.1l-0.1-0.1C134.8,60.1,134.8,60.1,134.7,60.2z
			 M133.5,56.7c-1,0-1.8,0.8-1.8,1.8c0,1,0.8,1.8,1.8,1.8c1,0,1.8-0.8,1.8-1.8C135.3,57.5,134.5,56.7,133.5,56.7z M131.6,59.7
			c0,0.1,0.1,0.1,0.1,0.2l0.2-0.1c0,0-0.1-0.1-0.1-0.2L131.6,59.7z M135.2,59.7l0.2,0.1c0-0.1,0.1-0.1,0.1-0.2l-0.2-0.1
			C135.3,59.6,135.2,59.6,135.2,59.7z M131.3,59c0,0.1,0,0.1,0.1,0.2l0.2-0.1c0-0.1,0-0.1,0-0.2L131.3,59z M135.5,59.1l0.2,0.1
			c0-0.1,0-0.1,0.1-0.2l-0.2,0C135.5,58.9,135.5,59,135.5,59.1z M131.3,58.2c0,0.1,0,0.1,0,0.2l0.2,0c0-0.1,0-0.1,0-0.2L131.3,58.2z
			 M135.6,58.4h0.2c0-0.1,0-0.1,0-0.2l-0.2,0C135.5,58.3,135.5,58.3,135.6,58.4z M131.4,57.7l0.2,0.1c0-0.1,0-0.1,0.1-0.2l-0.2-0.1
			C131.4,57.6,131.4,57.7,131.4,57.7z M135.3,57.6c0,0.1,0.1,0.1,0.1,0.2l0.2-0.1c0-0.1-0.1-0.1-0.1-0.2L135.3,57.6z M131.7,57.1
			l0.2,0.1c0,0,0.1-0.1,0.1-0.1l-0.1-0.2C131.8,57,131.8,57,131.7,57.1z M134.9,57c0,0,0.1,0.1,0.1,0.1l0.2-0.1
			c-0.1-0.1-0.1-0.1-0.2-0.2L134.9,57z M132.3,56.6l0.1,0.2c0.1,0,0.1-0.1,0.2-0.1l-0.1-0.2C132.4,56.5,132.4,56.6,132.3,56.6z
			 M134.4,56.6c0.1,0,0.1,0.1,0.2,0.1l0.1-0.2c-0.1,0-0.1-0.1-0.2-0.1L134.4,56.6z M133,56.3l0.1,0.2c0.1,0,0.1,0,0.2,0l0-0.2
			C133.1,56.3,133.1,56.3,133,56.3z M133.7,56.5c0.1,0,0.1,0,0.2,0l0.1-0.2c-0.1,0-0.1,0-0.2,0L133.7,56.5z"/>
	</g>
</g>
<g>
	<g>
		<path class="st2" d="M92.7,35.1c-0.3,0-0.6-0.3-0.6-0.6c0-0.4,0.3-0.6,0.6-0.6c0.4,0,0.6,0.3,0.6,0.6C93.3,34.8,93,35.1,92.7,35.1
			z M92.7,34.1c-0.2,0-0.3,0.1-0.3,0.4c0,0.2,0.1,0.4,0.3,0.4c0.2,0,0.3-0.1,0.3-0.4C93,34.2,92.9,34.1,92.7,34.1z M93.2,33.4h-0.9
			l0-0.3c-0.1-0.5,0.1-1,0.5-1.5c0.3-0.4,0.5-0.7,0.5-1c0-0.4-0.3-0.5-0.6-0.5c-0.3,0-0.5,0.1-0.7,0.2l-0.2,0.1l-0.3-0.8l0.1-0.1
			c0.3-0.2,0.8-0.3,1.2-0.3c1,0,1.5,0.7,1.5,1.3c0,0.6-0.3,1-0.7,1.5c-0.3,0.4-0.4,0.7-0.4,1.1L93.2,33.4z M92.5,33.2h0.3l0,0
			c0-0.5,0.1-0.9,0.5-1.3c0.4-0.5,0.7-0.8,0.7-1.3c0-0.5-0.3-1-1.2-1c-0.3,0-0.7,0.1-1,0.2l0.1,0.2c0.2-0.1,0.5-0.2,0.7-0.2
			c0.6,0,0.9,0.3,0.9,0.8c0,0.4-0.2,0.7-0.6,1.2C92.6,32.2,92.4,32.7,92.5,33.2L92.5,33.2z"/>
	</g>
</g>
<g>
	<g>
		<path class="st2" d="M247.3,174.1c-0.3,0-0.6-0.3-0.6-0.6c0-0.4,0.3-0.6,0.6-0.6c0.4,0,0.6,0.3,0.6,0.6
			C247.9,173.8,247.6,174.1,247.3,174.1z M247.3,173.1c-0.2,0-0.3,0.1-0.3,0.4c0,0.2,0.1,0.4,0.3,0.4c0.2,0,0.3-0.1,0.3-0.4
			C247.6,173.2,247.5,173.1,247.3,173.1z M247.8,172.4h-0.9l0-0.3c-0.1-0.5,0.1-1,0.5-1.5c0.3-0.4,0.5-0.7,0.5-1
			c0-0.4-0.3-0.5-0.6-0.5c-0.3,0-0.5,0.1-0.7,0.2l-0.2,0.1l-0.3-0.8l0.1-0.1c0.3-0.2,0.8-0.3,1.2-0.3c1,0,1.5,0.7,1.5,1.3
			c0,0.6-0.3,1-0.7,1.5c-0.3,0.4-0.4,0.7-0.4,1.1L247.8,172.4z M247.1,172.2h0.3l0,0c0-0.5,0.1-0.9,0.5-1.3c0.4-0.5,0.7-0.8,0.7-1.3
			c0-0.5-0.3-1-1.2-1c-0.3,0-0.7,0.1-1,0.2l0.1,0.2c0.2-0.1,0.5-0.2,0.7-0.2c0.6,0,0.9,0.3,0.9,0.8c0,0.4-0.2,0.7-0.6,1.2
			C247.2,171.2,247.1,171.7,247.1,172.2L247.1,172.2z"/>
	</g>
</g>
<g>
	<g>
		<path class="st2" d="M36.6,165.1c-0.3,0-0.6-0.3-0.6-0.6c0-0.4,0.3-0.6,0.6-0.6c0.3,0,0.6,0.3,0.6,0.6
			C37.3,164.8,37,165.1,36.6,165.1z M36.7,164.1c-0.2,0-0.3,0.1-0.3,0.4s0.1,0.4,0.3,0.4c0.2,0,0.3-0.1,0.3-0.4
			C37,164.2,36.9,164.1,36.7,164.1z M37.1,163.5h-0.8l-0.1-4.1h1.1L37.1,163.5z M36.5,163.2h0.3l0.1-3.6h-0.5L36.5,163.2z"/>
	</g>
</g>
<g>
	<g>
		<path class="st2" d="M253.9,120.2c-0.3,0-0.6-0.3-0.6-0.6c0-0.4,0.3-0.6,0.6-0.6c0.3,0,0.6,0.3,0.6,0.6
			C254.5,119.9,254.3,120.2,253.9,120.2z M253.9,119.2c-0.2,0-0.3,0.1-0.3,0.4s0.1,0.4,0.3,0.4c0.2,0,0.3-0.1,0.3-0.4
			C254.2,119.3,254.1,119.2,253.9,119.2z M254.3,118.6h-0.8l-0.1-4.1h1.1L254.3,118.6z M253.8,118.3h0.3l0.1-3.6h-0.5L253.8,118.3z"
			/>
	</g>
</g>
<g>
	<g>
		<path class="st7" d="M158.8,137.8c-1.1,0-2-0.9-2-2.1c0-1.2,0.9-2.1,2-2.1c1.1,0,2,0.9,2,2.1C160.8,136.9,159.9,137.8,158.8,137.8
			z M158.8,134.6c-0.7,0-1.1,0.5-1.1,1.2c0,0.7,0.4,1.2,1,1.2c0.7,0,1.1-0.4,1.1-1.2C159.9,135,159.5,134.6,158.8,134.6z
			 M160.1,132.5h-2.7L157,119h3.5L160.1,132.5z M158.3,131.6h0.9l0.3-11.6H158L158.3,131.6z"/>
	</g>
</g>
<g>
	<g>
		<path class="st2" d="M245.4,70.6v-1.4c-1-0.5-1.6-1.4-1.6-2.3c0-1.5,1.5-2.7,3.3-2.7c0.9,0,1.8,0.3,2.4,0.9l0.2,0.2l-0.3,0.1
			c-1.1,0.4-1.8,1.2-1.8,2.2c0,0.6,0.3,1.2,0.8,1.6l0.2,0.2l-0.3,0.1c-0.7,0.2-1.5,0.3-2.2,0.1L245.4,70.6z M247.2,64.5
			c-1.7,0-3,1.1-3,2.4c0,0.8,0.6,1.6,1.5,2.1l0.1,0v0.6l0.4-0.5l0.1,0c0.6,0.2,1.3,0.1,1.9,0c-0.4-0.5-0.7-1-0.7-1.6
			c0-1,0.7-1.9,1.7-2.4C248.6,64.7,247.9,64.5,247.2,64.5z"/>
	</g>
	<g>
		<path class="st2" d="M252.5,71.2l-0.8-1.1c-0.3,0.1-0.6,0.1-0.9,0.1c-1.8,0-3.3-1.2-3.3-2.7c0-1.5,1.5-2.7,3.3-2.7
			c1.8,0,3.3,1.2,3.3,2.7c0,1-0.6,1.8-1.6,2.3V71.2z M251.8,69.7l0.4,0.5v-0.6l0.1,0c0.9-0.4,1.5-1.2,1.5-2.1c0-1.3-1.4-2.4-3-2.4
			c-1.7,0-3,1.1-3,2.4c0,1.3,1.4,2.4,3,2.4c0.3,0,0.6,0,0.9-0.1L251.8,69.7z"/>
	</g>
</g>
<g>
	<g>
		<path class="st2" d="M39.6,63.4v-1.4c-1-0.5-1.6-1.4-1.6-2.3c0-1.5,1.5-2.7,3.3-2.7c0.9,0,1.8,0.3,2.4,0.9L44,58l-0.3,0.1
			c-1.1,0.4-1.8,1.2-1.8,2.2c0,0.6,0.3,1.2,0.8,1.6L43,62l-0.3,0.1c-0.7,0.2-1.5,0.3-2.2,0.1L39.6,63.4z M41.3,57.3
			c-1.7,0-3,1.1-3,2.4c0,0.8,0.6,1.6,1.5,2.1l0.1,0v0.6l0.4-0.5l0.1,0c0.6,0.2,1.3,0.1,1.9,0c-0.4-0.5-0.7-1-0.7-1.6
			c0-1,0.7-1.9,1.7-2.4C42.8,57.5,42.1,57.3,41.3,57.3z"/>
	</g>
	<g>
		<path class="st2" d="M46.7,64l-0.8-1.1C45.6,62.9,45.3,63,45,63c-1.8,0-3.3-1.2-3.3-2.7c0-1.5,1.5-2.7,3.3-2.7
			c1.8,0,3.3,1.2,3.3,2.7c0,1-0.6,1.8-1.6,2.3V64z M46,62.5l0.4,0.5v-0.6l0.1,0c0.9-0.4,1.5-1.2,1.5-2.1c0-1.3-1.4-2.4-3-2.4
			c-1.7,0-3,1.1-3,2.4c0,1.3,1.4,2.4,3,2.4c0.3,0,0.6,0,0.9-0.1L46,62.5z"/>
	</g>
</g>
<g>
	<g>
		<polygon class="st8" points="108.2,263.4 103.5,263.4 100.9,272.2 101.4,273.4 106.2,275.2 111,273.7 111.6,272.2 		"/>
		<polygon class="st9" points="100.9,272.2 101.8,274.2 106.2,275.9 110.7,274.2 111.6,272.2 106.2,274.6 		"/>
	</g>
	<path class="st10" d="M127.6,87.2c-0.4-0.7-1.4,0.8-1.8,2c-0.2-0.4-1.2-6.1-1.3-8.6c-2.7-2.8-6.1-3.2-10.4-3.2
		c-4.7,0-10,0.7-12.7,3c-0.2,3-0.5,8.3-0.5,8.6c-0.5-1.1-1.3-2.4-1.7-1.7c-0.7,1.2-1.6,2.8-0.5,4.9c1.1,2.2,1.4,3.1,2.2,2.3
		c0.1-0.1,0.2-0.3,0.3-0.6l2.2,8.3l5.3,2.3c0.3,2.6,0.4,5.9,0.1,6.7c-0.5,1.6-4.4,9.8-4.4,9.8c16.6,0.5,16.6,0.1,18.5,0.7
		c1.7,0.6-4.2-8.7-4.8-10.1c-0.3-0.8-0.4-4.6-0.3-7.4l5.3-2.8l2.3-7c0.1-0.1,0.1-0.3,0.2-0.4c0.1,0.2,0.1,0.3,0.2,0.4
		c0.8,0.8,1.1-0.1,2.2-2.3C129.3,90,128.3,88.4,127.6,87.2z"/>
	<polygon class="st8" points="114.1,95.6 113.5,97.8 119.3,98.6 	"/>
	<polygon class="st8" points="112.8,95.6 113.4,97.8 107.6,98.6 	"/>
	<polygon class="st8" points="125.7,94.3 123.3,101.5 113.6,106.6 103.4,102.3 101.3,94 104.6,100.8 113.8,105 122.5,100.3 	"/>
	<path class="st11" d="M125.4,85.8h-9.6l-2.3,1l-2.2-1h-9.8c0,0,0,0,0,0l0.7,3.1l0,0c0.2,0.7,0.3,1.4,0.5,2.1
		c0.1,0.4,0.3,0.8,0.5,1.1c0.2,0.3,0.5,0.6,0.9,0.8c0.7,0.4,1.6,0.5,2.4,0.5c0.8,0,1.7-0.2,2.5-0.4c0.4-0.1,0.8-0.3,1.2-0.5
		c0.2-0.1,0.4-0.2,0.5-0.3c0.2-0.1,0.3-0.3,0.4-0.4c0.2-0.3,0.4-0.7,0.6-1c0.2-0.4,0.3-0.7,0.4-1.1c0.1-0.4,0.3-0.8,0.4-1.1
		c0-0.1,0.1-0.2,0.1-0.3c0,0,0.1-0.1,0.1-0.1c0,0,0.1-0.1,0.1-0.1c0.2-0.1,0.4-0.1,0.7-0.1c0.2,0,0.4,0,0.5,0.1c0,0,0,0,0.1,0l0,0
		c0,0,0,0,0,0c0.1,0,0.1,0.1,0.1,0.1c0.1,0.1,0.1,0.1,0.1,0.2c0.2,0.3,0.3,0.6,0.4,0.9c0.2,0.6,0.4,1.2,0.7,1.8
		c0.1,0.3,0.3,0.6,0.5,0.8c0.1,0.1,0.2,0.2,0.3,0.3c0.1,0.1,0.3,0.2,0.4,0.3c0.6,0.3,1.2,0.5,1.9,0.7c0.7,0.2,1.3,0.2,2,0.2
		c0.7,0,1.3-0.1,1.9-0.4c0.3-0.1,0.6-0.3,0.8-0.5c0.2-0.2,0.4-0.5,0.5-0.7c0.3-0.6,0.4-1.2,0.6-1.8
		C124.6,89.4,125.4,85.8,125.4,85.8C125.4,85.8,125.4,85.8,125.4,85.8z M111.4,89.5c-0.2,0.5-0.4,0.9-0.6,1.3
		c-0.3,0.4-0.7,0.7-1.1,1c-0.4,0.2-0.9,0.4-1.4,0.5c-0.5,0.1-1,0.2-1.5,0.1c-0.5,0-1-0.1-1.5-0.2c-0.2-0.1-0.4-0.2-0.6-0.3
		c0,0-0.1-0.1-0.1-0.1c0,0-0.1-0.1-0.1-0.1c-0.1-0.1-0.1-0.2-0.2-0.3c-0.2-0.4-0.4-0.9-0.5-1.3c-0.1-0.5-0.2-0.9-0.2-1.4
		c0-0.5,0-0.9,0.3-1.3c0.1-0.2,0.3-0.3,0.5-0.4c0.2-0.1,0.4-0.2,0.7-0.2c0.5-0.1,1-0.1,1.5-0.1c0.5,0,1-0.1,1.5-0.1
		c0.5,0,1,0,1.5,0.1c0.5,0.1,1,0.2,1.4,0.4c0.2,0.1,0.4,0.3,0.6,0.5c0.1,0.2,0.2,0.4,0.2,0.7C111.7,88.6,111.5,89,111.4,89.5z
		 M123.6,90c-0.1,0.5-0.3,0.9-0.5,1.3c-0.1,0.1-0.1,0.2-0.2,0.3c0,0-0.1,0.1-0.1,0.1c0,0-0.1,0.1-0.1,0.1c-0.2,0.1-0.4,0.3-0.6,0.3
		c-0.5,0.2-1,0.2-1.5,0.2c-0.5,0-1,0-1.5-0.1c-0.5-0.1-1-0.3-1.4-0.5c-0.4-0.2-0.8-0.6-1.1-1c-0.3-0.4-0.5-0.8-0.6-1.3
		c-0.1-0.5-0.3-0.9-0.3-1.4c0-0.2,0-0.5,0.2-0.7c0.1-0.2,0.3-0.4,0.6-0.5c0.4-0.2,0.9-0.3,1.4-0.4c0.5-0.1,1-0.1,1.5-0.1
		c0.5,0,1,0,1.5,0.1c0.5,0,1,0,1.5,0.1c0.2,0,0.5,0.1,0.7,0.2c0.2,0.1,0.4,0.2,0.5,0.4c0.2,0.4,0.3,0.9,0.3,1.3
		C123.8,89.1,123.8,89.5,123.6,90z"/>
	<path class="st8" d="M125.5,89.8c0,0,2.7-11.2,2.2-14c-0.4-2.8-1.4-6-11.9-7.3c-10.5-1.3-16.5,0.8-16.5,0.8l5,2.6l-8.6,0.5l3.5,5.7
		c0,0,0.8,3.6,1.3,7.3c0.4,3.7,1,5.3,1,5.3l1.1-11.3l14.9,1.7l-0.8-1.7l3.9,1.5l0.4-1.5l3.4,0.4L125.5,89.8z"/>
	<polygon class="st12" points="93.5,137.4 95.1,140.8 85.7,148.2 	"/>
	<path class="st13" d="M134.6,115.3l-16.3-4.2c0,0-3.1,4.1-4.7,4.1c-1.6,0-4.7-4.1-4.7-4.1l-16.3,4.2l-16.2,29.1v6l5.7,1l14.7-10.8
		l-3-5.1l-8.1,5.6l11.6-15.9l0.5,38.2l31.6,0l1.5-37.2l10.7,16l-10-2.7l-1.4,6.4l14.8,5.4l5.7-1v-6L134.6,115.3z"/>
	<path class="st14" d="M94.1,136.3c0.4-0.2,0.7-0.4,1.2-0.7c0.3-0.2,0.6-0.5,0.8-0.9c0.7-0.9,1.5-2,2-2.8c0.4-0.7,0.2-2.8,1.6-2.7
		c1.4,0.1,0.5,2.1,0.3,2.8c0.3-0.1,2.2-1.2,3.9-2.1c0.9-0.4,1.6-0.9,2.2-0.9l-0.2,1.8c-0.4,0.2-0.8,0.4-1.1,0.5
		c-1,0.5-4.6,2.4-3.6,2c0.7-0.3,2.1-1,2.7-1.3c0.6-0.3,1.1-0.7,1.5,0c0.4,0.7-0.1,0.9-0.9,1.4c-0.8,0.5-2.2,1.2-2.5,1.4
		c0,0,0,0-0.1,0c0,0,0,0,0.1,0c0.5-0.2,1.8-0.8,2.7-1.2c0.4-0.2,0.7-0.2,0.9-0.1l-0.1,1.1l0,0.3c-0.2,0.1-0.3,0.2-0.5,0.2
		c-0.6,0.3-2.7,1.4-2.3,1.3c0.4-0.1,1.6-0.7,2.3-1.1c0.1-0.1,0.3-0.1,0.5-0.1l-0.2,2c-1.6,0.9-4.2,2.6-6,2.8
		c-0.9,0.1-1.9,0.6-2.4,0.8c-0.6,0.2-0.3,0-0.6,0.2L94.1,136.3z"/>
	<g>
		<g>
			<polygon class="st15" points="121.5,149.4 103.7,150.2 106.4,128 124.2,127.1 			"/>
			<path class="st2" d="M106.2,127.8l-2.7,22.4l0,0.2l18.2-0.9l2.7-22.4l0-0.2L106.2,127.8z M121.3,149.2L104,150l2.6-21.8l17.4-0.8
				L121.3,149.2z"/>
			<polygon class="st16" points="104,150 121.3,149.2 124,127.3 			"/>
		</g>
		<path class="st10" d="M115.4,135.5c0.2-0.2,3.2-0.1,3.6-0.1c1.2,0,2.8-0.1,2.8-0.1s-5.1-0.4-5.2-0.4c-0.5,0-1.3-0.8-0.9-1.2
			c0.2-0.2,0.6-0.2,0.8-0.3c2.8-0.2,9,0.1,9,0.1l-1.7-2l0.3-2c0.2,0.2,1.2,1.4,2.3,2.3c1.1,1,3.2,2.9,3.8,4.2c0.6,1.3,1,2.5,1.4,3.5
			c0.1,0.3,0.5,0.9,1,1.6l-2,4.2c-1.4-1.7-2.5-2.4-2.6-2.4c-0.4-0.2-9.8-2.5-10-2.6c-0.3-0.1-0.8-0.7-0.4-1.2
			c0.2-0.2,5.4,0.5,5.4,0.5s-6.3-1.1-6.4-1.1c-1.2-0.2-1.2-0.9-0.8-1.4c0.2-0.2,6.3,0.4,6.3,0.4s-6-0.8-6.1-0.8
			C115,136.7,114.9,136,115.4,135.5z"/>
		<ellipse class="st2" cx="112.7" cy="144.4" rx="1.6" ry="1.5"/>
	</g>
	<g>
		<polygon class="st8" points="118.2,263.4 122.9,263.4 125.5,272.2 124.9,273.4 120.1,275.2 115.4,273.7 114.7,272.2 		"/>
		<polygon class="st9" points="125.5,272.2 124.6,274.2 120.1,275.9 115.6,274.2 114.7,272.2 120.1,274.6 		"/>
	</g>
	<polygon class="st11" points="129.4,166.5 97.8,166.5 96.6,176.4 97.4,197.5 101,265.5 110.3,265.5 113,176.1 116,265.5 
		125.4,265.5 128.9,197.7 130.1,176.3 	"/>
	<rect x="97.8" y="163.4" class="st17" width="31.6" height="3.2"/>
</g>
<radialGradient id="SVGID_1_" cx="108.1843" cy="270.0372" r="25.9793" gradientTransform="matrix(1.2297 0 0 0.8397 -18.1522 45.0222)" gradientUnits="userSpaceOnUse">
	<stop  offset="0" style="stop-color:#FFFFFF"/>
	<stop  offset="0.2431" style="stop-color:#FDFDFD"/>
	<stop  offset="0.3672" style="stop-color:#F5F5F5"/>
	<stop  offset="0.395" style="stop-color:#F2F2F2"/>
	<stop  offset="1" style="stop-color:#E6E7E8"/>
</radialGradient>
<ellipse class="st18" cx="114.9" cy="271.8" rx="44.3" ry="6"/>
</svg>
